<svg width="71" height="28" viewBox="0 0 71 28" fill="none" xmlns="http://www.w3.org/2000/svg">
<path fill-rule="evenodd" clip-rule="evenodd" d="M58.8805 22.4989V17.2294H61.1975V7.96045L58.8805 12.5951V1.02778H67.9809L70.2978 27.6753H61.1975V22.4989H58.8805V22.4989ZM58.8805 1.02778V12.5951L56.5635 17.2294H58.8805V22.4989H54.508L52.7142 27.395H47.0707V21.303L53.3681 7.71761H52.0789L55.6664 1.02778H58.8805V1.02778ZM47.0707 9.90422L49.8923 3.21404L47.0707 1.64451V9.90422ZM24.6285 7.34406C24.7592 6.5777 24.7592 5.83026 24.6285 5.12031V7.34406ZM47.0707 1.64451V9.90422L46.6971 10.8009C41.1286 6.82054 32.9064 10.446 32.4393 14.6503C31.9722 19.0421 35.3169 22.5925 43.8566 19.9388L40.9229 27.7875C29.6552 29.0392 25.2827 24.5731 24.6285 19.3596V16.4069C24.7967 15.0428 25.1516 13.7161 25.6377 12.4829C31.1873 -1.30811 40.1944 1.79379 43.6138 1.53238L44.1184 0L47.0707 1.64451V1.64451ZM47.0707 21.303L44.2491 27.395H47.0707V21.303ZM14.5007 27.2268C20.5363 26.0308 26.4598 18.7803 20.5177 13.0061C22.8347 11.7726 24.2735 9.5489 24.6285 7.34406V5.12031C24.2174 2.82157 22.4422 0.953135 19.0975 0.897069L14.5007 0.803509V5.92382H16.4066C18.4432 5.92382 18.1818 11.1934 15.6406 11.1934H14.5007V15.2299C17.2476 15.753 16.2759 19.5652 14.5007 20.7423V27.2268V27.2268ZM24.6285 16.4069V19.3596C24.5163 18.3878 24.5163 17.3972 24.6285 16.4069ZM6.54021 0.635309L2.82157 7.84832L4.48466 7.71761L0 27.395H12.8376C13.3979 27.395 13.94 27.3389 14.5007 27.2268V20.7423C14.1828 20.9666 13.8279 21.0973 13.4729 21.0973H8.85718L10.3896 15.1738H13.8464C14.0896 15.1738 14.3135 15.1924 14.5007 15.2299V11.1934H11.2866L12.5758 5.92382H14.5007V0.803509L6.54021 0.635309V0.635309Z" fill="#003399"/>
</svg>
