<svg width="76" height="28" viewBox="0 0 76 28" fill="none" xmlns="http://www.w3.org/2000/svg">
<path fill-rule="evenodd" clip-rule="evenodd" d="M26.1367 0.000976563C27.023 0.601421 27.9245 1.51194 27.9245 2.39187V17.8966C27.9245 18.7651 27.0969 19.9938 26.3432 20.4835C29.0017 20.4835 31.6603 20.4835 34.3191 20.4835C39.4795 20.2727 42.6097 18.4289 42.9838 14.5633C43.2463 11.852 41.7986 9.74316 38.2422 8.5542C40.0166 7.88609 40.9705 6.43112 41.0577 4.4242C41.2073 0.972162 37.1477 0.000976562 34.5942 0.000976562H26.1367V0.000976563ZM31.0873 8.30298V1.83835H33.535C36.312 1.83835 37.62 3.18675 37.6195 5.21909C37.6192 7.25142 35.7416 8.30298 33.3982 8.30298H31.0873V8.30298ZM33.6966 18.51H31.0873V10.1401H34.044C38.4487 10.1401 39.7811 12.7612 39.5448 14.9035C39.3087 17.046 37.4482 18.51 33.6966 18.51ZM50.0069 0.000976563H45.6727C46.6365 1.06238 47.057 1.61979 47.057 3.26479V17.3947C47.057 19.0223 46.3279 20.021 45.2824 20.7277H51.0493C50.1929 20.2105 49.2713 19.195 49.2713 17.3571V4.87453C52.1845 8.72609 55.0979 12.5774 58.0114 16.4287C59.6632 18.5673 61.5782 20.3801 63.8113 21.8V3.19038C63.8113 1.32683 64.5705 0.615939 65.5865 0.000976563H59.9637C60.983 0.749199 61.5232 1.59438 61.5232 3.11624V15.5786L50.0069 0.000976563V0.000976563ZM68.7777 20.7277C69.9442 19.9616 70.5374 19.063 70.5374 17.8963V3.09627C70.5374 1.34627 70.027 0.950643 69.0263 0.000976563H75.6824C74.5336 0.640828 73.7275 1.94775 73.7275 3.09627V17.8556C73.7275 18.9881 74.4047 20.0254 75.3232 20.7277H68.7777V20.7277Z" fill="#007697"/>
<path fill-rule="evenodd" clip-rule="evenodd" d="M0 0.00170898H6.42529C6.08969 0.571561 5.83557 1.85282 6.48528 4.73086C7.06268 7.28897 8.7328 9.95752 10.475 12.0669L8.28586 13.8456L0 3.54267V0.00170898V0.00170898ZM9.38303 0.00170898H20.6942V2.71434C19.8195 2.20826 18.2238 1.7193 15.8811 2.64667C12.1011 4.14312 11.7772 8.52512 11.7772 8.52512C9.68614 6.02534 8.31075 1.92697 9.38303 0.00170898V0.00170898ZM20.6942 6.31234V14.3859C18.1239 15.3512 14.5189 12.841 13.6132 9.86108C12.3002 5.54156 15.3949 3.98263 17.6089 4.41015C19.2636 4.72982 20.2242 5.70567 20.6942 6.31234V6.31234ZM20.6942 15.7113V20.4819H13.7617L15.1515 19.3528C14.2448 19.4622 12.4631 19.0402 11.5957 17.9614L9.15537 14.927L11.3864 13.1145C12.7573 14.6099 14.063 15.6843 14.801 16.0066C16.3818 16.6967 18.1622 17.0299 20.6942 15.7113V15.7113ZM9.89048 20.4819H2.31746L7.03596 16.6485C7.42212 17.1286 7.79491 17.5927 8.14911 18.0332C8.84387 18.8973 9.42756 19.7508 9.89048 20.4819ZM0.11658 20.4819H0V7.89978C1.80215 10.1406 4.10416 13.003 6.16645 15.5674L0.11658 20.4819V20.4819Z" fill="#EC6722"/>
<path fill-rule="evenodd" clip-rule="evenodd" d="M71.6069 26.3912L71.9957 26.3344C72.0185 26.4817 72.0759 26.595 72.1788 26.6852C72.2818 26.7648 72.4193 26.8099 72.6022 26.8099C72.7738 26.8099 72.911 26.7648 73.0025 26.6966C73.0826 26.6289 73.1285 26.5382 73.1285 26.4363C73.1285 26.357 73.0942 26.289 73.014 26.2325C72.9569 26.1986 72.8196 26.1532 72.6137 26.1081C72.3276 26.0287 72.1217 25.972 72.0185 25.9154C71.9043 25.8589 71.8126 25.791 71.7555 25.7003C71.6983 25.6098 71.6756 25.5079 71.6756 25.3949C71.6756 25.2927 71.6983 25.1911 71.7442 25.1115C71.7898 25.021 71.8584 24.9531 71.9386 24.8966C71.9957 24.8512 72.0874 24.8058 72.1903 24.7833C72.2933 24.7493 72.4078 24.7267 72.522 24.7267C72.7051 24.7267 72.8652 24.7605 73.0025 24.8058C73.1398 24.8626 73.243 24.9305 73.3116 25.021C73.3687 25.1115 73.4143 25.225 73.4486 25.372L73.0598 25.4286C73.0368 25.3041 72.9912 25.2136 72.911 25.1457C72.8309 25.0889 72.7051 25.055 72.5563 25.055C72.3735 25.055 72.2474 25.0775 72.1673 25.1343C72.0874 25.2022 72.0531 25.2702 72.0531 25.3495C72.0531 25.3949 72.0759 25.44 72.0989 25.4851C72.133 25.5193 72.1788 25.5533 72.2475 25.5872C72.2933 25.5986 72.4078 25.6323 72.6022 25.6891C72.8767 25.757 73.0711 25.8136 73.1743 25.8703C73.2888 25.9154 73.38 25.9834 73.4374 26.0741C73.4947 26.1532 73.5288 26.2665 73.5288 26.4023C73.5288 26.5268 73.4947 26.6515 73.4143 26.7648C73.3459 26.8778 73.2314 26.9686 73.0826 27.0365C72.9454 27.0933 72.7853 27.127 72.6022 27.127C72.2933 27.127 72.0646 27.059 71.9158 26.9346C71.7555 26.8099 71.6525 26.6289 71.6069 26.3912V26.3912ZM74.879 25.7456C75.1421 25.7117 75.3364 25.6663 75.4737 25.6212C75.4737 25.5644 75.4737 25.5307 75.4737 25.5193C75.4737 25.3609 75.4397 25.2473 75.3592 25.1797C75.2678 25.1003 75.1193 25.055 74.9133 25.055C74.9018 25.055 74.8903 25.055 74.879 25.055C74.7187 25.055 74.5927 25.0889 74.5128 25.1457C74.4213 25.2136 74.3525 25.3267 74.3181 25.4851L73.9294 25.44C73.9637 25.2702 74.0208 25.1457 74.1007 25.0438C74.1811 24.9417 74.2953 24.8626 74.4554 24.8172C74.5814 24.7719 74.7187 24.7379 74.879 24.7379C74.9133 24.7267 74.9477 24.7267 74.9705 24.7267C75.1764 24.7267 75.3364 24.7605 75.4509 24.8058C75.5767 24.8512 75.6684 24.908 75.7255 24.9756C75.7829 25.0438 75.8284 25.1343 75.8512 25.2362C75.8628 25.3041 75.8743 25.4286 75.8743 25.5986V26.1081C75.8743 26.4703 75.8743 26.708 75.8971 26.7987C75.9083 26.8892 75.9429 26.9911 76 27.0704H75.5882C75.5424 26.9911 75.5196 26.9006 75.508 26.7873C75.3592 26.912 75.222 27.0025 75.0849 27.0479C75.016 27.0704 74.9477 27.0933 74.879 27.1044C74.8101 27.1156 74.7302 27.127 74.6501 27.127C74.3983 27.127 74.2039 27.059 74.0666 26.9457C73.9294 26.8213 73.8607 26.6626 73.8607 26.4703C73.8607 26.357 73.895 26.2551 73.9406 26.1646C73.998 26.0741 74.0551 25.9948 74.1465 25.938C74.2267 25.8815 74.3181 25.8361 74.4213 25.8136C74.5013 25.791 74.6157 25.7682 74.7758 25.757C74.8101 25.7456 74.8444 25.7456 74.879 25.7456V25.7456ZM74.879 26.8099C74.9817 26.7987 75.0734 26.7648 75.1533 26.7194C75.2678 26.6626 75.3592 26.5722 75.4166 26.4589C75.4509 26.3684 75.4737 26.2325 75.4737 26.0627V25.9269C75.3364 25.9834 75.1421 26.0287 74.879 26.0627C74.8675 26.0627 74.8444 26.0741 74.8329 26.0741C74.6728 26.0967 74.5586 26.1192 74.4897 26.1532C74.4214 26.176 74.3755 26.2214 74.3412 26.2779C74.2953 26.3344 74.2838 26.3912 74.2838 26.4589C74.2838 26.561 74.3181 26.6515 74.3983 26.7194C74.4785 26.7873 74.5927 26.8213 74.753 26.8213C74.7989 26.8213 74.8329 26.8213 74.879 26.8099V26.8099ZM0.125 27.0704V23.9114H0.765538L1.52056 26.1532C1.58946 26.357 1.64657 26.5156 1.66936 26.6175C1.71521 26.5042 1.77232 26.3344 1.84096 26.1081L2.60751 23.9114H3.17967V27.0704H2.76784V24.4322L1.84096 27.0704H1.46345L0.53683 24.3871V27.0704H0.125V27.0704ZM6.27993 27.0704V23.9114H6.68049V27.0704H6.27993ZM4.74709 25.7117H5.39915C5.3761 25.5193 5.33052 25.372 5.25035 25.2702C5.1246 25.1229 4.96453 25.055 4.76988 25.055C4.75835 25.055 4.75835 25.055 4.74709 25.055C4.57523 25.055 4.42669 25.1115 4.3122 25.225C4.18645 25.3495 4.11782 25.5079 4.10629 25.7117H4.74709V25.7117ZM4.74709 26.8099C4.75835 26.8099 4.76988 26.8099 4.78141 26.8099C4.93021 26.8099 5.04443 26.7648 5.14739 26.6966C5.25035 26.6175 5.33051 26.5042 5.39915 26.3344L5.79946 26.3798C5.73082 26.6175 5.6166 26.7987 5.44474 26.9346C5.27314 27.059 5.04443 27.127 4.78141 27.127C4.76988 27.127 4.75835 27.127 4.74709 27.127C4.42669 27.1156 4.1634 27.0137 3.98028 26.8099C3.77436 26.6061 3.68293 26.323 3.68293 25.9494C3.68293 25.5644 3.77436 25.2587 3.98028 25.055C4.17493 24.8398 4.43822 24.7379 4.74709 24.7267C4.75835 24.7267 4.75835 24.7267 4.75835 24.7267C5.06749 24.7267 5.31899 24.8398 5.51364 25.0438C5.71955 25.2473 5.81098 25.5419 5.81098 25.9269C5.81098 25.9494 5.81098 25.9834 5.81098 26.0287H4.74709H4.0835C4.09476 26.2779 4.17493 26.4703 4.30068 26.6061C4.42669 26.7308 4.57523 26.7987 4.74709 26.8099V26.8099ZM9.74669 27.9537L9.70084 27.5913C9.79227 27.6139 9.86117 27.6253 9.92981 27.6253C10.0097 27.6253 10.0784 27.6139 10.1355 27.5799C10.1926 27.5571 10.2272 27.512 10.2615 27.4554C10.2958 27.4215 10.3301 27.3307 10.3872 27.1723C10.3872 27.1495 10.3988 27.1156 10.4215 27.0819L9.54077 24.7833H9.96387L10.4446 26.1081C10.513 26.2779 10.5704 26.4589 10.6162 26.6401C10.6618 26.4589 10.7076 26.289 10.7763 26.1192L11.2683 24.7833H11.6573L10.7763 27.1156C10.6848 27.3647 10.6162 27.5345 10.5588 27.6364C10.4902 27.7611 10.4103 27.8516 10.3186 27.9081C10.2272 27.9763 10.1242 27.9989 9.99819 27.9989C9.91829 27.9989 9.83812 27.9874 9.74669 27.9537V27.9537ZM8.16774 25.7456C8.43077 25.7117 8.62542 25.6663 8.7627 25.6212C8.7627 25.5644 8.7627 25.5307 8.7627 25.5193C8.7627 25.3609 8.72838 25.2473 8.64821 25.1797C8.54525 25.1003 8.39645 25.055 8.20206 25.055C8.19054 25.055 8.17927 25.055 8.16774 25.055C7.99615 25.055 7.88166 25.0889 7.79023 25.1457C7.71007 25.2136 7.64143 25.3267 7.59584 25.4851L7.21833 25.44C7.25265 25.2702 7.30976 25.1457 7.38993 25.0438C7.46983 24.9417 7.58432 24.8626 7.73286 24.8172C7.85887 24.7719 8.00767 24.7379 8.16774 24.7379C8.19054 24.7267 8.22485 24.7267 8.25944 24.7267C8.45382 24.7267 8.61389 24.7605 8.7399 24.8058C8.86565 24.8512 8.95709 24.908 9.01446 24.9756C9.07157 25.0438 9.11742 25.1343 9.14021 25.2362C9.15147 25.3041 9.15147 25.4286 9.15147 25.5986V26.1081C9.15147 26.4703 9.16326 26.708 9.18606 26.7987C9.19758 26.8892 9.2319 26.9911 9.27749 27.0704H8.86566C8.83134 26.9911 8.80854 26.9006 8.79702 26.7873C8.64821 26.912 8.51094 27.0025 8.37366 27.0479C8.30502 27.0704 8.23638 27.0933 8.16774 27.1044C8.08784 27.1156 8.01894 27.127 7.93904 27.127C7.68728 27.127 7.49263 27.059 7.35535 26.9457C7.21833 26.8213 7.14943 26.6626 7.14943 26.4703C7.14943 26.357 7.17222 26.2551 7.2296 26.1646C7.27544 26.0741 7.34408 25.9948 7.42425 25.938C7.51568 25.8815 7.60737 25.8361 7.71007 25.8136C7.79023 25.791 7.90446 25.7682 8.06479 25.757C8.09911 25.7456 8.13342 25.7456 8.16774 25.7456V25.7456ZM8.16774 26.8099C8.25944 26.7987 8.35087 26.7648 8.4423 26.7194C8.55678 26.6626 8.63695 26.5722 8.69406 26.4589C8.7399 26.3684 8.7627 26.2325 8.7627 26.0627V25.9269C8.62542 25.9834 8.43077 26.0287 8.16774 26.0627C8.14495 26.0627 8.13342 26.0741 8.12216 26.0741C7.96183 26.0967 7.84734 26.1192 7.77897 26.1532C7.71007 26.176 7.65296 26.2214 7.61864 26.2779C7.58432 26.3344 7.57279 26.3912 7.57279 26.4589C7.57279 26.561 7.60737 26.6515 7.68727 26.7194C7.76744 26.7873 7.88166 26.8213 8.03047 26.8213C8.07631 26.8213 8.12216 26.8213 8.16774 26.8099V26.8099ZM19.2311 27.0704V23.9114H19.6657L21.3474 26.3912V23.9114H21.7479V27.0704H21.3133L19.6429 24.5906V27.0704H19.2311V27.0704ZM16.9542 27.0704V24.7833H17.3548V27.0704H16.9542ZM16.9542 24.3643V23.9114H17.3548V24.3643H16.9542ZM14.4717 27.0704V24.7833H14.8262V25.1115C14.9978 24.8626 15.2495 24.7267 15.5699 24.7267C15.7072 24.7267 15.833 24.7605 15.9475 24.8058C16.0619 24.8512 16.1534 24.9191 16.2105 24.9984C16.2679 25.0775 16.3137 25.1797 16.3365 25.2927C16.348 25.3609 16.3593 25.4851 16.3593 25.6663V27.0704H15.959V25.6777C15.959 25.5193 15.9475 25.406 15.9131 25.3267C15.8903 25.2473 15.833 25.1797 15.7531 25.1343C15.6729 25.0889 15.593 25.0664 15.4783 25.0664C15.3182 25.0664 15.1696 25.1229 15.0552 25.225C14.9291 25.3267 14.872 25.5307 14.872 25.825V27.0704H14.4717V27.0704ZM12.8815 25.7456C13.1446 25.7117 13.3389 25.6663 13.4762 25.6212C13.4762 25.5644 13.4762 25.5307 13.4762 25.5193C13.4762 25.3609 13.4419 25.2473 13.3617 25.1797C13.259 25.1003 13.1102 25.055 12.9158 25.055C12.9043 25.055 12.8928 25.055 12.8815 25.055C12.7097 25.055 12.5839 25.0889 12.5038 25.1457C12.4238 25.2136 12.3552 25.3267 12.3094 25.4851L11.9319 25.44C11.9662 25.2702 12.0233 25.1457 12.1034 25.0438C12.1836 24.9417 12.2978 24.8626 12.4466 24.8172C12.5727 24.7719 12.7212 24.7379 12.8815 24.7379C12.9043 24.7267 12.9386 24.7267 12.973 24.7267C13.1673 24.7267 13.3277 24.7605 13.4534 24.8058C13.5792 24.8512 13.6709 24.908 13.728 24.9756C13.7854 25.0438 13.8197 25.1343 13.8537 25.2362C13.8653 25.3041 13.8653 25.4286 13.8653 25.5986V26.1081C13.8653 26.4703 13.8768 26.708 13.888 26.7987C13.9111 26.8892 13.9452 26.9911 13.9913 27.0704H13.5792C13.5449 26.9911 13.5105 26.9006 13.4993 26.7873C13.3617 26.912 13.2245 27.0025 13.0874 27.0479C13.0185 27.0704 12.9502 27.0933 12.8815 27.1044C12.8014 27.1156 12.7327 27.127 12.6526 27.127C12.4008 27.127 12.2064 27.059 12.0691 26.9457C11.9319 26.8213 11.8632 26.6626 11.8632 26.4703C11.8632 26.357 11.886 26.2551 11.9431 26.1646C11.989 26.0741 12.0576 25.9948 12.1378 25.938C12.2292 25.8815 12.3206 25.8361 12.4238 25.8136C12.5038 25.791 12.6182 25.7682 12.767 25.757C12.8126 25.7456 12.8469 25.7456 12.8815 25.7456V25.7456ZM12.8815 26.8099C12.973 26.7987 13.0646 26.7648 13.1446 26.7194C13.2703 26.6626 13.3505 26.5722 13.4076 26.4589C13.4534 26.3684 13.4762 26.2325 13.4762 26.0627V25.9269C13.3389 25.9834 13.133 26.0287 12.8815 26.0627C12.8585 26.0627 12.8469 26.0741 12.8357 26.0741C12.6753 26.0967 12.5611 26.1192 12.4922 26.1532C12.4238 26.176 12.3665 26.2214 12.3322 26.2779C12.2978 26.3344 12.275 26.3912 12.275 26.4589C12.275 26.561 12.3206 26.6515 12.4008 26.7194C12.481 26.7873 12.5954 26.8213 12.7442 26.8213C12.7898 26.8213 12.8357 26.8213 12.8815 26.8099ZM23.3497 25.7117H24.0017C23.9789 25.5193 23.9331 25.372 23.8529 25.2702C23.7272 25.1229 23.5671 25.055 23.3612 25.055C23.3612 25.055 23.3612 25.055 23.3497 25.055C23.1781 25.055 23.0293 25.1115 22.9148 25.225C22.789 25.3495 22.7204 25.5079 22.7089 25.7117H23.3497ZM23.3497 26.8099C23.3612 26.8099 23.3727 26.8099 23.384 26.8099C23.5328 26.8099 23.647 26.7648 23.7502 26.6966C23.8529 26.6175 23.9331 26.5042 23.9902 26.3344L24.4023 26.3798C24.3334 26.6175 24.2192 26.7987 24.0476 26.9346C23.876 27.059 23.647 27.127 23.384 27.127C23.3727 27.127 23.3612 27.127 23.3497 27.127C23.0293 27.1156 22.766 27.0137 22.5716 26.8099C22.3772 26.6061 22.2742 26.323 22.2742 25.9494C22.2742 25.5644 22.3772 25.2587 22.5831 25.055C22.7775 24.8398 23.0408 24.7379 23.3497 24.7267H23.3612C23.6698 24.7267 23.9218 24.8398 24.1162 25.0438C24.3106 25.2473 24.4136 25.5419 24.4136 25.9269C24.4136 25.9494 24.4136 25.9834 24.4136 26.0287H23.3497H22.6861C22.6976 26.2779 22.766 26.4703 22.9035 26.6061C23.018 26.7308 23.1781 26.7987 23.3497 26.8099V26.8099ZM25.7751 26.7534C25.9582 26.7534 26.1067 26.6852 26.2327 26.5493C26.3588 26.4137 26.4159 26.1986 26.4159 25.9043C26.4159 25.6212 26.3472 25.406 26.2212 25.2702C26.1067 25.1229 25.9582 25.055 25.7751 25.055C25.5919 25.055 25.4547 25.1229 25.3289 25.2587C25.2032 25.406 25.1461 25.6098 25.1461 25.8929C25.1461 26.1872 25.2032 26.4023 25.3289 26.5493C25.4434 26.6852 25.5919 26.7534 25.7751 26.7534V26.7534ZM25.7751 27.6818C25.9351 27.6704 26.0611 27.6364 26.1526 27.5685C26.2555 27.5006 26.3129 27.3989 26.3588 27.2742C26.37 27.1949 26.3815 27.0251 26.3815 26.7762C26.2212 26.9686 26.0153 27.059 25.7751 27.0704C25.7635 27.0704 25.7523 27.0704 25.7407 27.0704C25.4203 27.0704 25.1801 26.9572 24.9972 26.7308C24.8257 26.5042 24.7455 26.2325 24.7455 25.9154C24.7455 25.7003 24.7798 25.4965 24.8597 25.3155C24.9399 25.1229 25.0544 24.987 25.2032 24.8852C25.3632 24.7833 25.5348 24.7267 25.7407 24.7267C25.7523 24.7267 25.7635 24.7267 25.7751 24.7267C26.0384 24.7379 26.2443 24.8512 26.4159 25.055V24.7833H26.7818V26.7648C26.7818 27.1156 26.7475 27.3761 26.6674 27.5234C26.5987 27.6704 26.4845 27.7837 26.3242 27.8742C26.1756 27.9537 25.9925 27.9989 25.7751 27.9989C25.7635 27.9989 25.7523 27.9989 25.7292 27.9989C25.4547 27.9989 25.2372 27.9423 25.0656 27.8176C24.894 27.6929 24.8141 27.512 24.8141 27.2631L25.2032 27.3196C25.2144 27.4326 25.2603 27.5234 25.3289 27.5685C25.4319 27.6478 25.5691 27.6818 25.7292 27.6818C25.7523 27.6818 25.7635 27.6818 25.7751 27.6818V27.6818ZM34.8476 27.0704V23.9114H35.271V25.4851L36.8497 23.9114H37.4218L36.0834 25.1911L37.479 27.0704H36.9299L35.7858 25.4739L35.271 25.9834V27.0704H34.8476V27.0704ZM32.4338 27.0704V26.6289H32.8799V27.0704C32.8799 27.2403 32.8569 27.3647 32.7882 27.4669C32.7311 27.5685 32.6397 27.6478 32.5137 27.6929L32.4107 27.5345C32.4909 27.5006 32.548 27.444 32.5938 27.3761C32.6282 27.3082 32.651 27.2063 32.651 27.0704H32.4338V27.0704ZM31.3468 27.0704V24.7833H31.7359V27.0704H31.3468ZM31.3468 24.3643V23.9114H31.7359V24.3643H31.3468ZM29.848 27.0704V24.7833H30.2025V25.1343C30.2942 24.9645 30.3741 24.8626 30.4545 24.8058C30.5232 24.7605 30.6146 24.7267 30.706 24.7267C30.832 24.7267 30.9693 24.7719 31.1066 24.8512L30.9693 25.2136C30.8776 25.1569 30.7747 25.1343 30.6832 25.1343C30.6033 25.1343 30.5232 25.1569 30.4545 25.2136C30.3856 25.2587 30.34 25.3267 30.3057 25.4174C30.2599 25.5644 30.2371 25.7117 30.2371 25.8703V27.0704H29.848V27.0704ZM28.3149 25.7117H28.9555C28.9442 25.5193 28.8984 25.372 28.8182 25.2702C28.6925 25.1229 28.5209 25.055 28.3265 25.055H28.3149C28.1434 25.055 27.9945 25.1115 27.8688 25.225C27.7543 25.3495 27.6857 25.5079 27.6741 25.7117H28.3149ZM28.3149 26.8099C28.3265 26.8099 28.338 26.8099 28.3493 26.8099C28.4865 26.8099 28.6123 26.7648 28.7155 26.6966C28.8182 26.6175 28.8984 26.5042 28.9555 26.3344L29.3561 26.3798C29.2989 26.6175 29.1845 26.7987 29.0016 26.9346C28.83 27.059 28.6123 27.127 28.3493 27.127C28.338 27.127 28.3265 27.127 28.3149 27.127C27.9945 27.1156 27.7315 27.0137 27.5369 26.8099C27.3425 26.6061 27.2395 26.323 27.2395 25.9494C27.2395 25.5644 27.3425 25.2587 27.5484 25.055C27.7428 24.8398 27.9945 24.7379 28.3149 24.7267C28.3149 24.7267 28.3149 24.7267 28.3265 24.7267C28.6353 24.7267 28.8871 24.8398 29.0815 25.0438C29.2759 25.2473 29.3791 25.5419 29.3791 25.9269C29.3791 25.9494 29.3791 25.9834 29.3676 26.0287H28.3149H27.6514C27.6629 26.2779 27.7315 26.4703 27.8688 26.6061C27.9833 26.7308 28.1321 26.7987 28.3149 26.8099V26.8099ZM38.7145 25.7117H39.3668C39.344 25.5193 39.2981 25.372 39.218 25.2702C39.0922 25.1229 38.9319 25.055 38.726 25.055C38.726 25.055 38.726 25.055 38.7145 25.055C38.5429 25.055 38.3943 25.1115 38.2798 25.225C38.1541 25.3495 38.0854 25.5079 38.0739 25.7117H38.7145V25.7117ZM38.7145 26.8099C38.726 26.8099 38.7375 26.8099 38.749 26.8099C38.886 26.8099 39.0121 26.7648 39.115 26.6966C39.218 26.6175 39.2981 26.5042 39.3552 26.3344L39.7671 26.3798C39.6984 26.6175 39.584 26.7987 39.4124 26.9346C39.2295 27.059 39.0121 27.127 38.749 27.127C38.7375 27.127 38.726 27.127 38.7145 27.127C38.3943 27.1156 38.131 27.0137 37.9482 26.8099C37.7535 26.6061 37.6506 26.323 37.6506 25.9494C37.6506 25.5644 37.7535 25.2587 37.9594 25.055C38.1425 24.8398 38.4058 24.7379 38.7145 24.7267H38.726C39.0348 24.7267 39.2866 24.8398 39.4813 25.0438C39.6757 25.2473 39.7786 25.5419 39.7786 25.9269C39.7786 25.9494 39.7786 25.9834 39.7786 26.0287H38.7145H38.0626C38.0626 26.2779 38.131 26.4703 38.2686 26.6061C38.383 26.7308 38.5316 26.7987 38.7145 26.8099V26.8099ZM41.2315 24.7379C41.2546 24.7267 41.2659 24.7267 41.2774 24.7267C41.4262 24.7267 41.5519 24.7605 41.6892 24.8172C41.815 24.874 41.9179 24.9531 41.9981 25.055C42.0783 25.1569 42.1469 25.2813 42.1925 25.4286C42.2383 25.5758 42.2614 25.7345 42.2614 25.8929C42.2614 26.289 42.1584 26.595 41.9638 26.7987C41.7694 27.0137 41.5289 27.127 41.2546 27.127C41.2546 27.127 41.2431 27.127 41.2315 27.127C40.9798 27.1156 40.7739 27.0025 40.6138 26.7873V27.0704H40.2591V23.9114H40.6481V25.0438C40.7969 24.8512 41.0026 24.7379 41.2315 24.7379V24.7379ZM41.2315 26.8099C41.4031 26.7987 41.5519 26.7308 41.6664 26.5836C41.7922 26.4363 41.8608 26.2214 41.8608 25.9269C41.8608 25.6323 41.8037 25.406 41.6777 25.2702C41.5632 25.1229 41.4147 25.055 41.2431 25.055C41.2431 25.055 41.2431 25.055 41.2315 25.055C41.0715 25.055 40.9227 25.1229 40.7969 25.2702C40.6709 25.4174 40.6138 25.6323 40.6138 25.9154C40.6138 26.1872 40.6481 26.3798 40.7283 26.5042C40.854 26.708 41.0141 26.8099 41.2315 26.8099ZM45.2244 27.0704V24.7833H45.5675V25.1115C45.7391 24.8626 45.9909 24.7267 46.3113 24.7267C46.4486 24.7267 46.5746 24.7605 46.6888 24.8058C46.8146 24.8512 46.8947 24.9191 46.9521 24.9984C47.0092 25.0775 47.0551 25.1797 47.0779 25.2927C47.0894 25.3609 47.1006 25.4851 47.1006 25.6663V27.0704H46.7116V25.6777C46.7116 25.5193 46.6888 25.406 46.6658 25.3267C46.6317 25.2473 46.5746 25.1797 46.4942 25.1343C46.4258 25.0889 46.3341 25.0664 46.2199 25.0664C46.0595 25.0664 45.9107 25.1229 45.7963 25.225C45.6708 25.3267 45.6134 25.5307 45.6134 25.825V27.0704H45.2244V27.0704ZM43.6226 25.7456C43.8859 25.7117 44.0803 25.6663 44.2176 25.6212C44.2176 25.5644 44.2176 25.5307 44.2176 25.5193C44.2176 25.3609 44.1833 25.2473 44.1033 25.1797C44.0001 25.1003 43.8516 25.055 43.6569 25.055C43.6454 25.055 43.6341 25.055 43.6226 25.055C43.451 25.055 43.3365 25.0889 43.2451 25.1457C43.1649 25.2136 43.0963 25.3267 43.0507 25.4851L42.6732 25.44C42.7075 25.2702 42.7646 25.1457 42.8448 25.0438C42.9247 24.9417 43.0392 24.8626 43.188 24.8172C43.3137 24.7719 43.4626 24.7379 43.6226 24.7379C43.6454 24.7267 43.68 24.7267 43.7143 24.7267C43.9087 24.7267 44.069 24.7605 44.1948 24.8058C44.3205 24.8512 44.4122 24.908 44.4693 24.9756C44.5264 25.0438 44.5723 25.1343 44.5953 25.2362C44.6066 25.3041 44.6066 25.4286 44.6066 25.5986V26.1081C44.6066 26.4703 44.6181 26.708 44.6409 26.7987C44.6525 26.8892 44.6868 26.9911 44.7324 27.0704H44.3205C44.2862 26.9911 44.2634 26.9006 44.2519 26.7873C44.1034 26.912 43.9658 27.0025 43.8285 27.0479C43.7602 27.0704 43.6913 27.0933 43.6226 27.1044C43.5427 27.1156 43.4738 27.127 43.3939 27.127C43.1422 27.127 42.9478 27.059 42.8105 26.9457C42.6732 26.8213 42.6043 26.6626 42.6043 26.4703C42.6043 26.357 42.6274 26.2551 42.6847 26.1646C42.7303 26.0741 42.799 25.9948 42.8791 25.938C42.9706 25.8815 43.0622 25.8361 43.1649 25.8136C43.2451 25.791 43.3596 25.7682 43.5197 25.757C43.554 25.7456 43.5883 25.7456 43.6226 25.7456V25.7456ZM43.6226 26.8099C43.7143 26.7987 43.8057 26.7648 43.8859 26.7194C44.0117 26.6626 44.0918 26.5722 44.1489 26.4589C44.1948 26.3684 44.2176 26.2325 44.2176 26.0627V25.9269C44.0803 25.9834 43.8744 26.0287 43.6226 26.0627C43.5998 26.0627 43.5883 26.0741 43.577 26.0741C43.4167 26.0967 43.3022 26.1192 43.2338 26.1532C43.1649 26.176 43.1078 26.2214 43.0735 26.2779C43.0392 26.3344 43.0279 26.3912 43.0279 26.4589C43.0279 26.561 43.0622 26.6515 43.1422 26.7194C43.2223 26.7873 43.3365 26.8213 43.4853 26.8213C43.5312 26.8213 43.577 26.8213 43.6226 26.8099V26.8099ZM48.5879 26.7534C48.771 26.7534 48.9198 26.6852 49.0341 26.5493C49.1601 26.4137 49.2172 26.1986 49.2172 25.9043C49.2172 25.6212 49.1601 25.406 49.0341 25.2702C48.9083 25.1229 48.7595 25.055 48.5879 25.055C48.5879 25.055 48.5879 25.055 48.5766 25.055C48.405 25.055 48.2562 25.1229 48.1302 25.2587C48.016 25.406 47.9474 25.6098 47.9474 25.8929C47.9474 26.1872 48.016 26.4023 48.1302 26.5493C48.2562 26.6852 48.405 26.7534 48.5879 26.7534ZM48.5879 27.6818C48.7482 27.6704 48.874 27.6364 48.9654 27.5685C49.0571 27.5006 49.1257 27.3989 49.1601 27.2742C49.1829 27.1949 49.1944 27.0251 49.1944 26.7762C49.0228 26.9686 48.8281 27.059 48.5879 27.0704C48.5766 27.0704 48.5651 27.0704 48.5536 27.0704C48.2332 27.0704 47.9817 26.9572 47.8101 26.7308C47.6385 26.5042 47.5468 26.2325 47.5468 25.9154C47.5468 25.7003 47.5926 25.4965 47.6728 25.3155C47.7527 25.1229 47.8672 24.987 48.016 24.8852C48.1648 24.7833 48.3479 24.7267 48.5536 24.7267C48.5651 24.7267 48.5766 24.7267 48.5879 24.7267C48.8397 24.7379 49.0571 24.8512 49.2287 25.055V24.7833H49.5949V26.7648C49.5949 27.1156 49.5491 27.3761 49.4805 27.5234C49.4003 27.6704 49.2858 27.7837 49.1257 27.8742C48.9769 27.9537 48.8053 27.9989 48.5879 27.9989C48.5766 27.9989 48.5536 27.9989 48.5423 27.9989C48.2675 27.9989 48.0388 27.9423 47.8787 27.8176C47.7071 27.6929 47.627 27.512 47.627 27.2631L48.0045 27.3196C48.0275 27.4326 48.0731 27.5234 48.1418 27.5685C48.2447 27.6478 48.3707 27.6818 48.5423 27.6818C48.5536 27.6818 48.5766 27.6818 48.5879 27.6818V27.6818ZM51.0707 26.7534C51.2535 26.7534 51.4023 26.6852 51.5168 26.5493C51.6426 26.4137 51.6999 26.1986 51.6999 25.9043C51.6999 25.6212 51.6426 25.406 51.5168 25.2702C51.3911 25.1229 51.2423 25.055 51.0707 25.055H51.0591C50.8875 25.055 50.7387 25.1229 50.613 25.2587C50.4985 25.406 50.4299 25.6098 50.4299 25.8929C50.4299 26.1872 50.4985 26.4023 50.613 26.5493C50.7387 26.6852 50.8875 26.7534 51.0707 26.7534ZM51.0707 27.6818C51.2307 27.6704 51.3568 27.6364 51.4482 27.5685C51.5399 27.5006 51.6083 27.3989 51.6426 27.2742C51.6656 27.1949 51.6772 27.0251 51.6772 26.7762C51.5053 26.9686 51.3109 27.059 51.0707 27.0704C51.0591 27.0704 51.0479 27.0704 51.0364 27.0704C50.716 27.0704 50.4645 26.9572 50.2929 26.7308C50.121 26.5042 50.0296 26.2325 50.0296 25.9154C50.0296 25.7003 50.0754 25.4965 50.1553 25.3155C50.2355 25.1229 50.35 24.987 50.4985 24.8852C50.6473 24.7833 50.8304 24.7267 51.0364 24.7267C51.0479 24.7267 51.0591 24.7267 51.0707 24.7267C51.3224 24.7379 51.5399 24.8512 51.7115 25.055V24.7833H52.0659V26.7648C52.0659 27.1156 52.0316 27.3761 51.963 27.5234C51.8831 27.6704 51.7686 27.7837 51.6083 27.8742C51.4594 27.9537 51.2766 27.9989 51.0707 27.9989C51.0591 27.9989 51.0364 27.9989 51.0248 27.9989C50.7503 27.9989 50.5216 27.9423 50.3612 27.8176C50.1896 27.6929 50.0982 27.512 50.1097 27.2631L50.4872 27.3196C50.51 27.4326 50.5556 27.5234 50.6245 27.5685C50.716 27.6478 50.8532 27.6818 51.0248 27.6818C51.0364 27.6818 51.0591 27.6818 51.0707 27.6818V27.6818ZM53.5419 25.7456C53.8049 25.7117 54.0109 25.6663 54.1369 25.6212C54.1369 25.5644 54.1369 25.5307 54.1369 25.5193C54.1369 25.3609 54.1023 25.2473 54.0339 25.1797C53.9307 25.1003 53.7819 25.055 53.5875 25.055C53.576 25.055 53.5532 25.055 53.5419 25.055C53.3816 25.055 53.2558 25.0889 53.1757 25.1457C53.0842 25.2136 53.0269 25.3267 52.9813 25.4851L52.5922 25.44C52.6381 25.2702 52.6952 25.1457 52.7638 25.0438C52.844 24.9417 52.9698 24.8626 53.1186 24.8172C53.2443 24.7719 53.3816 24.7379 53.5419 24.7379C53.576 24.7267 53.6103 24.7267 53.6449 24.7267C53.8393 24.7267 53.9996 24.7605 54.1253 24.8058C54.2511 24.8512 54.3313 24.908 54.3999 24.9756C54.457 25.0438 54.4913 25.1343 54.5144 25.2362C54.5256 25.3041 54.5372 25.4286 54.5372 25.5986V26.1081C54.5372 26.4703 54.5487 26.708 54.5602 26.7987C54.583 26.8892 54.6058 26.9911 54.6629 27.0704H54.2511C54.2055 26.9911 54.1827 26.9006 54.1712 26.7873C54.0224 26.912 53.8851 27.0025 53.7478 27.0479C53.6907 27.0704 53.6103 27.0933 53.5419 27.1044C53.4733 27.1156 53.3931 27.127 53.3245 27.127C53.0612 27.127 52.8668 27.059 52.7295 26.9457C52.6038 26.8213 52.5351 26.6626 52.5351 26.4703C52.5351 26.357 52.5579 26.2551 52.6038 26.1646C52.6609 26.0741 52.7295 25.9948 52.8097 25.938C52.8896 25.8815 52.9928 25.8361 53.0958 25.8136C53.1644 25.791 53.2902 25.7682 53.439 25.757C53.4733 25.7456 53.5076 25.7456 53.5419 25.7456V25.7456ZM53.5419 26.8099C53.6449 26.7987 53.7363 26.7648 53.8165 26.7194C53.9307 26.6626 54.0224 26.5722 54.0795 26.4589C54.1138 26.3684 54.1369 26.2325 54.1369 26.0627V25.9269C53.9996 25.9834 53.8049 26.0287 53.5419 26.0627C53.5304 26.0627 53.5189 26.0741 53.4961 26.0741C53.336 26.0967 53.2215 26.1192 53.1529 26.1532C53.0958 26.176 53.0384 26.2214 53.0041 26.2779C52.9698 26.3344 52.947 26.3912 52.947 26.4589C52.947 26.561 52.9928 26.6515 53.0727 26.7194C53.1413 26.7873 53.2674 26.8213 53.4159 26.8213C53.4617 26.8213 53.5076 26.8213 53.5419 26.8099V26.8099ZM57.6262 27.0704V24.7833H57.9809V25.1115C58.1525 24.8626 58.3927 24.7267 58.7131 24.7267C58.8504 24.7267 58.9877 24.7605 59.1021 24.8058C59.2164 24.8512 59.3081 24.9191 59.3652 24.9984C59.4223 25.0775 59.4566 25.1797 59.4797 25.2927C59.5025 25.3609 59.5025 25.4851 59.5025 25.6663V27.0704H59.1137V25.6777C59.1137 25.5193 59.1021 25.406 59.0676 25.3267C59.0335 25.2473 58.9877 25.1797 58.9075 25.1343C58.8276 25.0889 58.7359 25.0664 58.6329 25.0664C58.4614 25.0664 58.3241 25.1229 58.1983 25.225C58.0726 25.3267 58.0152 25.5307 58.0152 25.825V27.0704H57.6262V27.0704ZM56.0244 25.7456C56.2877 25.7117 56.4936 25.6663 56.6194 25.6212C56.6194 25.5644 56.6194 25.5307 56.6194 25.5193C56.6194 25.3609 56.5851 25.2473 56.5164 25.1797C56.4135 25.1003 56.2647 25.055 56.0703 25.055C56.0472 25.055 56.036 25.055 56.0244 25.055C55.8644 25.055 55.7386 25.0889 55.6584 25.1457C55.5667 25.2136 55.5096 25.3267 55.4638 25.4851L55.075 25.44C55.1093 25.2702 55.1664 25.1457 55.2466 25.0438C55.3265 24.9417 55.4525 24.8626 55.6013 24.8172C55.7271 24.7719 55.8644 24.7379 56.0244 24.7379C56.0587 24.7267 56.0931 24.7267 56.1274 24.7267C56.322 24.7267 56.4821 24.7605 56.6079 24.8058C56.7223 24.8512 56.814 24.908 56.8711 24.9756C56.9398 25.0438 56.9741 25.1343 56.9969 25.2362C57.0084 25.3041 57.0199 25.4286 57.0199 25.5986V26.1081C57.0199 26.4703 57.0312 26.708 57.0427 26.7987C57.0543 26.8892 57.0886 26.9911 57.1457 27.0704H56.7339C56.688 26.9911 56.6652 26.9006 56.6537 26.7873C56.5052 26.912 56.3676 27.0025 56.2303 27.0479C56.1617 27.0704 56.0931 27.0933 56.0244 27.1044C55.956 27.1156 55.8756 27.127 55.8072 27.127C55.544 27.127 55.3493 27.059 55.2123 26.9457C55.075 26.8213 55.0061 26.6626 55.0061 26.4703C55.0061 26.357 55.0407 26.2551 55.0863 26.1646C55.1434 26.0741 55.2123 25.9948 55.2922 25.938C55.3724 25.8815 55.4638 25.8361 55.5783 25.8136C55.6469 25.791 55.7614 25.7682 55.9217 25.757C55.9561 25.7456 55.9901 25.7456 56.0244 25.7456V25.7456ZM56.0244 26.8099C56.1274 26.7987 56.2188 26.7648 56.299 26.7194C56.4135 26.6626 56.5052 26.5722 56.5623 26.4589C56.5966 26.3684 56.6194 26.2325 56.6194 26.0627V25.9269C56.4821 25.9834 56.2877 26.0287 56.0244 26.0627C56.0132 26.0627 56.0016 26.0741 55.9788 26.0741C55.8185 26.0967 55.704 26.1192 55.6356 26.1532C55.5667 26.176 55.5209 26.2214 55.4868 26.2779C55.4525 26.3344 55.4295 26.3912 55.4295 26.4589C55.4295 26.561 55.4753 26.6515 55.544 26.7194C55.6241 26.7873 55.7386 26.8213 55.8987 26.8213C55.9445 26.8213 55.9788 26.8213 56.0244 26.8099V26.8099ZM62.5115 23.9114H62.5799C62.8204 23.9114 63.0148 23.9453 63.1633 24.0135C63.3121 24.0698 63.4266 24.1719 63.5068 24.3078C63.5982 24.4322 63.6325 24.5795 63.6325 24.7267C63.6325 24.8512 63.5982 24.987 63.5296 25.1003C63.4494 25.225 63.3349 25.3155 63.1864 25.3949C63.3808 25.4514 63.5296 25.5419 63.6325 25.6777C63.7358 25.8136 63.7929 25.972 63.7929 26.1532C63.7929 26.3004 63.7586 26.4477 63.7012 26.5722C63.6325 26.6966 63.5526 26.7987 63.461 26.8664C63.3695 26.9346 63.255 26.9797 63.1178 27.0251C62.969 27.059 62.7974 27.0704 62.5914 27.0704H62.5115H61.3787V23.9114H62.5115V23.9114ZM62.5115 25.2362C62.6831 25.2362 62.8204 25.225 62.9003 25.2022C63.0033 25.1683 63.0834 25.1229 63.1405 25.0438C63.1979 24.9756 63.2207 24.8852 63.2207 24.7719C63.2207 24.67 63.1979 24.5681 63.1405 24.489C63.095 24.4097 63.0148 24.3643 62.9234 24.3303C62.8432 24.3078 62.7059 24.285 62.5115 24.285C62.4885 24.285 62.4657 24.285 62.4426 24.285H61.8021V25.2362H62.4885C62.5 25.2362 62.5 25.2362 62.5115 25.2362V25.2362ZM62.5115 26.6966H62.5914C62.7287 26.6966 62.8317 26.6966 62.8891 26.6852C62.9805 26.6626 63.0606 26.6401 63.129 26.595C63.1979 26.561 63.2438 26.5042 63.2894 26.4252C63.3349 26.3458 63.358 26.2551 63.358 26.1532C63.358 26.0402 63.3237 25.938 63.2666 25.8475C63.1979 25.757 63.1178 25.7003 63.0033 25.6663C62.9003 25.6323 62.7402 25.6098 62.5459 25.6098H62.5115H61.8021V26.6966H62.5115ZM66.8017 27.0704V24.7833H67.1564V25.1115C67.328 24.8626 67.5682 24.7267 67.8886 24.7267C68.0372 24.7267 68.1632 24.7605 68.2774 24.8058C68.3919 24.8512 68.4836 24.9191 68.5407 24.9984C68.5978 25.0775 68.6437 25.1797 68.6667 25.2927C68.678 25.3609 68.6895 25.4851 68.6895 25.6663V27.0704H68.289V25.6777C68.289 25.5193 68.2774 25.406 68.2431 25.3267C68.2203 25.2473 68.1632 25.1797 68.083 25.1343C68.0031 25.0889 67.9114 25.0664 67.8085 25.0664C67.6484 25.0664 67.4996 25.1229 67.3736 25.225C67.2594 25.3267 67.1907 25.5307 67.1907 25.825V27.0704H66.8017V27.0704ZM65.2 25.7456C65.463 25.7117 65.6692 25.6663 65.7949 25.6212C65.8062 25.5644 65.8062 25.5307 65.8062 25.5193C65.8062 25.3609 65.7606 25.2473 65.692 25.1797C65.589 25.1003 65.4402 25.055 65.2458 25.055C65.2343 25.055 65.2115 25.055 65.2 25.055C65.0399 25.055 64.9139 25.0889 64.834 25.1457C64.7423 25.2136 64.6852 25.3267 64.6393 25.4851L64.2618 25.44C64.2961 25.2702 64.3532 25.1457 64.4334 25.0438C64.5136 24.9417 64.6281 24.8626 64.7766 24.8172C64.9024 24.7719 65.0399 24.7379 65.2 24.7379C65.2343 24.7267 65.2686 24.7267 65.3029 24.7267C65.4976 24.7267 65.6576 24.7605 65.7834 24.8058C65.9094 24.8512 66.0008 24.908 66.0582 24.9756C66.1153 25.0438 66.1496 25.1343 66.1724 25.2362C66.184 25.3041 66.1955 25.4286 66.1955 25.5986V26.1081C66.1955 26.4703 66.2068 26.708 66.2183 26.7987C66.2411 26.8892 66.2754 26.9911 66.3212 27.0704H65.9094C65.8751 26.9911 65.8408 26.9006 65.8292 26.7873C65.692 26.912 65.5432 27.0025 65.4174 27.0479C65.3488 27.0704 65.2801 27.0933 65.2 27.1044C65.1313 27.1156 65.0512 27.127 64.9825 27.127C64.7308 27.127 64.5364 27.059 64.3991 26.9457C64.2618 26.8213 64.1932 26.6626 64.1932 26.4703C64.1932 26.357 64.216 26.2551 64.2618 26.1646C64.3192 26.0741 64.3876 25.9948 64.4677 25.938C64.5479 25.8815 64.6509 25.8361 64.7538 25.8136C64.8225 25.791 64.9482 25.7682 65.097 25.757C65.1313 25.7456 65.1656 25.7456 65.2 25.7456V25.7456ZM65.2 26.8099C65.3029 26.7987 65.3944 26.7648 65.4745 26.7194C65.589 26.6626 65.6804 26.5722 65.7378 26.4589C65.7834 26.3684 65.7949 26.2325 65.7949 26.0627V25.9269C65.6692 25.9834 65.463 26.0287 65.2 26.0627C65.1887 26.0627 65.1772 26.0741 65.1544 26.0741C64.994 26.0967 64.8796 26.1192 64.8225 26.1532C64.7538 26.176 64.6967 26.2214 64.6624 26.2779C64.6281 26.3344 64.605 26.3912 64.605 26.4589C64.605 26.561 64.6509 26.6515 64.7308 26.7194C64.7997 26.7873 64.9254 26.8213 65.0742 26.8213C65.1198 26.8213 65.1656 26.8213 65.2 26.8099V26.8099ZM70.1768 26.7534C70.3484 26.7534 70.5084 26.6852 70.6229 26.5493C70.7487 26.4137 70.806 26.1986 70.806 25.9043C70.806 25.6212 70.7487 25.406 70.6229 25.2702C70.4972 25.1229 70.3484 25.055 70.1768 25.055C70.1652 25.055 70.1652 25.055 70.1652 25.055C69.9936 25.055 69.8448 25.1229 69.7191 25.2587C69.5933 25.406 69.536 25.6098 69.536 25.8929C69.536 26.1872 69.5933 26.4023 69.7191 26.5493C69.8448 26.6852 69.9936 26.7534 70.1768 26.7534V26.7534ZM70.1768 27.6818C70.3368 27.6704 70.4513 27.6364 70.5428 27.5685C70.6457 27.5006 70.7144 27.3989 70.7487 27.2742C70.7717 27.1949 70.7717 27.0251 70.7717 26.7762C70.6114 26.9686 70.417 27.059 70.1768 27.0704C70.1652 27.0704 70.1425 27.0704 70.1309 27.0704C69.8105 27.0704 69.5703 26.9572 69.3987 26.7308C69.2271 26.5042 69.1357 26.2325 69.1357 25.9154C69.1357 25.7003 69.17 25.4965 69.2502 25.3155C69.3301 25.1229 69.4561 24.987 69.6046 24.8852C69.7534 24.7833 69.9365 24.7267 70.1425 24.7267C70.154 24.7267 70.1652 24.7267 70.1768 24.7267C70.4283 24.7379 70.6457 24.8512 70.8176 25.055V24.7833H71.172V26.7648C71.172 27.1156 71.1377 27.3761 71.0691 27.5234C70.9892 27.6704 70.8747 27.7837 70.7144 27.8742C70.5655 27.9537 70.3827 27.9989 70.1768 27.9989C70.154 27.9989 70.1425 27.9989 70.1309 27.9989C69.8564 27.9989 69.6277 27.9423 69.4561 27.8176C69.2845 27.6929 69.2043 27.512 69.2158 27.2631L69.5933 27.3196C69.6161 27.4326 69.6505 27.5234 69.7304 27.5685C69.8221 27.6478 69.9593 27.6818 70.1309 27.6818C70.1425 27.6818 70.154 27.6818 70.1768 27.6818V27.6818Z" fill="#007697"/>
</svg>
