<svg width="76" height="22" viewBox="0 0 76 22" fill="none" xmlns="http://www.w3.org/2000/svg">
<g clip-path="url(#clip0_293_282)">
<path d="M25.2151 6.24243H25.1885V6.24628C25.1961 6.24628 25.2037 6.24628 25.2151 6.24243Z" fill="#168F8C"/>
<path d="M25.3848 5.99878V21.5978H29.0326V9.90582C29.0326 9.03274 28.5694 6.3953 25.3848 5.99878Z" fill="#0CA49D"/>
<path d="M5.98685 18.8841C6.45008 18.8841 6.83006 18.8258 7.1232 18.7058C7.41633 18.5858 7.64794 18.433 7.81441 18.2474C7.98088 18.0583 8.09307 17.8473 8.15821 17.6108C8.21973 17.3743 8.2523 17.1343 8.2523 16.8905C8.2523 16.6104 8.21611 16.363 8.14373 16.1375C8.07135 15.9156 7.94469 15.7264 7.77098 15.5736C7.59366 15.4208 7.36204 15.3008 7.06891 15.2171C6.7794 15.1334 6.41027 15.0934 5.96876 15.0934H3.51513V18.8841H5.98685ZM3.51513 8.97457V12.7325H5.34268C5.72991 12.7325 6.08095 12.7034 6.39217 12.6488C6.7034 12.5942 6.96758 12.496 7.18834 12.3578C7.40547 12.2195 7.57194 12.0267 7.68775 11.783C7.80355 11.5392 7.85784 11.2337 7.85784 10.8626C7.85784 10.4988 7.81441 10.2005 7.72394 9.96043C7.63346 9.72033 7.49594 9.52752 7.30776 9.38201C7.11958 9.23649 6.88435 9.131 6.59483 9.06915C6.30894 9.00731 5.96514 8.97457 5.57068 8.97457H3.51151H3.51513ZM5.5743 6.3335C6.62016 6.3335 7.51042 6.43172 8.24506 6.62452C8.9797 6.82097 9.58045 7.09381 10.0437 7.45031C10.5069 7.80682 10.8471 8.23609 11.057 8.74539C11.2669 9.25468 11.3754 9.82219 11.3754 10.4479C11.3754 10.7899 11.3284 11.1173 11.2307 11.4338C11.133 11.7502 10.981 12.0449 10.7747 12.3214C10.5684 12.5979 10.3006 12.8489 9.97491 13.0781C9.64921 13.3072 9.25836 13.5073 8.80238 13.6747C9.8012 13.9184 10.5395 14.3113 11.0172 14.8533C11.4949 15.3954 11.7337 16.1011 11.7337 16.9633C11.7337 17.6108 11.6107 18.2147 11.361 18.7713C11.1113 19.3279 10.7457 19.8153 10.2644 20.2264C9.78311 20.6411 9.1896 20.9649 8.48391 21.1977C7.77822 21.4305 6.9712 21.547 6.06285 21.547H0.015625V6.3335H5.58515H5.5743Z" fill="#0CA49D"/>
<path d="M22.2827 9.42193C22.1777 9.58927 22.0691 9.71296 21.957 9.79663C21.8411 9.8803 21.6964 9.92032 21.5154 9.92032C21.3562 9.92032 21.1861 9.86939 21.0016 9.76753C20.817 9.66567 20.6107 9.5529 20.3791 9.42921C20.1475 9.30552 19.8833 9.18911 19.5829 9.09089C19.2862 8.98903 18.946 8.9381 18.566 8.9381C17.9074 8.9381 17.4188 9.07998 17.0967 9.36009C16.7746 9.6402 16.6118 10.0222 16.6118 10.5024C16.6118 10.808 16.7095 11.0626 16.9013 11.2663C17.0967 11.47 17.3501 11.641 17.6649 11.7902C17.9798 11.9357 18.3416 12.0703 18.747 12.194C19.1523 12.3177 19.5648 12.4523 19.9883 12.6014C20.4117 12.7506 20.8242 12.9252 21.2295 13.1289C21.6349 13.3326 21.9968 13.5873 22.3116 13.9001C22.6265 14.213 22.8798 14.5949 23.0752 15.0424C23.2706 15.4899 23.3647 16.0319 23.3647 16.6649C23.3647 17.367 23.2453 18.0254 23.0028 18.6366C22.7604 19.2477 22.4093 19.7825 21.9461 20.2409C21.4865 20.6956 20.9183 21.0558 20.2416 21.3177C19.5648 21.5796 18.7976 21.7106 17.9399 21.7106C17.4695 21.7106 16.9882 21.6633 16.4996 21.5651C16.0111 21.4668 15.537 21.3286 15.081 21.154C14.625 20.9757 14.1944 20.7647 13.7927 20.521C13.391 20.2773 13.0399 20.0044 12.7432 19.7061L13.7818 18.0582C13.865 17.9381 13.9736 17.8399 14.1075 17.7599C14.2414 17.6798 14.3898 17.6398 14.549 17.6398C14.7553 17.6398 14.9652 17.7053 15.1787 17.8399C15.3886 17.9709 15.6274 18.12 15.8952 18.2801C16.163 18.4401 16.467 18.5857 16.8145 18.7203C17.1619 18.8512 17.5708 18.9203 18.0413 18.9203C18.6782 18.9203 19.174 18.7785 19.5287 18.4984C19.8833 18.2146 20.057 17.7708 20.057 17.156C20.057 16.7995 19.9593 16.5121 19.7675 16.2902C19.5721 16.0683 19.3188 15.8827 19.0039 15.7372C18.6891 15.5917 18.3308 15.4608 17.9291 15.3516C17.5274 15.2388 17.1148 15.1152 16.6914 14.9806C16.268 14.846 15.8554 14.6786 15.4537 14.4785C15.052 14.2785 14.6938 14.0202 14.3789 13.6964C14.0641 13.3726 13.8071 12.9688 13.6153 12.485C13.4199 12.0012 13.3258 11.4046 13.3258 10.6952C13.3258 10.124 13.4416 9.56745 13.6696 9.02541C13.8976 8.48337 14.2342 7.99954 14.6793 7.57391C15.1244 7.14828 15.6673 6.80996 16.3114 6.55531C16.9556 6.30066 17.6939 6.17334 18.5262 6.17334C18.9894 6.17334 19.4418 6.20972 19.8833 6.28248C20.3248 6.35523 20.741 6.46437 21.1355 6.60624C21.5299 6.74812 21.899 6.9191 22.2428 7.11918C22.5866 7.31926 22.8906 7.54117 23.1621 7.79218L22.2899 9.43285L22.2827 9.42193Z" fill="#0CA49D"/>
<path d="M29.434 0.378336C29.4268 0.251011 29.4123 0.123687 29.3942 0C30.2121 0.847617 31.3774 1.34236 32.6404 1.26233C33.2447 1.22232 33.8093 1.05497 34.3123 0.789412C33.9215 1.47333 33.7188 2.27729 33.7731 3.12491C33.8382 4.17261 34.287 5.10389 34.9673 5.79508C34.6199 5.72596 34.2544 5.69686 33.8817 5.72233C32.4051 5.81691 31.1566 6.67544 30.498 7.89048C30.2374 6.09339 28.8513 4.69646 27.1143 4.38724C28.5799 3.66695 29.5462 2.10995 29.4376 0.374698L29.434 0.378336Z" fill="#F9AD3C"/>
<path d="M35.6948 15.3734C35.8612 15.3734 36.006 15.3553 36.1254 15.3152C36.2448 15.2752 36.3462 15.2243 36.4222 15.1552C36.5018 15.0861 36.5597 15.0024 36.5959 14.9042C36.6321 14.8059 36.6502 14.7004 36.6502 14.584C36.6502 14.3585 36.5705 14.1802 36.4113 14.0529C36.2521 13.9219 36.0132 13.8565 35.6948 13.8565H34.7575V15.3734H35.6948ZM34.7575 11.9502V13.4345H35.5319C35.6984 13.4345 35.8395 13.4163 35.9626 13.3799C36.0856 13.3435 36.1869 13.2926 36.2665 13.2271C36.3462 13.1616 36.4077 13.0852 36.4439 12.9943C36.4837 12.8997 36.5018 12.8015 36.5018 12.6887C36.5018 12.4304 36.4258 12.2449 36.2702 12.1249C36.1182 12.0048 35.8793 11.9466 35.5572 11.9466H34.7575V11.9502ZM35.5572 11.4846C35.825 11.4846 36.053 11.5101 36.2448 11.5646C36.4366 11.6156 36.5959 11.692 36.7189 11.7902C36.8456 11.8884 36.936 12.0084 36.9939 12.1503C37.0519 12.2886 37.0808 12.4486 37.0808 12.6232C37.0808 12.7324 37.0627 12.8342 37.0301 12.9325C36.9976 13.0307 36.9469 13.1216 36.8818 13.2053C36.8166 13.289 36.7298 13.369 36.6284 13.4345C36.5271 13.5 36.4077 13.5545 36.2702 13.5982C36.5886 13.66 36.8275 13.7728 36.9867 13.9401C37.1496 14.1075 37.2292 14.3258 37.2292 14.595C37.2292 14.7805 37.1966 14.9478 37.1278 15.1006C37.0627 15.2534 36.9614 15.3844 36.8311 15.4935C36.7008 15.6026 36.5416 15.6863 36.3534 15.7481C36.1652 15.8064 35.9481 15.8355 35.7056 15.8355H34.1748V11.481H35.5572V11.4846Z" fill="#0CA49D"/>
<path d="M40.3229 14.2239L39.6425 12.4523C39.6208 12.4014 39.6027 12.3395 39.5774 12.2704C39.5557 12.2013 39.5339 12.1249 39.5122 12.0448C39.4688 12.2085 39.4254 12.3468 39.382 12.4559L38.7016 14.2239H40.3193H40.3229ZM41.5424 15.8391H41.0901C41.0358 15.8391 40.996 15.8246 40.9634 15.7991C40.9309 15.7736 40.9055 15.7409 40.891 15.6972L40.4857 14.6459H38.5424L38.137 15.6972C38.1262 15.7336 38.1009 15.7664 38.0683 15.7955C38.0357 15.8246 37.9923 15.8391 37.9416 15.8391H37.4893L39.2227 11.4846H39.8162L41.5497 15.8391H41.5424Z" fill="#0CA49D"/>
<path d="M45.621 11.4883V15.8428H45.3279C45.2808 15.8428 45.241 15.8355 45.2084 15.8173C45.1795 15.8027 45.1469 15.7736 45.118 15.7336L42.6137 12.4523C42.6173 12.5032 42.6209 12.5541 42.6245 12.6014C42.6281 12.6487 42.6281 12.696 42.6281 12.7397V15.8428H42.1143V11.4883H42.4182C42.4436 11.4883 42.4653 11.4919 42.4834 11.4955C42.5015 11.4992 42.516 11.5028 42.5304 11.5101C42.5449 11.5174 42.5594 11.5246 42.5739 11.5392C42.5883 11.5501 42.6028 11.5683 42.6209 11.5865L45.1252 14.8642C45.1216 14.8096 45.118 14.7623 45.1143 14.7114C45.1107 14.6605 45.1107 14.6132 45.1107 14.5695V11.4846H45.6246L45.621 11.4883Z" fill="#0CA49D"/>
<path d="M47.3148 13.3945H47.5355C47.6115 13.3945 47.6731 13.3836 47.7201 13.3654C47.7671 13.3436 47.8106 13.3108 47.8468 13.2635L49.2871 11.6229C49.3269 11.5683 49.3703 11.5319 49.4138 11.5137C49.4572 11.4919 49.5115 11.4846 49.5766 11.4846H50.0724L48.4222 13.3581C48.3824 13.4054 48.3426 13.4491 48.3027 13.4782C48.2666 13.5073 48.2268 13.5327 48.1833 13.5546C48.2376 13.5727 48.2883 13.5982 48.3317 13.6382C48.3751 13.671 48.4186 13.7183 48.462 13.7765L50.1846 15.8391H49.6779C49.6381 15.8391 49.6056 15.8355 49.5766 15.8318C49.5513 15.8246 49.5259 15.8173 49.5079 15.8064C49.4861 15.7955 49.468 15.7809 49.4536 15.7664C49.4391 15.7518 49.4246 15.7336 49.4101 15.7118L47.9155 13.9838C47.8757 13.9329 47.8323 13.8965 47.7852 13.8783C47.7382 13.8565 47.6694 13.8456 47.5753 13.8456H47.3112V15.8391H46.7285V11.4846H47.3112V13.3945H47.3148Z" fill="#0CA49D"/>
<path d="M54.4949 12.1685C54.4768 12.1976 54.4551 12.2231 54.4334 12.2376C54.4117 12.2522 54.3864 12.2594 54.3574 12.2594C54.3248 12.2594 54.2814 12.2412 54.238 12.2085C54.1909 12.1758 54.133 12.1357 54.0643 12.0957C53.9955 12.0521 53.9123 12.0157 53.8146 11.9793C53.7169 11.9429 53.6011 11.9284 53.4599 11.9284C53.3296 11.9284 53.2138 11.9466 53.1125 11.983C53.0148 12.0157 52.9316 12.0666 52.8628 12.1248C52.7977 12.1867 52.747 12.2558 52.7108 12.3395C52.6782 12.4195 52.6601 12.5068 52.6601 12.605C52.6601 12.7251 52.6891 12.8269 52.747 12.9106C52.8085 12.9906 52.8845 13.0561 52.9822 13.1143C53.0799 13.1725 53.1921 13.2198 53.3152 13.2635C53.4418 13.3035 53.5685 13.3471 53.6951 13.3908C53.8254 13.4345 53.9521 13.4854 54.0751 13.5436C54.2018 13.5982 54.3104 13.6673 54.4081 13.7546C54.5058 13.8383 54.5854 13.9438 54.6433 14.0674C54.7048 14.1911 54.7338 14.3439 54.7338 14.5222C54.7338 14.7113 54.7012 14.8932 54.6361 15.0606C54.5709 15.2279 54.4768 15.3698 54.3502 15.4935C54.2271 15.6172 54.0751 15.7154 53.8942 15.7845C53.7132 15.8536 53.5106 15.89 53.279 15.89C52.9967 15.89 52.7397 15.8391 52.5118 15.7372C52.2838 15.6353 52.0847 15.4935 51.9219 15.3225L52.092 15.0424C52.1064 15.0206 52.1282 15.0024 52.1499 14.9878C52.1752 14.9733 52.2005 14.9623 52.2295 14.9623C52.2548 14.9623 52.2838 14.9733 52.3163 14.9951C52.3489 15.0169 52.3887 15.0424 52.4321 15.0751C52.4756 15.1079 52.5226 15.1442 52.5769 15.1806C52.6312 15.2206 52.6927 15.2534 52.7615 15.2861C52.8302 15.3189 52.9098 15.3443 53.0003 15.3698C53.0908 15.3916 53.1885 15.3989 53.3007 15.3989C53.4382 15.3989 53.5649 15.3807 53.6734 15.3407C53.782 15.3007 53.8725 15.2497 53.9485 15.1806C54.0245 15.1115 54.0824 15.0242 54.1222 14.9296C54.162 14.8314 54.1837 14.7223 54.1837 14.6058C54.1837 14.4749 54.1547 14.3657 54.0932 14.2821C54.0353 14.1984 53.9557 14.1256 53.8616 14.0711C53.7639 14.0129 53.6553 13.9656 53.5287 13.9292C53.402 13.8892 53.2753 13.8492 53.1487 13.8092C53.0184 13.7655 52.8917 13.7182 52.7687 13.6636C52.642 13.6091 52.5335 13.5363 52.4358 13.4526C52.3381 13.3653 52.2621 13.2562 52.2005 13.1289C52.1426 12.9979 52.1137 12.8342 52.1137 12.6414C52.1137 12.4886 52.1426 12.3395 52.2005 12.194C52.2621 12.0484 52.3489 11.9211 52.4611 11.812C52.5769 11.6992 52.7144 11.6119 52.8809 11.5428C53.0474 11.4773 53.2392 11.4409 53.4563 11.4409C53.6988 11.4409 53.9195 11.4809 54.1149 11.5573C54.314 11.6337 54.4913 11.7465 54.6397 11.892L54.4985 12.1721L54.4949 12.1685Z" fill="#0CA49D"/>
<path d="M57.1008 14.1075V15.8428H56.5145V14.1075L54.9258 11.4883H55.4397C55.4903 11.4883 55.5338 11.5028 55.5627 11.5283C55.5917 11.5538 55.6206 11.5865 55.6423 11.6265L56.6339 13.3181C56.6701 13.3909 56.7027 13.4564 56.7352 13.5182C56.7642 13.58 56.7931 13.6419 56.8149 13.7037C56.8366 13.6419 56.8619 13.58 56.8909 13.5182C56.9198 13.4564 56.9488 13.3872 56.9849 13.3181L57.9729 11.6265C57.991 11.5938 58.0163 11.561 58.0489 11.5319C58.0815 11.5028 58.1213 11.4883 58.172 11.4883H58.6895L57.1008 14.1075Z" fill="#0CA49D"/>
<path d="M61.1207 14.2239L60.4404 12.4523C60.4187 12.4014 60.4006 12.3395 60.3752 12.2704C60.3535 12.2013 60.3318 12.1249 60.3101 12.0448C60.2667 12.2085 60.2232 12.3468 60.1798 12.4559L59.4994 14.2239H61.1171H61.1207ZM62.3403 15.8391H61.8879C61.8337 15.8391 61.7938 15.8246 61.7613 15.7991C61.7287 15.7736 61.7034 15.7409 61.6889 15.6972L61.2836 14.6459H59.3402L58.9349 15.6972C58.924 15.7336 58.8987 15.7664 58.8661 15.7955C58.8336 15.8246 58.7901 15.8391 58.7395 15.8391H58.2871L60.0206 11.4846H60.6141L62.3475 15.8391H62.3403Z" fill="#0CA49D"/>
<path d="M64.1136 13.5946C64.2837 13.5946 64.4321 13.5727 64.5623 13.5327C64.6926 13.4891 64.8012 13.4309 64.8881 13.3581C64.9785 13.2817 65.0437 13.1908 65.0871 13.0853C65.1305 12.9798 65.1522 12.8634 65.1522 12.736C65.1522 12.4777 65.069 12.2813 64.8989 12.1503C64.7288 12.0194 64.4755 11.9539 64.1353 11.9539H63.4948V13.5982H64.11L64.1136 13.5946ZM66.1149 15.8391H65.5937C65.4852 15.8391 65.4092 15.7991 65.3585 15.7154L64.233 14.1584C64.2005 14.1111 64.1606 14.0748 64.1208 14.0566C64.081 14.0347 64.0231 14.0238 63.9399 14.0238H63.4948V15.8391H62.9121V11.4846H64.1353C64.4104 11.4846 64.6456 11.5137 64.8446 11.5683C65.0437 11.6229 65.2101 11.7029 65.3368 11.8084C65.4671 11.9139 65.5648 12.0412 65.6263 12.1904C65.6878 12.3395 65.7204 12.5032 65.7204 12.6887C65.7204 12.8415 65.6951 12.987 65.648 13.1216C65.601 13.2562 65.5286 13.3763 65.4381 13.4818C65.3477 13.5873 65.2355 13.6782 65.1016 13.751C64.9713 13.8274 64.8229 13.882 64.6528 13.922C64.7288 13.9656 64.7903 14.0275 64.8446 14.1075L66.1076 15.8355L66.1149 15.8391Z" fill="#0CA49D"/>
<path d="M67.2911 15.8428H66.7012V11.4883H67.2911V15.8428Z" fill="#0CA49D"/>
<path d="M70.6969 14.2239L70.0165 12.4523C69.9948 12.4014 69.9767 12.3395 69.9514 12.2704C69.9297 12.2013 69.908 12.1249 69.8863 12.0448C69.8428 12.2085 69.7994 12.3468 69.756 12.4559L69.0756 14.2239H70.6933H70.6969ZM71.9165 15.8391H71.4641C71.4135 15.8391 71.37 15.8246 71.3375 15.7991C71.3049 15.7736 71.2796 15.7409 71.2651 15.6972L70.8598 14.6459H68.9164L68.5111 15.6972C68.5002 15.7336 68.4749 15.7664 68.4423 15.7955C68.4097 15.8246 68.3663 15.8391 68.3156 15.8391H67.8633L69.5968 11.4846H70.1903L71.9237 15.8391H71.9165Z" fill="#0CA49D"/>
<path d="M75.9986 11.4883V15.8428H75.4124V13.8602H73.0745V15.8428H72.4883V11.4883H73.0745V13.4309H75.4124V11.4883H75.9986Z" fill="#0CA49D"/>
<path d="M34.7572 21.5833H34.1709V17.2288H34.7572V21.5833Z" fill="#0CA49D"/>
<path d="M39.3749 17.2287V21.5832H39.0818C39.0347 21.5832 38.9949 21.576 38.9623 21.5578C38.9334 21.5432 38.9008 21.5141 38.8719 21.4741L36.3676 18.1928C36.3712 18.2437 36.3748 18.2946 36.3784 18.3419C36.3821 18.3892 36.3821 18.4365 36.3821 18.4802V21.5832H35.8682V17.2287H36.1722C36.1975 17.2287 36.2192 17.2324 36.2373 17.236C36.2554 17.2396 36.2699 17.2433 36.2843 17.2506C36.2988 17.2578 36.3133 17.2651 36.3278 17.2797C36.3422 17.2906 36.3567 17.3088 36.3748 17.327L38.8791 20.6047C38.8755 20.5537 38.8719 20.5028 38.8682 20.4519C38.8646 20.4009 38.8646 20.3536 38.8646 20.31V17.2251H39.3785L39.3749 17.2287Z" fill="#0CA49D"/>
<path d="M44.2389 19.4079C44.2389 19.7353 44.1882 20.0299 44.0833 20.2991C43.9819 20.5683 43.8335 20.7939 43.649 20.9867C43.4608 21.1758 43.2364 21.325 42.9722 21.4305C42.7117 21.5324 42.4185 21.5869 42.1001 21.5869H40.4824V17.2324H42.1001C42.4185 17.2324 42.7081 17.2834 42.9722 17.3888C43.2364 17.4907 43.4608 17.6399 43.649 17.8327C43.8372 18.0218 43.9819 18.251 44.0833 18.5202C44.1846 18.7894 44.2389 19.0841 44.2389 19.4115V19.4079ZM43.6381 19.4079C43.6381 19.1387 43.6019 18.9022 43.5296 18.6912C43.4572 18.4802 43.3558 18.3019 43.2219 18.1564C43.088 18.0109 42.9288 17.8981 42.737 17.8218C42.5488 17.7454 42.3353 17.7053 42.1037 17.7053H41.0723V21.1067H42.1037C42.3389 21.1067 42.5488 21.0667 42.737 20.9903C42.9252 20.9139 43.088 20.8011 43.2219 20.6593C43.3558 20.5138 43.4572 20.3355 43.5296 20.1245C43.6019 19.9135 43.6381 19.6734 43.6381 19.4079Z" fill="#0CA49D"/>
<path d="M49.0845 19.408C49.0845 19.7354 49.0338 20.0337 48.9289 20.3065C48.8275 20.5794 48.6828 20.8122 48.4946 21.0086C48.3064 21.2051 48.0821 21.3579 47.8179 21.467C47.5573 21.5761 47.2642 21.6271 46.9457 21.6271C46.6272 21.6271 46.3377 21.5725 46.0735 21.467C45.813 21.3579 45.5886 21.2051 45.4004 21.0086C45.2122 20.8122 45.0675 20.5794 44.9662 20.3065C44.8648 20.0337 44.8105 19.7318 44.8105 19.408C44.8105 19.0806 44.8612 18.7823 44.9662 18.5131C45.0675 18.2403 45.2122 18.0038 45.4004 17.8073C45.5886 17.6073 45.813 17.4545 46.0735 17.3453C46.3341 17.2362 46.6272 17.1816 46.9457 17.1816C47.2642 17.1816 47.5537 17.2362 47.8179 17.3453C48.0821 17.4545 48.3064 17.6073 48.4946 17.8073C48.6828 18.0038 48.8275 18.2403 48.9289 18.5131C49.0302 18.7859 49.0845 19.0842 49.0845 19.408ZM48.4838 19.408C48.4838 19.1388 48.4476 18.9023 48.3752 18.6877C48.3028 18.4767 48.2015 18.2948 48.0676 18.1493C47.9337 18.0002 47.7744 17.8874 47.5826 17.8073C47.3945 17.7273 47.1809 17.6873 46.9493 17.6873C46.7177 17.6873 46.5078 17.7273 46.316 17.8073C46.1278 17.8874 45.965 18.0002 45.8311 18.1493C45.6972 18.2948 45.5959 18.4731 45.5235 18.6877C45.4511 18.8987 45.4149 19.1388 45.4149 19.408C45.4149 19.6736 45.4511 19.9137 45.5235 20.1283C45.5959 20.3393 45.6972 20.5175 45.8311 20.6667C45.965 20.8122 46.1278 20.925 46.316 21.005C46.5042 21.0814 46.7177 21.1214 46.9493 21.1214C47.1846 21.1214 47.3945 21.0814 47.5826 21.005C47.7708 20.925 47.9337 20.8122 48.0676 20.6667C48.2015 20.5175 48.3028 20.3393 48.3752 20.1283C48.4476 19.9173 48.4838 19.6772 48.4838 19.408Z" fill="#0CA49D"/>
<path d="M53.4345 17.2287V21.5832H53.1413C53.0943 21.5832 53.0545 21.576 53.0219 21.5578C52.993 21.5432 52.9604 21.5141 52.9314 21.4741L50.4271 18.1928C50.4308 18.2437 50.4344 18.2946 50.438 18.3419C50.4416 18.3892 50.4416 18.4365 50.4416 18.4802V21.5832H49.9277V17.2287H50.2317C50.2571 17.2287 50.2788 17.2324 50.2969 17.236C50.315 17.2396 50.3294 17.2433 50.3439 17.2506C50.3584 17.2578 50.3729 17.2651 50.3873 17.2797C50.4018 17.2906 50.4163 17.3088 50.4344 17.327L52.9387 20.6047C52.9351 20.5537 52.9314 20.5028 52.9278 20.4519C52.9242 20.4009 52.9242 20.3536 52.9242 20.31V17.2251H53.4381L53.4345 17.2287Z" fill="#0CA49D"/>
<path d="M57.2128 21.1031L57.2091 21.5833H54.542V17.2288H57.2091V17.709H55.1283V19.1532H56.8147V19.6152H55.1283V21.1031H57.2128Z" fill="#0CA49D"/>
<path d="M60.2449 17.9092C60.2268 17.9383 60.2051 17.9638 60.1834 17.9783C60.1617 17.9929 60.1364 18.0002 60.1074 18.0002C60.0748 18.0002 60.0314 17.982 59.988 17.9492C59.9409 17.9165 59.883 17.8765 59.8143 17.8365C59.7455 17.7928 59.6623 17.7564 59.5646 17.72C59.4669 17.6873 59.3511 17.6691 59.2099 17.6691C59.0796 17.6691 58.9638 17.6873 58.8625 17.7237C58.7648 17.7564 58.6816 17.8073 58.6128 17.8656C58.5477 17.9274 58.497 17.9965 58.4608 18.0802C58.4282 18.1602 58.4101 18.2512 58.4101 18.3457C58.4101 18.4658 58.4391 18.5677 58.497 18.6513C58.5585 18.7314 58.6345 18.7968 58.7322 18.855C58.8299 18.9133 58.9421 18.9605 59.0652 19.0042C59.1918 19.0442 59.3185 19.0879 59.4451 19.1315C59.5754 19.1752 59.7021 19.2261 59.8251 19.2843C59.9518 19.3389 60.0604 19.408 60.1581 19.4953C60.2558 19.579 60.3354 19.6845 60.3933 19.8082C60.4548 19.9318 60.4838 20.0846 60.4838 20.2629C60.4838 20.4521 60.4512 20.634 60.3861 20.8013C60.3209 20.9686 60.2268 21.1105 60.1002 21.2342C59.9771 21.3579 59.8251 21.4561 59.6442 21.5252C59.4632 21.5943 59.2606 21.6307 59.029 21.6307C58.7467 21.6307 58.4898 21.5798 58.2618 21.4779C58.0338 21.3761 57.8347 21.2342 57.6719 21.0632L57.842 20.7831C57.8564 20.7613 57.8782 20.7431 57.8999 20.7285C57.9252 20.714 57.9505 20.7031 57.9795 20.7031C58.0048 20.7031 58.0338 20.714 58.0663 20.7358C58.1025 20.7576 58.1387 20.7831 58.1821 20.8158C58.2256 20.8486 58.2726 20.885 58.3269 20.9213C58.3812 20.9614 58.4427 20.9941 58.5115 21.0268C58.5802 21.0596 58.6598 21.085 58.7503 21.1105C58.8408 21.1323 58.9385 21.1396 59.0507 21.1396C59.1882 21.1396 59.3149 21.1214 59.4234 21.0814C59.532 21.0414 59.6225 20.9905 59.6985 20.9213C59.7745 20.8486 59.8324 20.7649 59.8722 20.6703C59.912 20.5721 59.9337 20.463 59.9337 20.3466C59.9337 20.2156 59.9047 20.1065 59.8432 20.0228C59.7853 19.9391 59.7057 19.8664 59.6116 19.8118C59.5139 19.7536 59.4053 19.7063 59.2787 19.6699C59.152 19.6299 59.0254 19.5899 58.8987 19.5499C58.7684 19.5062 58.6417 19.4589 58.5187 19.4044C58.392 19.3498 58.2835 19.277 58.1858 19.1934C58.0881 19.1061 58.0121 18.9969 57.9505 18.8696C57.8926 18.7386 57.8637 18.5749 57.8637 18.3821C57.8637 18.2293 57.8926 18.0802 57.9505 17.9347C58.0121 17.7892 58.0989 17.6618 58.2111 17.5527C58.3269 17.4399 58.4644 17.3526 58.6309 17.2835C58.7974 17.218 58.9892 17.1816 59.2063 17.1816C59.4488 17.1816 59.6695 17.2217 59.8649 17.2981C60.064 17.3744 60.2413 17.4872 60.3897 17.6327L60.2485 17.9128L60.2449 17.9092Z" fill="#0CA49D"/>
<path d="M61.8997 21.5833H61.3135V17.2288H61.8997V21.5833Z" fill="#0CA49D"/>
<path d="M65.3082 19.9644L64.6279 18.1928C64.6062 18.1382 64.5881 18.08 64.5627 18.0109C64.541 17.9418 64.5193 17.8654 64.4976 17.7853C64.4542 17.949 64.4107 18.0873 64.3673 18.1964L63.687 19.9644H65.3046H65.3082ZM66.5278 21.5796H66.0754C66.0212 21.5796 65.9814 21.565 65.9488 21.5396C65.9162 21.5141 65.8909 21.4814 65.8764 21.4377L65.4711 20.3864H63.5277L63.1224 21.4377C63.1115 21.4741 63.0862 21.5068 63.0536 21.5359C63.0211 21.565 62.9776 21.5796 62.927 21.5796H62.4746L64.2081 17.2251H64.8016L66.535 21.5796H66.5278Z" fill="#0CA49D"/>
</g>
<defs>
<clipPath id="clip0_293_282">
<rect width="76" height="21.7143" fill="white"/>
</clipPath>
</defs>
</svg>
