<svg width="102" height="26" viewBox="0 0 102 26" fill="none" xmlns="http://www.w3.org/2000/svg">
<g clip-path="url(#clip0_831_551)">
<path fill-rule="evenodd" clip-rule="evenodd" d="M0.000976562 0L35.3784 7.81577H0.000976562V0Z" fill="#EA5B24"/>
<path fill-rule="evenodd" clip-rule="evenodd" d="M16.1426 0L35.3779 7.81577H16.1426V0Z" fill="#FDD100"/>
<path fill-rule="evenodd" clip-rule="evenodd" d="M101.711 22.4261L35.3779 7.81567H101.711V22.4261Z" fill="#F39910"/>
<path fill-rule="evenodd" clip-rule="evenodd" d="M75.613 22.4261L35.3779 7.81567H75.613V22.4261Z" fill="#FDD100"/>
<path d="M2.47109 16.8853V24.183H3.5222C4.29552 24.183 4.82858 23.9503 5.12139 23.4848C5.4142 23.0193 5.56436 22.0358 5.56436 20.5342C5.56436 19.0326 5.42171 18.0491 5.12139 17.5836C4.82858 17.1181 4.29552 16.8853 3.5222 16.8853H2.47109ZM0.000976562 15.2861H3.84504C5.34663 15.2861 6.39774 15.6765 7.00588 16.4499C7.61403 17.2232 7.91435 18.5971 7.91435 20.5642C7.91435 22.5238 7.60652 23.8902 7.00588 24.6711C6.39774 25.4519 5.33912 25.8348 3.84504 25.8348H0.000976562V15.2861ZM9.5736 20.399V20.2564C9.5736 19.6182 9.84389 19.1302 10.3845 18.7998C10.925 18.4695 11.7209 18.3043 12.7645 18.3043C13.7931 18.3043 14.5514 18.477 15.0319 18.8224C15.5124 19.1677 15.7526 19.7083 15.7526 20.4441V24.108C15.7526 24.4308 15.7677 24.7386 15.7902 25.0239C15.8127 25.3092 15.8577 25.5795 15.9103 25.8348H13.8907L13.718 24.9939C13.5078 25.2567 13.2074 25.4744 12.802 25.6396C12.3966 25.8048 11.9761 25.8873 11.5257 25.8873C10.8575 25.8873 10.3244 25.6846 9.93398 25.2717C9.54357 24.8588 9.34836 24.3032 9.34836 23.5899C9.34836 22.764 9.63366 22.1559 10.1968 21.758C10.7674 21.3601 11.6833 21.1273 12.9447 21.0672H13.6654V20.7294C13.6654 20.2264 13.5979 19.8735 13.4552 19.6633C13.3126 19.4605 13.0798 19.3554 12.757 19.3554C12.3966 19.3554 12.1263 19.4455 11.9461 19.6182C11.7659 19.7909 11.6758 20.0537 11.6758 20.3915H9.56609L9.5736 20.399ZM13.6729 22.1859C12.8546 22.1859 12.2915 22.2835 11.9836 22.4862C11.6758 22.6815 11.5182 23.0343 11.5182 23.5374C11.5182 23.8977 11.5932 24.183 11.7509 24.3858C11.9086 24.5885 12.1263 24.6861 12.3966 24.6861C12.8095 24.6861 13.1249 24.5284 13.3426 24.2131C13.5603 23.8977 13.6729 23.4398 13.6729 22.8466V22.2009V22.1859ZM19.7469 25.8348H17.4644V19.7984C17.4644 19.4605 17.4569 19.1978 17.4494 19.0176C17.4419 18.8299 17.4194 18.6572 17.3969 18.4845H19.6868L19.7469 19.2428C19.927 18.935 20.1748 18.7022 20.4826 18.5446C20.7905 18.3869 21.1508 18.3043 21.5638 18.3043C22.2695 18.3043 22.8176 18.4695 23.193 18.7998C23.5684 19.1302 23.7561 19.6107 23.7561 20.2414V25.8348H21.4737V20.812C21.4737 20.3315 21.4136 20.0086 21.301 19.8284C21.1884 19.6482 20.9932 19.5582 20.7154 19.5582C20.4226 19.5582 20.1823 19.6558 20.0096 19.8435C19.837 20.0312 19.7469 20.2864 19.7469 20.6018V25.8273V25.8348ZM25.3928 20.399V20.2564C25.3928 19.6182 25.6631 19.1302 26.2037 18.7998C26.7443 18.4695 27.5401 18.3043 28.5837 18.3043C29.6123 18.3043 30.3706 18.477 30.8511 18.8224C31.3316 19.1677 31.5719 19.7083 31.5719 20.4441V24.108C31.5719 24.4308 31.5869 24.7386 31.6094 25.0239C31.6319 25.3092 31.677 25.5795 31.7295 25.8348H29.7099L29.5372 24.9939C29.327 25.2567 29.0267 25.4744 28.6212 25.6396C28.2233 25.8048 27.7954 25.8873 27.3449 25.8873C26.6767 25.8873 26.1436 25.6846 25.7532 25.2717C25.3628 24.8588 25.1676 24.3032 25.1676 23.5899C25.1676 22.764 25.4529 22.1559 26.016 21.758C26.5866 21.3601 27.5026 21.1273 28.7639 21.0672H29.4847V20.7294C29.4847 20.2264 29.4171 19.8735 29.2744 19.6633C29.1318 19.4605 28.899 19.3554 28.5762 19.3554C28.2158 19.3554 27.9455 19.4455 27.7653 19.6182C27.5851 19.7909 27.4951 20.0537 27.4951 20.3915H25.3853L25.3928 20.399ZM29.4922 22.1859C28.6738 22.1859 28.1107 22.2835 27.8029 22.4862C27.4951 22.6815 27.3374 23.0343 27.3374 23.5374C27.3374 23.8977 27.4125 24.183 27.5701 24.3858C27.7278 24.5885 27.9455 24.6861 28.2158 24.6861C28.6288 24.6861 28.9441 24.5284 29.1618 24.2131C29.3795 23.8977 29.4922 23.4398 29.4922 22.8466V22.2009V22.1859ZM35.5661 19.2428C35.7463 18.935 35.994 18.7022 36.3019 18.5446C36.6097 18.3869 36.9701 18.3043 37.383 18.3043C37.9086 18.3043 38.3515 18.4019 38.7119 18.5971C39.0723 18.7923 39.3201 19.0701 39.4702 19.438C39.6804 19.0626 39.9507 18.7773 40.2661 18.5896C40.5889 18.4019 40.9643 18.3043 41.3922 18.3043C42.098 18.3043 42.6461 18.4695 43.0215 18.7998C43.3969 19.1302 43.5846 19.6107 43.5846 20.2414V25.8348H41.3022V20.812C41.3022 20.324 41.2496 19.9936 41.137 19.8209C41.0244 19.6482 40.8292 19.5582 40.5589 19.5582C40.2661 19.5582 40.0258 19.6558 39.8456 19.8435C39.6654 20.0312 39.5753 20.2864 39.5753 20.6018V25.8273H37.2929V20.8045C37.2929 20.324 37.2329 20.0011 37.1202 19.8209C37.0076 19.6407 36.8124 19.5506 36.5346 19.5506C36.2418 19.5506 36.0015 19.6482 35.8289 19.8359C35.6562 20.0236 35.5661 20.2789 35.5661 20.5942V25.8198H33.2837V19.7834C33.2837 19.4455 33.2762 19.1828 33.2687 19.0026C33.2611 18.8149 33.2386 18.6422 33.2161 18.4695H35.506L35.5661 19.2278V19.2428ZM48.4347 18.3043C49.6059 18.3043 50.4543 18.5896 50.9649 19.1602C51.4829 19.7308 51.7382 20.6768 51.7382 21.9982C51.7382 23.5374 51.4904 24.5885 51.0024 25.1591C50.5144 25.7222 49.6435 26.0075 48.3896 26.0075C47.1283 26.0075 46.2574 25.7222 45.7619 25.1516C45.2663 24.5885 45.0261 23.5299 45.0261 21.9982C45.0261 20.6693 45.2889 19.7233 45.8144 19.1527C46.34 18.5896 47.2109 18.3043 48.4347 18.3043ZM47.3235 22.0883C47.3235 23.1244 47.3986 23.8227 47.5563 24.183C47.7139 24.5434 47.9917 24.7236 48.3896 24.7236C48.7876 24.7236 49.0654 24.5434 49.223 24.183C49.3732 23.8227 49.4558 23.1244 49.4558 22.0883C49.4558 21.0748 49.3807 20.4065 49.223 20.0837C49.0654 19.7609 48.7801 19.6032 48.3746 19.6032C47.9767 19.6032 47.6989 19.7609 47.5488 20.0912C47.3986 20.4141 47.3235 21.0823 47.3235 22.0958V22.0883ZM55.4922 25.8348H53.2097V19.7984C53.2097 19.4605 53.2022 19.1978 53.1947 19.0176C53.1872 18.8299 53.1647 18.6572 53.1422 18.4845H55.4321L55.4922 19.2428C55.6724 18.935 55.9201 18.7022 56.2279 18.5446C56.5358 18.3869 56.8961 18.3043 57.3091 18.3043C58.0148 18.3043 58.5629 18.4695 58.9383 18.7998C59.3137 19.1302 59.5014 19.6107 59.5014 20.2414V25.8348H57.219V20.812C57.219 20.3315 57.1589 20.0086 57.0463 19.8284C56.9337 19.6482 56.7385 19.5582 56.4607 19.5582C56.1679 19.5582 55.9276 19.6558 55.7549 19.8435C55.5823 20.0312 55.4922 20.2864 55.4922 20.6018V25.8273V25.8348Z" fill="#007242"/>
<path fill-rule="evenodd" clip-rule="evenodd" d="M75.613 16.6826L35.3779 7.81567H75.613V16.6826Z" fill="#EA5B24"/>
<path fill-rule="evenodd" clip-rule="evenodd" d="M16.1426 3.56616L35.3779 7.81566H16.1426V3.56616Z" fill="#F39910"/>
</g>
<defs>
<clipPath id="clip0_831_551">
<rect width="101.712" height="26" fill="white"/>
</clipPath>
</defs>
</svg>
