<svg width="85" height="25" viewBox="0 0 85 25" fill="none" xmlns="http://www.w3.org/2000/svg">
<g clip-path="url(#clip0_293_215)">
<path fill-rule="evenodd" clip-rule="evenodd" d="M11.2075 0.0460867C7.10915 0.437059 3.78786 2.62595 1.77072 6.00465C0.459921 8.20002 -0.156237 10.8009 0.0337734 13.4702C0.498703 20.0003 6.06203 25.529 13.1828 24.9597C19.5718 24.4489 24.8433 18.6514 24.3033 11.5209C24.1055 8.91021 23.2059 6.75859 21.7641 4.81576C21.1112 3.93613 20.9825 3.92178 20.3007 3.20164C19.4553 2.30836 17.6674 1.28289 16.5264 0.829189C14.9964 0.220624 13.0484 -0.129608 11.2075 0.0460867Z" fill="#108DE8"/>
<path fill-rule="evenodd" clip-rule="evenodd" d="M5.12242 8.85744C4.96706 9.30998 5.05954 14.3417 5.05954 15.275C5.05954 16.2847 4.86196 16.6 6.42794 17.1403C10.5742 18.5706 14.6799 13.7209 18.8027 16.1204C18.9939 16.2315 19.2266 16.4595 19.2812 16.0912L19.2828 9.61831C19.283 8.92202 19.3448 8.70396 18.887 8.38244C15.1976 5.78985 11.203 10.2243 7.45946 9.72688C6.07408 9.54285 5.50038 8.82989 5.12242 8.85744Z" fill="white"/>
<path fill-rule="evenodd" clip-rule="evenodd" d="M33.6074 18.8357C35.2236 18.9521 37.1063 17.6878 37.7697 16.9637C40.0739 14.4482 40.1295 10.8086 37.8099 8.1746C36.9461 7.19381 34.9239 6.10978 33.634 6.26164L28.9758 6.26511L28.9746 18.82L33.6074 18.8357ZM31.5914 16.1153C31.9345 16.1755 33.3437 16.1531 33.7308 16.1172C36.913 15.8237 38.037 11.4348 35.3618 9.59636C34.9177 9.29103 34.4236 9.04775 33.7754 8.97506C33.4203 8.93501 31.9039 8.91025 31.5898 8.96742L31.5914 16.1153Z" fill="#108DE8"/>
<path fill-rule="evenodd" clip-rule="evenodd" d="M74.4075 18.8592L77.0571 18.858L77.0599 16.152L82.3175 16.1529L82.3329 18.8583L84.9813 18.8587C84.9831 17.355 84.982 15.8633 84.982 14.3719C84.982 13.0284 85.094 11.3464 84.7654 10.1277C84.2096 8.06497 82.2649 6.23557 79.7058 6.22538C77.1191 6.2152 75.2415 8.03927 74.6421 10.0721C74.2873 11.2752 74.4057 12.9999 74.4057 14.3242C74.4057 15.8335 74.3903 17.3508 74.4075 18.8592ZM77.0596 13.4296L82.3306 13.4319C82.3434 12.2712 82.4669 11.1432 81.9506 10.2539C81.5811 9.61775 80.8018 8.952 79.7072 8.94738C78.5905 8.94275 77.8458 9.58187 77.4475 10.2409C76.9254 11.1052 77.0433 12.2953 77.0596 13.4296Z" fill="#108DE8"/>
<path fill-rule="evenodd" clip-rule="evenodd" d="M44.1 18.8562L46.7406 18.8585C46.7422 18.2937 46.6697 16.5624 46.7663 16.152L52.0038 16.1527L52.0223 18.8567L54.6664 18.8592C54.6526 17.3599 54.6653 15.8629 54.6653 14.3719C54.6653 13.0928 54.7828 11.2601 54.4505 10.1261C52.9373 4.96151 45.8927 4.92494 44.3292 10.0745C43.9752 11.2407 44.0961 13.0254 44.0961 14.3242C44.0961 15.8231 44.0621 17.3624 44.1 18.8562ZM46.7422 13.4293L52.0198 13.4321C52.0308 12.2884 52.1548 11.1391 51.637 10.2516C50.6897 8.62726 48.2807 8.39346 47.1346 10.2437C46.6107 11.0895 46.725 12.3157 46.7422 13.4293Z" fill="#108DE8"/>
<path fill-rule="evenodd" clip-rule="evenodd" d="M59.315 11.1654L59.279 13.0408C59.279 14.6133 59.2014 17.5466 59.2845 18.8223L61.874 18.8237C61.9341 17.9295 61.7803 11.5482 61.9444 11.345C61.9451 10.1049 63.2268 8.95194 64.5231 8.94708C65.3194 8.94407 65.9 9.27092 66.3227 9.65888C66.6527 9.96189 67.1573 10.6522 67.1477 11.3515C67.2688 11.4202 67.1731 18.0765 67.2112 18.8218L69.8035 18.8237L69.7828 11.2036C69.8475 10.6066 69.4911 9.68365 69.2626 9.21513C67.3436 5.28064 61.8356 5.22856 59.8621 9.14731C59.6308 9.6068 59.2604 10.5547 59.315 11.1654Z" fill="#108DE8"/>
<path fill-rule="evenodd" clip-rule="evenodd" d="M33.6065 18.8357L28.9737 18.82L28.9749 6.26517L33.6332 6.2617C33.5485 6.14202 31.605 6.21355 31.3326 6.21355C30.6549 6.21355 29.5851 6.1492 28.9551 6.22374C28.8957 6.42373 28.8714 18.5376 28.951 18.864C29.3799 18.9198 32.3692 18.8767 33.3142 18.879L33.574 18.8515C33.5822 18.8492 33.5957 18.8411 33.6065 18.8357Z" fill="#79BBE7"/>
<path fill-rule="evenodd" clip-rule="evenodd" d="M67.1468 11.3515C67.1746 12.3786 67.0918 18.4985 67.1868 18.8654L69.8263 18.877C69.8951 18.5828 69.8526 13.8108 69.8526 13.0883C69.8526 12.743 69.9444 11.3863 69.782 11.2036L69.8026 18.8237L67.2104 18.8219C67.1723 18.0765 67.268 11.4203 67.1468 11.3515Z" fill="#79BBE7"/>
<path fill-rule="evenodd" clip-rule="evenodd" d="M61.944 11.3452C61.78 11.5484 61.9337 17.9296 61.8736 18.8238L59.2841 18.8225C59.2011 17.5468 59.2786 14.6134 59.2786 13.041L59.3147 11.1655C59.1673 11.2301 59.2332 14.5727 59.2332 14.9898C59.2332 15.5972 59.1616 18.5188 59.2646 18.8669L61.9027 18.8766L61.944 11.3452Z" fill="#79BBE7"/>
</g>
<defs>
<clipPath id="clip0_293_215">
<rect width="85" height="25" fill="white"/>
</clipPath>
</defs>
</svg>
