<svg width="79" height="26" viewBox="0 0 79 26" fill="none" xmlns="http://www.w3.org/2000/svg">
<path d="M42.9272 22.4766C42.8458 24.003 42.1644 25.0473 40.8578 25.6811C40.478 25.8642 40.1242 25.719 39.9517 25.3312C39.8182 25.0311 39.9712 24.6909 40.3283 24.5317C41.2539 24.12 41.6598 23.2761 41.6424 22.4809C41.6207 21.5135 41.0412 20.7757 40.1286 20.4583C39.2496 20.1539 38.3316 20.4497 37.6826 21.2481C37.1845 21.8612 37.1422 22.9207 37.5795 23.6303C37.8215 24.0247 38.1417 24.3215 38.5627 24.5197C38.9599 24.7061 39.0999 25.0506 38.9392 25.3918C38.7754 25.7396 38.3869 25.8512 37.9973 25.654C36.9512 25.1275 36.2654 24.3085 36.056 23.1461C35.725 21.3087 36.8742 19.661 38.5301 19.2038C40.4878 18.6632 42.3673 19.8982 42.8057 21.6847C42.8741 21.9663 42.8947 22.261 42.9272 22.4766Z" fill="#00AA11"/>
<path d="M47.925 20.611C47.9358 20.4647 47.9434 20.3488 47.9532 20.2156C48.2918 20.2156 48.6173 20.2156 48.9635 20.2156C48.9711 20.2892 48.9852 20.3597 48.9852 20.4301C48.9863 21.6217 48.9917 22.8145 48.983 24.0072C48.9765 24.7428 48.6922 25.3484 48.0335 25.7189C47.2088 26.1848 45.9218 26.0385 45.1849 25.4199C45.1155 25.3614 45.0493 25.2997 44.9679 25.2271C45.1871 25.0115 45.402 24.8003 45.6385 24.5684C46.0064 24.8631 46.4188 25.0115 46.9006 24.9974C47.6439 24.9747 48.0107 24.5684 47.9141 23.7776C47.2912 24.264 46.6054 24.2824 45.9077 24.0495C45.492 23.9108 45.1643 23.6335 44.931 23.2457C44.4394 22.4277 44.5664 21.3899 45.2468 20.7562C45.976 20.0769 47.0786 20.0076 47.925 20.611ZM47.8827 22.1959C47.8827 21.5047 47.5072 21.1277 46.8235 21.1342C46.18 21.1397 45.7471 21.5611 45.7232 22.1461C45.6928 22.9098 46.1898 23.2532 46.8474 23.2446C47.5235 23.2348 47.8827 22.8784 47.8827 22.1959Z" fill="black"/>
<path d="M65.064 20.2036C64.4411 20.7896 63.8736 21.3248 63.2973 21.8675C63.8833 22.6454 64.4563 23.4059 65.0683 24.2184C64.6494 24.2184 64.3033 24.2292 63.9582 24.2108C63.8779 24.2065 63.7824 24.1209 63.7281 24.0483C63.4091 23.6236 63.102 23.1903 62.7895 22.7613C62.7374 22.6887 62.681 22.6194 62.5876 22.4959C62.363 22.7526 62.0765 22.9541 61.9789 23.225C61.8769 23.5077 61.9561 23.8555 61.9561 24.2195C61.7694 24.2195 61.6077 24.2195 61.446 24.2195C61.292 24.2195 61.1368 24.2195 60.9577 24.2195C60.9501 24.0992 60.9404 24.0028 60.9404 23.9053C60.9393 22.4016 60.9469 20.8969 60.9317 19.3921C60.9295 19.1029 61.0185 19.0195 61.292 19.0487C61.4992 19.0715 61.7097 19.0531 61.9528 19.0531C61.9528 19.9674 61.9528 20.8492 61.9528 21.8058C62.2686 21.5209 62.5323 21.288 62.7906 21.0496C63.0543 20.8081 63.3104 20.5589 63.5751 20.3195C63.6326 20.2675 63.7119 20.2101 63.7835 20.2079C64.1828 20.1981 64.5832 20.2036 65.064 20.2036Z" fill="black"/>
<path d="M57.2665 22.5523C57.3294 22.977 57.7363 23.302 58.2051 23.3388C58.6012 23.3703 58.9723 23.3128 59.2957 23.0561C59.3478 23.0149 59.4585 22.9824 59.503 23.0095C59.72 23.1428 59.923 23.2966 60.1508 23.4569C59.4487 24.1557 58.649 24.3474 57.7309 24.121C56.9832 23.9368 56.4417 23.5176 56.2659 22.7528C55.885 21.0877 57.1699 19.987 58.6544 20.2383C59.516 20.3835 60.0521 20.8883 60.2539 21.729C60.3147 21.9803 60.2973 22.2501 60.318 22.5523C59.7786 22.5523 59.2762 22.5523 58.7738 22.5523C58.2789 22.5523 57.783 22.5523 57.2665 22.5523ZM59.2599 21.7853C59.1905 21.2859 58.7922 21.0476 58.1227 21.079C57.643 21.1007 57.3175 21.3737 57.2936 21.7853C57.9447 21.7853 58.5936 21.7853 59.2599 21.7853Z" fill="black"/>
<path d="M51.7244 20.1462C52.9115 20.1939 53.7938 20.9317 53.8828 22.0811C53.9425 22.8654 53.5974 23.4948 52.9072 23.9173C52.1161 24.4016 50.8617 24.2716 50.1921 23.6259C49.1873 22.6563 49.4944 20.9468 50.7814 20.4106C51.0798 20.286 51.4086 20.2329 51.7244 20.1462ZM52.8041 22.2132C52.8019 21.5611 52.3852 21.1299 51.7548 21.1342C51.0472 21.1397 50.6772 21.5947 50.6533 22.2154C50.6305 22.8123 51.1427 23.2912 51.7428 23.2868C52.3842 23.2814 52.8063 22.8546 52.8041 22.2132Z" fill="black"/>
<path d="M54.5055 20.2058C54.869 20.2058 55.1892 20.2058 55.5538 20.2058C55.5538 20.2957 55.5538 20.3824 55.5538 20.4691C55.5538 21.9196 55.5538 23.3702 55.5527 24.8208C55.5527 25.5521 55.1251 25.9778 54.3916 25.98C54.1094 25.9811 53.8262 25.9811 53.5137 25.9811C53.5137 25.8088 53.5137 25.6647 53.5137 25.5206C53.5137 25.3755 53.5137 25.2292 53.5137 25.0331C53.7025 25.0331 53.8739 25.0396 54.0443 25.031C54.4317 25.0126 54.5055 24.9335 54.5055 24.5521C54.5055 23.2121 54.5055 21.872 54.5055 20.5319C54.5055 20.4322 54.5055 20.3336 54.5055 20.2058Z" fill="black"/>
<path d="M38.1767 22.4916C38.0975 21.9044 38.843 21.1981 39.4757 21.2393C40.1767 21.2859 40.7562 21.8308 40.7518 22.5295C40.7475 23.225 40.142 23.8393 39.4453 23.8209C38.7475 23.8024 38.1355 23.251 38.1767 22.4916Z" fill="#00AA11"/>
<path d="M13.9316 20.6921H15.0135C15.6028 20.6921 15.9511 21.0236 15.9511 21.5556C15.9511 22.0961 15.6071 22.4125 15.0135 22.4125H14.2604V23.4925H13.9316V20.6921ZM14.994 22.1005C15.4227 22.1005 15.6191 21.9282 15.6191 21.5556C15.6191 21.184 15.414 21.0041 14.994 21.0041H14.2604V22.1005H14.994Z" fill="black"/>
<path d="M17.1135 21.312C17.7147 21.312 18.1162 21.7638 18.1162 22.4322C18.1162 23.1006 17.7147 23.5523 17.1135 23.5523C16.5166 23.5523 16.1162 23.1006 16.1162 22.4322C16.1162 21.7638 16.5166 21.312 17.1135 21.312ZM17.1135 21.6045C16.6935 21.6045 16.4287 21.9241 16.4287 22.4322C16.4287 22.9403 16.6935 23.2598 17.1135 23.2598C17.5345 23.2598 17.8036 22.9403 17.8036 22.4322C17.8036 21.9241 17.5345 21.6045 17.1135 21.6045Z" fill="black"/>
<path d="M18.3164 21.3716H18.6246L19.0087 23.0204H19.0174L19.586 21.3716H19.8704L20.4401 23.0204H20.4477L20.8329 21.3716H21.1411L20.6321 23.4927H20.3359L19.7347 21.7605H19.726L19.1216 23.4927H18.8243L18.3164 21.3716Z" fill="black"/>
<path d="M22.3268 21.312C22.8965 21.312 23.2763 21.7399 23.2763 22.3639V22.5243H21.6616C21.6703 22.9327 21.9307 23.2685 22.3192 23.2685C22.6198 23.2685 22.788 23.1602 22.9681 22.8438L23.2286 22.9998C23.0484 23.3638 22.7402 23.5523 22.3268 23.5523C21.7376 23.5523 21.3447 23.1006 21.3447 22.4322C21.3447 21.7638 21.7506 21.312 22.3268 21.312ZM22.9605 22.2718C22.9562 22.0758 22.8922 21.9165 22.7761 21.7876C22.6599 21.6598 22.5113 21.5958 22.3268 21.5958C21.9665 21.5958 21.6779 21.9165 21.6703 22.2718H22.9605Z" fill="black"/>
<path d="M23.7227 21.3714H24.0189V21.548H24.0265C24.1068 21.4159 24.2631 21.3357 24.4671 21.3357C24.5311 21.3357 24.6038 21.3476 24.6798 21.3682L24.6114 21.6921C24.5354 21.6683 24.4638 21.6564 24.4031 21.6564C24.1513 21.6564 24.0341 21.8243 24.0341 22.2197V23.4926H23.7227V21.3714Z" fill="black"/>
<path d="M25.8063 21.312C26.3749 21.312 26.7558 21.7399 26.7558 22.3639V22.5243H25.1411C25.1487 22.9327 25.4091 23.2685 25.7976 23.2685C26.0982 23.2685 26.2675 23.1602 26.4476 22.8438L26.7081 22.9998C26.5279 23.3638 26.2187 23.5523 25.8063 23.5523C25.217 23.5523 24.8242 23.1006 24.8242 22.4322C24.8242 21.7638 25.229 21.312 25.8063 21.312ZM26.4389 22.2718C26.4357 22.0758 26.3717 21.9165 26.2556 21.7876C26.1384 21.6598 25.9908 21.5958 25.8063 21.5958C25.446 21.5958 25.1574 21.9165 25.1487 22.2718H26.4389Z" fill="black"/>
<path d="M28.074 21.3119C28.3312 21.3119 28.559 21.4203 28.699 21.5958H28.7077V20.572H29.0202V23.4927H28.7196V23.2804H28.711C28.571 23.4526 28.3344 23.5523 28.074 23.5523C27.5216 23.5523 27.1201 23.0919 27.1201 22.4321C27.1201 21.7724 27.5216 21.3119 28.074 21.3119ZM28.7077 22.2241C28.7077 21.8796 28.4267 21.6044 28.074 21.6044C27.6931 21.6044 27.4326 21.9316 27.4326 22.4321C27.4326 22.9326 27.6931 23.2598 28.0946 23.2598C28.431 23.2598 28.7077 22.9803 28.7077 22.6358V22.2241Z" fill="black"/>
<path d="M30.9313 23.2804V23.4927H30.6318V20.572H30.9433V21.5958H30.952C31.0919 21.4203 31.3209 21.3119 31.577 21.3119C32.1304 21.3119 32.5309 21.7724 32.5309 22.4321C32.5309 23.0919 32.1304 23.5523 31.577 23.5523C31.3166 23.5523 31.08 23.4526 30.94 23.2804H30.9313ZM31.577 21.6044C31.2243 21.6044 30.9433 21.8796 30.9433 22.2241V22.6358C30.9433 22.9803 31.22 23.2598 31.5564 23.2598C31.9579 23.2598 32.2183 22.9326 32.2183 22.4321C32.2183 21.9316 31.9579 21.6044 31.577 21.6044Z" fill="black"/>
<path d="M33.4519 23.3118L32.6348 21.3716H32.9679L33.6125 22.9522H33.6201L34.2701 21.3716H34.6022L33.3282 24.3919H33.0037L33.4519 23.3118Z" fill="black"/>
<path d="M8.61946 0.00708008C13.379 0.00708008 17.2378 3.72508 17.2378 8.31083C17.2378 12.8966 13.379 16.6146 8.61946 16.6146C3.85885 16.6146 0 12.8966 0 8.31083C0 3.72508 3.85885 0.00708008 8.61946 0.00708008Z" fill="#00AED6"/>
<path fill-rule="evenodd" clip-rule="evenodd" d="M13.6472 8.05508C13.581 6.99774 12.6477 6.18741 11.5495 6.23508H6.10526C5.90667 6.23508 5.74607 6.08016 5.74607 5.88841C5.74607 5.69774 5.90667 5.54283 6.10526 5.54283H11.6212C11.5897 4.82674 11.0818 4.21141 10.3645 4.02074C8.75632 3.74341 7.11012 3.74341 5.5019 4.02074C4.5882 4.23741 3.90454 4.96974 3.77866 5.86783C3.5269 7.49716 3.5269 9.15249 3.77866 10.7807C3.97074 11.7319 4.75423 12.4675 5.74607 12.6289C7.73952 12.8705 9.75684 12.8705 11.7503 12.6289C12.639 12.4556 13.3108 11.7525 13.4171 10.8847C13.5994 9.95199 13.6765 9.00299 13.6472 8.05508ZM11.8512 9.21749V9.52191C11.8512 9.71258 11.6906 9.86749 11.492 9.86749C11.2934 9.86749 11.1328 9.71258 11.1328 9.52191V9.21749C11.0167 9.11999 10.9516 8.97808 10.9538 8.82966C10.9538 8.54258 11.1947 8.31074 11.492 8.31074C11.7894 8.31074 12.0303 8.54258 12.0303 8.82966C12.0292 8.97699 11.9641 9.11783 11.8512 9.21749Z" fill="white"/>
<path d="M41.7873 7.37703C41.7992 5.92103 40.5838 4.73153 39.0722 4.71961C37.5606 4.70878 36.3267 5.87878 36.3148 7.33478C36.3029 8.79078 37.5182 9.98136 39.0299 9.9922C39.044 9.9922 39.0581 9.9922 39.0722 9.9922C40.5057 10.0669 41.7309 9.00636 41.8079 7.62511C41.8122 7.54278 41.8122 7.45936 41.809 7.37703H41.7873ZM33.6572 7.37703C33.6572 4.60911 35.9263 2.49878 39.0722 2.49878C42.2181 2.49878 44.4883 4.62211 44.4883 7.37703C44.4883 10.1309 42.2398 12.2618 39.0722 12.2618C35.9046 12.2618 33.6572 10.1374 33.6572 7.37703Z" fill="black"/>
<path d="M29.3472 7.8819C29.3472 9.02374 28.1405 9.95757 26.6115 9.95757C25.2062 10.0952 23.9517 9.10824 23.8096 7.75407C23.7955 7.61757 23.7933 7.47999 23.8031 7.3424C23.8031 5.83332 24.9522 4.79549 26.7189 4.79549C28.1557 4.79549 29.3472 5.7434 29.3472 6.8159V7.8819ZM29.4546 2.49124V3.58432C28.581 2.81949 27.4232 2.4284 26.2447 2.49882C23.458 2.52265 21.2204 4.71965 21.2453 7.40415C21.2714 10.0887 23.5513 12.2456 26.338 12.2207C27.485 12.2705 28.6017 11.8567 29.4188 11.0788V12.0127C29.4188 13.2791 28.2848 14.2064 26.7905 14.2064C25.65 14.2855 24.5258 13.9052 23.688 13.1545L21.942 14.7741C23.2507 16.0112 25.0293 16.6764 26.8621 16.6147C29.9223 16.6147 32.0188 14.6354 32.0188 11.9997V2.49124H29.4546Z" fill="black"/>
<path d="M46.0684 2.77492H48.6391V3.59175H48.6749C49.5181 2.85075 50.6315 2.46292 51.7709 2.51167C54.5695 2.6135 56.7529 4.882 56.6476 7.57733C56.5478 10.1318 54.422 12.1793 51.7709 12.2757C50.6825 12.2996 49.6201 11.9551 48.7683 11.2997V15.9222H46.0901L46.0684 2.77492ZM51.3542 4.79533C49.9174 4.79533 48.7476 5.75733 48.7476 6.80275V7.97166C48.7476 9.08533 49.9033 10.0062 51.3683 10.0062C52.8626 10.0798 54.1355 8.97375 54.2125 7.53508C54.2896 6.09642 53.1415 4.87008 51.6472 4.79533C51.555 4.791 51.4616 4.791 51.3683 4.79533H51.3542Z" fill="black"/>
<path d="M61.7905 6.48421C63.5507 6.25563 64.0748 6.01296 64.0748 5.54279C64.0748 4.93396 63.4074 4.56671 62.3722 4.56671C61.2577 4.47896 60.2431 5.18746 59.9805 6.23504L57.4531 5.72913C57.8123 3.84738 59.8231 2.50513 62.3006 2.50513C65.1024 2.50513 66.8398 3.88854 66.8398 6.13104V12.006H64.434V10.9822H64.3982C63.5821 11.8673 62.3852 12.3375 61.159 12.2551C59.0396 12.2551 57.5671 11.1404 57.5671 9.48721C57.5671 7.83296 58.7738 6.88504 61.7905 6.48421ZM64.2907 7.45921H64.2549C64.0173 7.79179 63.5366 7.98571 62.2072 8.20671C60.6348 8.49054 60.0532 8.78846 60.0532 9.32796C60.0532 9.86746 60.5198 10.1307 61.5323 10.1307C63.0765 10.1307 64.269 9.43846 64.269 8.55988L64.2907 7.45921Z" fill="black"/>
<path d="M71.6886 11.4871L67.2568 2.7749H70.2096L73.1178 8.80907H73.1612L76.0336 2.7749H79.0005L72.3636 15.9222H69.412L71.6886 11.4871Z" fill="black"/>
</svg>
