<svg width="38" height="38" viewBox="0 0 38 38" fill="none" xmlns="http://www.w3.org/2000/svg">
<mask id="mask0_293_189" style="mask-type:alpha" maskUnits="userSpaceOnUse" x="0" y="0" width="38" height="38">
<path d="M0 0.131104H37.8692V37.8697H0V0.131104Z" fill="white"/>
</mask>
<g mask="url(#mask0_293_189)">
<path fill-rule="evenodd" clip-rule="evenodd" d="M34.3136 37.8697H3.55556C1.60008 37.8697 0 36.2753 0 34.3264V3.67441C0 1.72566 1.60008 0.131104 3.55556 0.131104H34.3136C36.2692 0.131104 37.8692 1.72566 37.8692 3.67441V34.3264C37.8692 36.2753 36.2692 37.8697 34.3136 37.8697Z" fill="#E82529"/>
</g>
<path fill-rule="evenodd" clip-rule="evenodd" d="M8.17025 7.2373H9.9644C10.101 7.2373 10.2059 7.35799 10.1865 7.49269L9.35325 13.253C9.32116 13.4747 9.49381 13.6732 9.71852 13.6732H12.8659C12.9554 13.6732 13.0239 13.7523 13.0108 13.8404L12.7667 15.4948C12.754 15.5808 12.68 15.6446 12.5927 15.6446H9.03386C7.97525 15.6446 6.96004 14.7794 7.10941 13.7349L7.9479 7.4315C7.96263 7.32038 8.0577 7.2373 8.17025 7.2373Z" fill="#FEFEFE"/>
<path fill-rule="evenodd" clip-rule="evenodd" d="M14.1529 9.53583L13.3316 15.4104C13.3186 15.5035 13.3912 15.5867 13.4856 15.5867H15.2217C15.3452 15.5867 15.4499 15.4961 15.467 15.3742L16.2802 9.59519C16.2976 9.46206 16.1936 9.34399 16.0588 9.34399H14.374C14.2625 9.34399 14.1682 9.42589 14.1529 9.53583Z" fill="#FEFEFE"/>
<path fill-rule="evenodd" clip-rule="evenodd" d="M17.7342 15.1363C17.1985 15.1171 16.9479 15.2844 16.6318 15.4723C16.7081 14.9427 17.3062 10.8152 17.3608 10.5617C17.4185 10.2913 17.471 9.84031 17.7095 9.61284C17.9891 9.34579 18.4218 9.193 20.5748 9.18606C22.7724 9.17898 23.1982 10.7552 23.0816 11.7794C22.9822 12.656 22.6552 14.8219 22.5629 15.427C22.5488 15.519 22.4699 15.5867 22.3769 15.5867H20.6793C20.5549 15.5867 20.4593 15.4774 20.4767 15.3548C20.5625 14.7497 20.7928 13.1365 20.8709 12.668C20.9678 12.0886 21.0454 11.451 20.8902 11.1993C20.735 10.9481 20.2696 10.7552 19.3777 10.9098L18.718 15.558C18.718 15.558 18.2936 15.1565 17.7342 15.1363Z" fill="#FEFEFE"/>
<path fill-rule="evenodd" clip-rule="evenodd" d="M24.9228 6.90356H26.806C26.8761 6.90356 26.93 6.96528 26.9204 7.03447L25.7485 15.4941C25.7399 15.5568 25.686 15.6036 25.6223 15.6036H23.7631C23.6858 15.6036 23.6263 15.5356 23.637 15.4593L24.8084 7.00302C24.8163 6.94602 24.8651 6.90356 24.9228 6.90356Z" fill="#FEFEFE"/>
<path fill-rule="evenodd" clip-rule="evenodd" d="M26.3799 12.0006L28.5081 9.51686C28.5752 9.43863 28.6733 9.39355 28.7766 9.39355H30.645C30.7799 9.39355 30.8509 9.55276 30.7607 9.65248L28.5845 12.0592L30.5738 16.3228C30.6468 16.4792 30.5321 16.6582 30.3591 16.6582H28.6704C28.5822 16.6582 28.5021 16.607 28.4653 16.5272L26.3799 12.0006Z" fill="#FEFEFE"/>
<path fill-rule="evenodd" clip-rule="evenodd" d="M16.6444 7.75321C16.4921 8.39332 15.9137 8.86963 15.3081 8.86963C14.7026 8.86963 14.2381 8.35073 14.3905 7.71076C14.5428 7.07065 15.0442 6.55176 15.7627 6.55176C16.3682 6.55176 16.7966 7.11311 16.6444 7.75321Z" fill="#FEFEFE"/>
<path fill-rule="evenodd" clip-rule="evenodd" d="M18.5584 17.084C18.4062 17.7241 17.8278 18.2004 17.2221 18.2004C16.6166 18.2004 16.1522 17.6815 16.3046 17.0416C16.4569 16.4015 16.9582 15.8826 17.6768 15.8826C18.2823 15.8826 18.7107 16.4439 18.5584 17.084Z" fill="#FEFEFE"/>
<path fill-rule="evenodd" clip-rule="evenodd" d="M27.6681 24.7335C27.5397 25.366 26.9553 25.8365 26.3186 25.8361C25.6818 25.8359 25.1678 25.3227 25.2961 24.6904C25.4245 24.0579 25.9258 23.5453 26.6814 23.5457C27.318 23.546 27.7964 24.101 27.6681 24.7335Z" fill="#FEFEFE"/>
<path fill-rule="evenodd" clip-rule="evenodd" d="M11.6385 21.5831H10.4984C10.456 21.5831 10.427 21.5407 10.4425 21.5013L11.4347 18.9915C11.4536 18.9437 11.5244 18.9539 11.529 19.005L11.752 21.4593C11.758 21.5257 11.7056 21.5831 11.6385 21.5831ZM14.4005 24.7349L13.1283 17.1459C13.0726 16.8141 12.7844 16.571 12.4469 16.571H11.1703C10.7809 16.571 10.4275 16.7976 10.2663 17.1507L6.83906 24.7443C6.78936 24.8545 6.87062 24.9789 6.99172 24.9782L8.77246 24.9679C8.89435 24.9672 9.00401 24.8944 9.05161 24.7827L9.64356 23.3949C9.65961 23.3571 9.69682 23.3326 9.7381 23.3326H11.8932C11.9461 23.3326 11.9904 23.3725 11.9955 23.4249L12.1241 24.7382C12.1389 24.891 12.2679 25.0076 12.422 25.0076H14.1687C14.314 25.0076 14.4245 24.8776 14.4005 24.7349Z" fill="#FEFEFE"/>
<path fill-rule="evenodd" clip-rule="evenodd" d="M13.5505 26.1094L13.9618 27.3756C14.0357 27.584 14.0914 27.6302 14.2359 27.5998C14.7554 27.4907 16.0107 27.121 16.6249 26.293C17.4256 25.2136 17.5353 23.3052 17.6767 22.3353C17.7931 21.5363 18.0479 19.5698 18.1341 18.9014C18.1497 18.7811 18.0556 18.6748 17.9339 18.6748H16.3375C16.1964 18.6748 16.0771 18.7786 16.0582 18.9179C15.9295 19.862 15.4659 23.257 15.3849 23.7275C15.2907 24.2751 15.2719 25.0638 14.4591 25.5346C14.0534 25.7694 13.8454 25.8142 13.6849 25.8889C13.6032 25.9269 13.5109 25.9677 13.5505 26.1094Z" fill="#FEFEFE"/>
<path fill-rule="evenodd" clip-rule="evenodd" d="M22.336 23.1862C22.336 23.1862 21.5036 23.4683 21.104 23.1696C20.7043 22.8709 20.671 22.257 20.9041 21.3777C21.1373 20.4982 21.72 20.3489 21.9697 20.3323C22.2195 20.3156 22.6891 20.4334 22.6891 20.4334L22.336 23.1862ZM24.6411 18.902C24.1028 18.7678 23.1978 18.473 21.7429 18.5793C20.4005 18.6773 18.8847 19.296 18.6009 21.9368C18.317 24.5775 19.5284 25.0869 21.2697 25.1623C22.5458 25.2176 23.5473 24.8678 23.9915 24.6768C24.1461 24.6104 24.2538 24.468 24.2764 24.3017L24.9198 19.2174C24.945 19.0156 24.8438 18.9525 24.6411 18.902Z" fill="#FEFEFE"/>
<path fill-rule="evenodd" clip-rule="evenodd" d="M25.8828 22.7037L26.3513 17.8352C26.3681 17.6608 26.515 17.5896 26.6908 17.5896H28.3069C28.4575 17.5896 28.5212 17.7035 28.4797 17.8899L27.4933 22.7651C27.4733 22.8594 27.3899 22.9269 27.2931 22.9269H26.0862C25.9656 22.9269 25.8712 22.8234 25.8828 22.7037Z" fill="#FEFEFE"/>
<path fill-rule="evenodd" clip-rule="evenodd" d="M6.9711 31.6813C7.29114 31.8575 7.66496 31.9087 8.02077 31.8248C9.43807 31.4901 12.5746 30.5892 19.2093 29.6335C27.5449 28.4327 33.6993 28.4376 33.6993 28.4376L33.7155 28.4278C33.7155 28.4278 28.2606 27.6809 19.308 28.5523C10.3552 29.4237 5.3584 30.7931 5.3584 30.7931L6.9711 31.6813Z" fill="#FEFEFE"/>
</svg>
