<svg width="112" height="30" viewBox="0 0 112 30" fill="none" xmlns="http://www.w3.org/2000/svg">
<path fill-rule="evenodd" clip-rule="evenodd" d="M2.02584 0.0488209C1.90975 0.0716247 1.75664 0.13589 1.68615 0.191271C1.61537 0.246948 1.51824 0.29226 1.47026 0.29226C1.42228 0.29226 1.2899 0.370148 1.17618 0.465214C1.06245 0.559983 0.938069 0.637871 0.899865 0.637871C0.861662 0.637871 0.830565 0.667191 0.830565 0.702729C0.830565 0.738564 0.752677 0.836591 0.657907 0.920698C0.562842 1.00481 0.484954 1.1055 0.484954 1.14459C0.484954 1.18368 0.420984 1.2826 0.342503 1.36463C0.237665 1.47451 0.190577 1.58438 0.164515 1.77925C0.145265 1.92525 0.0981764 2.11153 0.0602687 2.19357C0.001334 2.32032 -0.00695836 4.2397 0.0042955 15.0763L0.0176225 27.81L0.143488 28.1414C0.212788 28.3238 0.304596 28.5128 0.347538 28.5611C0.390777 28.6096 0.461557 28.7269 0.505092 28.822C0.622073 29.0761 0.820496 29.3313 0.957319 29.4033C1.02336 29.4383 1.07726 29.4963 1.07726 29.5327C1.07726 29.5692 1.17825 29.6269 1.30175 29.6616C1.42524 29.6962 1.58132 29.7679 1.64884 29.8209C1.86799 29.9933 2.52309 30.003 13.7378 29.9995C26.8071 29.9953 28.1235 29.9799 28.3729 29.8256C28.468 29.7667 28.6311 29.7027 28.736 29.6835C29.0194 29.6308 29.7932 28.8682 29.8587 28.577C29.8842 28.4636 29.9547 28.304 30.0151 28.222L30.1252 28.0733V14.9768V1.88024L30.0106 1.72505C29.9475 1.63976 29.883 1.49109 29.8673 1.39455C29.8276 1.14903 29.0609 0.371333 28.7851 0.296998C28.6806 0.268567 28.5506 0.214371 28.4964 0.176463C28.4419 0.138556 28.2799 0.0825826 28.136 0.0520788C27.8212 -0.0151482 2.36583 -0.0184061 2.02584 0.0488209ZM13.0899 5.0094C13.3469 5.22885 13.6111 5.81109 13.4932 5.89846C13.4538 5.92778 13.3999 6.04713 13.3739 6.16381C13.2643 6.65039 12.8612 6.90656 12.2047 6.90656H11.7276L11.5348 6.69659C11.1945 6.32581 11.1829 6.07852 11.4809 5.53507C11.8742 4.81838 12.5908 4.58412 13.0899 5.0094ZM21.3526 5.1329C21.6792 5.24692 21.7645 6.16263 21.5039 6.75849C21.2504 7.33806 21.2788 8.9056 21.5356 8.50135C21.5839 8.42495 21.6783 8.30708 21.745 8.23926C21.8119 8.17144 22.0201 7.95288 22.2076 7.75386C22.451 7.49591 22.602 7.37745 22.7338 7.34162C22.8354 7.31407 22.9571 7.25721 23.0042 7.21545C23.163 7.07448 24.2309 7.03154 24.4764 7.15681C24.8318 7.33776 24.7711 7.55366 24.1879 8.17825C23.8056 8.58783 23.8293 8.56325 23.5604 8.82712C23.4384 8.94707 23.3383 9.07352 23.3383 9.10817C23.3383 9.14312 23.2968 9.20028 23.2462 9.23582C23.0966 9.34065 23.07 9.58024 23.1905 9.73365C23.2468 9.80532 23.3264 9.97679 23.3673 10.1139C23.4082 10.2513 23.4961 10.4441 23.5628 10.5424C23.6294 10.6405 23.6839 10.7592 23.6839 10.806C23.6839 10.8528 23.7301 10.9503 23.7867 11.0219C23.8432 11.0939 23.9122 11.2357 23.9398 11.3373C23.9673 11.4386 24.0191 11.5547 24.055 11.5956C24.0908 11.6361 24.1681 11.7919 24.2267 11.9412C24.2854 12.0904 24.3668 12.2498 24.4077 12.2954C24.5306 12.4319 24.5531 12.9312 24.442 13.0583C24.349 13.1649 23.818 13.323 23.5533 13.323C23.0395 13.323 22.4791 13.0124 22.3722 12.6682C22.3536 12.6075 22.2976 12.5003 22.2478 12.4295C22.1981 12.3591 22.1332 12.1929 22.1033 12.0605C22.0737 11.9282 22.0091 11.7824 21.9597 11.7362C21.9102 11.6903 21.8551 11.5535 21.8368 11.4324C21.8187 11.311 21.7604 11.1727 21.7071 11.1244C21.6537 11.0764 21.5862 10.9461 21.5566 10.835C21.5273 10.724 21.4627 10.5886 21.4133 10.5345C21.3638 10.48 21.2975 10.3381 21.2658 10.219C21.1681 9.85122 21.0875 10.0511 21.02 10.8294C20.9868 11.2091 20.9311 11.5754 20.8962 11.6438C20.8612 11.7123 20.8168 11.8636 20.7976 11.98C20.7451 12.2948 20.6202 12.3558 19.984 12.3777C19.3017 12.4008 19.0606 12.3386 18.967 12.1144C18.9288 12.0226 18.8749 11.9338 18.8474 11.9169C18.7796 11.8751 18.7837 11.6142 18.8542 11.4824C18.8856 11.4238 18.9416 10.9236 18.9786 10.371C19.0248 9.68153 19.0695 9.32022 19.121 9.22071C19.1622 9.14075 19.2066 8.92604 19.2197 8.74361C19.3094 7.48969 19.36 7.04783 19.4436 6.79521C19.4986 6.62877 19.5377 6.37319 19.5377 6.17803C19.5377 5.80221 19.5934 5.56025 19.7059 5.44771C19.748 5.40595 19.8105 5.33191 19.8451 5.28364C19.8795 5.23537 19.9523 5.17051 20.0065 5.13971C20.133 5.06745 21.15 5.06241 21.3526 5.1329ZM7.94359 5.47881C8.12632 5.60911 8.23442 5.81672 8.23442 6.03765C8.23442 6.33084 8.08782 7.36323 8.0126 7.59749C7.9735 7.71951 7.91783 8.08615 7.8891 8.41192C7.83875 8.97579 7.81921 9.09574 7.69186 9.62674C7.66165 9.75172 7.64359 9.99604 7.65188 10.1696L7.66669 10.485L8.90965 10.5096C10.3439 10.538 10.367 10.5451 10.5101 10.9831L10.5888 11.2254L10.6196 11.0278C10.6365 10.9195 10.6756 10.4862 10.707 10.0653C10.7428 9.57995 10.7911 9.24677 10.8388 9.15349C10.8856 9.06168 10.9309 8.75723 10.9593 8.34291C10.9878 7.92741 11.0319 7.63185 11.0772 7.55218C11.3559 7.06234 11.3417 7.06945 12.0844 7.06086C13.0247 7.0502 13.0925 7.10143 13.0792 7.81102C13.0656 8.53926 12.9764 9.23878 12.8843 9.34095C12.8242 9.40729 12.794 9.58024 12.7671 10.0073C12.722 10.7302 12.6554 11.2058 12.5565 11.5171C12.5141 11.6504 12.4792 11.8286 12.4792 11.9133C12.4792 12.2812 12.2432 12.3845 11.4024 12.3851C10.7941 12.3854 10.7159 12.3614 10.4941 12.1091C10.3134 11.9033 10.2865 11.9015 10.2077 12.0916C10.0809 12.3976 10.0019 12.4109 8.3514 12.4023C6.68612 12.3937 6.37812 12.3564 6.12254 12.1325C6.0334 12.0543 5.94041 11.9903 5.91612 11.9903C5.89184 11.9903 5.85867 11.9486 5.84238 11.8974C5.82609 11.8458 5.75916 11.7463 5.69401 11.6758C5.47574 11.4407 5.46952 9.53493 5.68571 9.20502C5.75709 9.09633 5.78256 8.88991 5.82224 8.09977C5.85808 7.39137 5.89243 7.0884 5.9487 6.9806C5.9946 6.89294 6.04169 6.61841 6.0639 6.30804C6.12758 5.42579 6.18088 5.379 7.11614 5.37752C7.73007 5.37634 7.81417 5.3867 7.94359 5.47881ZM71.784 6.85503C70.377 6.8882 70.3903 6.8811 70.2796 7.67153C70.2532 7.86166 70.1878 8.12998 70.1348 8.26828C70.0818 8.40629 70.0225 8.7134 70.0033 8.95032C69.9819 9.2139 69.9322 9.45171 69.8753 9.56307C69.8194 9.67235 69.7622 9.94125 69.732 10.2383C69.6973 10.5795 69.6467 10.8004 69.5679 10.9538C69.4832 11.1191 69.4465 11.2941 69.4252 11.6364C69.4041 11.9684 69.3665 12.1538 69.2901 12.3001C69.2125 12.4494 69.1737 12.6448 69.1447 13.0367C69.1175 13.4077 69.079 13.61 69.0191 13.7015C68.9635 13.7865 68.9084 14.0436 68.864 14.4259C68.8192 14.813 68.7636 15.0715 68.7037 15.1704C68.6404 15.2756 68.5956 15.5021 68.5583 15.9094C68.5225 16.297 68.479 16.5242 68.4301 16.5781C68.3851 16.6281 68.3356 16.8499 68.3033 17.1508C68.2429 17.7094 68.2305 17.7648 68.1064 18.0369C68.0534 18.153 68.0025 18.4222 67.9823 18.6908C67.9607 18.9802 67.9145 19.2132 67.8562 19.3282C67.8008 19.4365 67.7415 19.7182 67.7084 20.0318C67.6764 20.3336 67.6157 20.6271 67.5647 20.7269C67.4753 20.9019 67.3666 21.5733 67.3666 21.9494C67.3666 22.2568 67.385 22.2607 68.858 22.2456L70.1552 22.2325L70.2085 21.9115C70.2375 21.735 70.3098 21.4519 70.3687 21.2822C70.428 21.1122 70.4762 20.8637 70.4762 20.7299C70.4762 20.4488 70.5976 19.8852 70.7013 19.6847C70.7404 19.6092 70.7724 19.4798 70.7724 19.3975C70.7724 18.9772 71.7609 17.6667 72.0778 17.6667C72.1125 17.6667 72.2013 17.6193 72.2751 17.5613C72.4951 17.388 72.7619 17.4956 72.8653 17.7991C72.9085 17.9253 72.9787 18.0674 73.0217 18.1148C73.0643 18.1622 73.1164 18.3257 73.1372 18.4785C73.1588 18.6378 73.2216 18.8191 73.2844 18.9044C73.3448 18.9858 73.4144 19.1774 73.4392 19.3299C73.4641 19.4827 73.5275 19.6536 73.5802 19.7105C73.6329 19.7673 73.6996 19.9415 73.728 20.0973C73.7564 20.2533 73.8245 20.442 73.8796 20.5169C73.9344 20.5918 74.0016 20.7713 74.0289 20.9158C74.0561 21.0607 74.121 21.2333 74.1734 21.2999C74.2258 21.3666 74.2836 21.5147 74.3019 21.6293C74.3369 21.8475 74.5318 22.1813 74.6511 22.2272C74.7571 22.2678 81.245 22.2598 81.3925 22.2186C81.529 22.1807 81.8435 21.8058 81.903 21.6097C81.9226 21.5452 81.9788 21.4477 82.0277 21.3932C82.0769 21.339 82.1548 21.1996 82.201 21.0835C82.2472 20.9674 82.3239 20.8513 82.3718 20.8255C82.4198 20.8 82.4737 20.6993 82.4921 20.6022C82.5104 20.5048 82.5682 20.3884 82.6209 20.3431C82.6736 20.2981 82.7417 20.1829 82.7722 20.0869C82.803 19.9909 82.8676 19.868 82.9159 19.8138C82.9639 19.7596 83.0444 19.635 83.0948 19.5369C83.4984 18.7486 83.2576 18.8019 86.4191 18.8019C89.617 18.8019 89.4173 18.7578 89.5026 19.486C89.5195 19.6317 89.5693 19.8053 89.6131 19.8722C89.6717 19.9613 89.7052 20.2042 89.7405 20.7909C89.7849 21.5309 89.7994 21.6112 89.9424 21.9103L90.0964 22.2325H91.6364C93.3858 22.2325 93.3221 22.2476 93.1895 21.8591C93.1391 21.7116 93.084 21.3796 93.0675 21.122C93.0509 20.864 92.991 20.5086 92.9342 20.3321C92.8776 20.1556 92.8193 19.8337 92.8045 19.6163C92.7897 19.3992 92.7242 19.0018 92.6588 18.7329C92.5933 18.4643 92.5385 18.1424 92.537 18.0174C92.5344 17.7846 92.4556 17.3282 92.3274 16.8028C92.2877 16.64 92.2409 16.3225 92.2234 16.0974C92.2056 15.872 92.16 15.5945 92.1212 15.4802C92.0291 15.2075 91.948 14.6936 91.9477 14.3803C91.9474 14.242 91.9053 13.9977 91.8544 13.8372C91.7176 13.408 91.7043 13.3334 91.6533 12.7061C91.6276 12.3913 91.5734 12.067 91.5328 11.9859C91.449 11.818 91.4199 11.6385 91.3577 10.9046C91.3335 10.618 91.2793 10.3186 91.2366 10.235C91.1925 10.1489 91.1377 9.83375 91.1084 9.49999C91.0509 8.84548 91.0329 8.74242 90.926 8.46137C90.8845 8.35268 90.8318 8.03254 90.809 7.75001C90.729 6.76737 90.8149 6.80439 88.7066 6.85029L87.2676 6.88169L87.097 7.05731C87.0034 7.15356 86.8997 7.31466 86.8666 7.41476C86.8337 7.51486 86.7792 7.61348 86.7457 7.63422C86.7123 7.65465 86.6403 7.76038 86.5858 7.86907C86.3832 8.27272 86.2032 8.56177 86.1149 8.62455C86.064 8.66068 86.0243 8.74924 86.0243 8.82653C86.0243 8.90412 85.9787 9.00511 85.9198 9.05842C85.8623 9.10995 85.7613 9.26336 85.695 9.399C85.5043 9.7911 85.3941 9.98568 85.3183 10.0653C85.2795 10.1062 85.2214 10.2208 85.1895 10.3203C85.1572 10.4195 85.0988 10.5134 85.0594 10.5285C85.0201 10.5436 84.9312 10.6731 84.8622 10.8167C84.7932 10.96 84.6765 11.1804 84.6031 11.3065C84.5296 11.4327 84.4073 11.6504 84.3318 11.7901C84.256 11.9299 84.1639 12.0558 84.1274 12.07C84.0907 12.0839 84.0484 12.1586 84.033 12.2356C84.0176 12.3126 83.9498 12.4349 83.8825 12.5077C83.815 12.5803 83.746 12.7032 83.7288 12.7808C83.7119 12.8581 83.6643 12.9493 83.6234 12.9833C83.5822 13.0177 83.4943 13.1525 83.4282 13.2831C83.3619 13.4137 83.2896 13.5206 83.2671 13.5206C83.2446 13.5206 83.1999 13.6091 83.1676 13.7172C83.135 13.8253 83.0702 13.9343 83.0231 13.9595C82.976 13.9846 82.907 14.0907 82.8694 14.1949C82.8318 14.2992 82.7488 14.4532 82.6852 14.537C82.6212 14.6211 82.5691 14.712 82.5691 14.7392C82.5691 14.7665 82.5244 14.829 82.4699 14.8784C82.4154 14.9276 82.3446 15.0555 82.3126 15.1625C82.2803 15.2697 82.2235 15.3689 82.1859 15.3834C82.1485 15.3976 82.0627 15.5232 81.9954 15.6621C81.8056 16.0536 81.6925 16.2502 81.5876 16.3708C81.5346 16.4318 81.4763 16.549 81.4582 16.6317C81.4401 16.714 81.3729 16.8159 81.3092 16.8576C81.2456 16.8994 81.1783 17.0042 81.1603 17.0904C81.1419 17.1766 81.0871 17.2915 81.0383 17.346C80.9897 17.4002 80.9136 17.5222 80.8692 17.6173C80.7563 17.8592 80.5345 18.2327 80.4394 18.3408C80.3956 18.3908 80.3429 18.4874 80.3225 18.5552C80.302 18.623 80.2215 18.7515 80.1439 18.8407C80.066 18.9298 80.0023 19.0438 80.0023 19.0939C80.0023 19.1439 79.968 19.2132 79.9259 19.2482C79.8839 19.2831 79.8051 19.409 79.7509 19.5284C79.6967 19.6474 79.6212 19.7567 79.5836 19.7712C79.5456 19.7854 79.5006 19.8627 79.4829 19.9427C79.4654 20.0223 79.3958 20.1535 79.328 20.2341C79.2148 20.3685 79.1168 20.5368 78.863 21.031C78.8121 21.1303 78.7508 21.2191 78.7271 21.2286C78.7031 21.2378 78.6356 21.3453 78.5769 21.4673C78.3353 21.971 78.2343 22.0658 77.9568 22.0495L77.7071 22.035L77.6174 21.7643C77.5682 21.6156 77.5084 21.4818 77.4847 21.4673C77.424 21.4297 77.3369 21.1856 77.3369 21.0524C77.3369 20.9905 77.2922 20.899 77.2371 20.8492C77.1823 20.7997 77.1015 20.6351 77.0577 20.4837C77.0138 20.3324 76.9386 20.158 76.8903 20.0961C76.8418 20.0342 76.7864 19.89 76.7671 19.7753C76.7479 19.6607 76.6795 19.5044 76.6152 19.4277C76.5486 19.3483 76.4979 19.2236 76.4979 19.1395C76.4979 19.0557 76.4354 18.9014 76.3546 18.7853C76.2758 18.6725 76.1964 18.4909 76.1781 18.3825C76.1594 18.2738 76.1008 18.1382 76.0478 18.081C75.9945 18.0239 75.9373 17.8906 75.9204 17.7849C75.9032 17.6792 75.8387 17.5148 75.7765 17.42C75.7146 17.325 75.6423 17.1511 75.6163 17.0338C75.5902 16.9166 75.5322 16.78 75.4875 16.7303C75.4424 16.6808 75.3752 16.5245 75.3379 16.3835C75.3009 16.2422 75.2331 16.0856 75.1874 16.0352C75.1359 15.9781 75.0953 15.8235 75.0791 15.6221L75.0533 15.3002L75.3189 15.0526C75.4652 14.9163 75.6272 14.7911 75.6794 14.7739C75.7312 14.7567 75.8277 14.6788 75.8935 14.6006C75.9592 14.5225 76.0324 14.4585 76.0558 14.4585C76.0795 14.4585 76.1541 14.4084 76.2219 14.3474C76.2897 14.2861 76.4215 14.1697 76.5148 14.0883C76.6078 14.0069 76.8252 13.8135 76.9981 13.6586C77.6177 13.1036 77.708 13.0293 77.7631 13.0281C77.7942 13.0275 77.8558 12.9715 77.9002 12.9037C77.9446 12.8359 78.0113 12.7802 78.0483 12.7802C78.0853 12.7802 78.1519 12.7248 78.1964 12.6567C78.2408 12.5889 78.3006 12.5335 78.3293 12.5335C78.3581 12.5335 78.5127 12.4056 78.6726 12.2495C78.8328 12.0934 79.0366 11.9062 79.1254 11.8337C79.214 11.7608 79.3757 11.6258 79.484 11.5334C79.5927 11.441 79.7242 11.3498 79.7764 11.3308C80.1018 11.2118 79.7097 11.1756 77.9482 11.162L76.1455 11.1478L75.865 11.4164C74.1044 13.1042 73.8624 13.3331 73.5654 13.5946C73.3569 13.7782 72.5845 14.5032 72.302 14.781C72.1024 14.9768 71.6608 14.9246 71.6608 14.7052C71.6608 14.6531 71.705 14.4979 71.7589 14.3608C71.8131 14.2236 71.8782 13.9287 71.904 13.7051C71.9295 13.4815 71.9964 13.1954 72.0524 13.0695C72.1083 12.9434 72.1744 12.6434 72.1995 12.3999C72.2274 12.131 72.2845 11.8837 72.3458 11.765C72.4116 11.6385 72.4581 11.425 72.4788 11.1513C72.5004 10.8697 72.549 10.6505 72.6263 10.485C72.7033 10.32 72.7563 10.0813 72.7859 9.76504C72.8185 9.42032 72.8582 9.2527 72.9316 9.14786C73.0101 9.0368 73.0391 8.89731 73.0608 8.53097C73.0877 8.07252 73.1161 7.95643 73.2663 7.69611C73.3554 7.54152 73.3634 6.98741 73.2773 6.91811C73.1748 6.83578 72.9687 6.8269 71.784 6.85503ZM39.0528 6.93292C38.8757 7.01051 38.8482 7.08811 38.786 7.68871C38.762 7.92 38.7078 8.15485 38.6625 8.22415C38.6112 8.30234 38.5633 8.54193 38.5322 8.87362C38.502 9.1982 38.4469 9.47629 38.3882 9.60097C38.3328 9.71795 38.2745 9.99752 38.2487 10.2673C38.2242 10.5226 38.167 10.8318 38.1217 10.9538C38.0269 11.2082 37.9778 11.4516 37.9052 12.0262C37.8771 12.2492 37.822 12.4826 37.7829 12.5444C37.7441 12.606 37.6979 12.8122 37.6804 13.0023C37.6443 13.3991 37.5596 13.8176 37.5001 13.8934C37.4776 13.9219 37.4349 14.1105 37.4056 14.3128C37.3215 14.89 37.2507 15.2181 37.1965 15.2854C37.169 15.3194 37.1275 15.5353 37.1041 15.7654C37.0807 15.9955 37.0164 16.3121 36.9614 16.4688C36.9063 16.6255 36.8402 16.9314 36.8148 17.1485C36.7893 17.3655 36.7233 17.6691 36.6685 17.8231C36.6134 17.9771 36.5467 18.2952 36.5198 18.53C36.4931 18.7652 36.436 19.0279 36.3927 19.114C36.3498 19.2002 36.2846 19.4952 36.2485 19.7697C36.2124 20.044 36.1552 20.32 36.1215 20.3833C36.0276 20.5584 35.9287 21.0189 35.9254 21.2946C35.9239 21.4303 35.8786 21.6382 35.825 21.7566C35.6823 22.0711 35.6959 22.1872 35.8828 22.2524C36.0513 22.311 42.8898 22.3184 45.1779 22.2624L46.4102 22.2325L46.5434 22.0335C46.661 21.8588 46.6811 21.7691 46.7102 21.2931C46.7353 20.8788 46.7703 20.6937 46.8582 20.5048C47.0872 20.0146 47.051 19.5784 46.7771 19.5236C46.6924 19.5067 45.1136 19.4931 43.2686 19.4931C39.4168 19.4931 39.6267 19.5162 39.6267 19.0903C39.6267 18.9544 39.6649 18.7889 39.7186 18.6938C39.7748 18.5934 39.832 18.3328 39.8669 18.0168C39.9001 17.7162 39.9638 17.4194 40.0206 17.3013C40.0805 17.176 40.1352 16.9083 40.1643 16.5973C40.1915 16.3047 40.2427 16.0477 40.2866 15.9804C40.328 15.9171 40.3751 15.7651 40.3911 15.6431C40.477 14.9824 40.5371 14.6661 40.6011 14.5388C40.6402 14.4606 40.7044 14.1499 40.7441 13.8478C40.7835 13.546 40.8466 13.252 40.8842 13.1948C40.9218 13.1373 40.9763 12.8764 41.0056 12.6146C41.0347 12.3528 41.0924 12.0442 41.1339 11.9287C41.1753 11.8135 41.2429 11.5192 41.2837 11.2748C41.3249 11.0305 41.4129 10.6574 41.4798 10.4453C41.5464 10.2336 41.6012 9.9611 41.6012 9.83967C41.6012 9.71825 41.6459 9.49169 41.7007 9.33621C41.7552 9.18073 41.8207 8.87362 41.8455 8.65387C41.8707 8.43413 41.9359 8.12731 41.9904 7.97213C42.121 7.59986 42.1781 7.03184 42.0949 6.93144C42.0081 6.8269 39.2915 6.82808 39.0528 6.93292ZM52.0652 6.89383C51.6977 6.91426 51.4599 7.08337 51.4036 7.36383C51.387 7.44764 51.3201 7.62859 51.2549 7.7666C51.1676 7.95169 51.1276 8.14567 51.1018 8.51053C51.0509 9.23552 50.9848 9.20176 52.4553 9.20176C53.8264 9.20176 53.8475 9.19554 53.9363 8.78152C53.9659 8.64321 54.0213 8.47055 54.0589 8.39711C54.1803 8.16226 54.3024 7.05405 54.2165 6.96816C54.1262 6.87784 53.036 6.84023 52.0652 6.89383ZM97.803 6.94506C97.7896 6.96639 97.7639 7.1275 97.7455 7.30311C97.7268 7.47844 97.6614 7.73313 97.6001 7.86907C97.4633 8.17173 97.394 8.95358 97.4861 9.15585L97.545 9.28498L98.764 9.26454C100.101 9.24233 100.207 9.21953 100.267 8.94203C100.283 8.8677 100.339 8.68467 100.39 8.53541C100.442 8.38585 100.508 8.11102 100.537 7.92445C100.565 7.73787 100.621 7.50746 100.661 7.4124C100.77 7.15148 100.756 6.9732 100.622 6.93766C100.456 6.89324 97.8308 6.90035 97.803 6.94506ZM17.621 7.18465C17.6844 7.2424 17.8064 7.32533 17.8923 7.36857C18.2557 7.55248 18.489 7.97716 18.5231 8.51794C18.5841 9.48666 18.4864 10.936 18.3365 11.2855C18.2512 11.4842 18.205 11.6812 18.205 11.844C18.205 12.3238 18.0439 12.4109 17.1596 12.4085C16.4936 12.4067 16.4246 12.3733 16.333 12.009C16.2623 11.7288 16.3413 10.5193 16.479 9.76919C16.58 9.21805 16.5703 9.09129 16.4074 8.85615C16.1518 8.48773 15.6383 8.54459 15.6383 8.94114C15.6383 9.00511 15.6027 9.18991 15.5589 9.35161C15.465 9.70048 15.4043 10.1678 15.3463 10.987C15.3211 11.3468 15.2737 11.6483 15.2284 11.7392C15.1866 11.8224 15.1378 11.9584 15.1197 12.041C15.0593 12.3167 14.4545 12.4343 14.3888 12.1831C14.3521 12.0434 13.8474 12.0466 13.7266 12.1879C13.6404 12.2886 13.4429 12.317 13.3297 12.2453C13.2089 12.1686 13.1743 11.895 13.2205 11.382C13.2453 11.106 13.2664 10.7352 13.2673 10.5584C13.2684 10.3263 13.2984 10.182 13.3748 10.0402C13.4562 9.88854 13.4941 9.68271 13.5403 9.14194C13.5856 8.61685 13.6235 8.40599 13.6919 8.30293C13.742 8.22712 13.798 8.02543 13.816 7.85485C13.8528 7.50835 14.1172 7.18258 14.4291 7.09995C14.8022 7.00104 17.4987 7.07241 17.621 7.18465ZM88.5236 10.6029C88.5558 10.6674 88.5967 10.9784 88.6151 11.2938C88.6331 11.6092 88.6921 12.0288 88.746 12.2264C88.8147 12.4796 88.8523 12.8199 88.873 13.3787C88.897 14.0211 88.9204 14.2062 88.9962 14.3522C89.0981 14.5485 89.2287 15.9014 89.1686 16.1368C89.1473 16.22 89.0522 16.3053 88.8763 16.3995L88.6157 16.5387L87.0286 16.539C85.3112 16.539 85.2297 16.5277 85.0917 16.2701C85.0127 16.1223 85.058 15.8688 85.1865 15.7405C85.3067 15.62 85.3825 15.4725 85.3825 15.3588C85.3825 15.3073 85.4359 15.2152 85.5013 15.1539C85.5665 15.0926 85.6337 14.9688 85.6506 14.8787C85.6674 14.7887 85.7172 14.6853 85.7607 14.6492C85.8046 14.6128 85.8819 14.486 85.9328 14.3676C85.9834 14.2491 86.0693 14.0957 86.1232 14.027C86.1774 13.9583 86.2216 13.8606 86.2216 13.8102C86.2216 13.7596 86.2615 13.6781 86.3101 13.6296C86.3587 13.581 86.4292 13.4643 86.4662 13.3704C86.5035 13.2765 86.571 13.1554 86.6166 13.1009C86.6619 13.0467 86.7286 12.9244 86.7644 12.8296C86.8002 12.7346 86.8814 12.606 86.9451 12.5439C87.0087 12.4817 87.0608 12.3777 87.0608 12.3132C87.0608 12.2483 87.1168 12.1286 87.1855 12.0472C87.2539 11.9658 87.3354 11.8254 87.3662 11.7351C87.397 11.6447 87.474 11.5082 87.5377 11.4315C87.601 11.3545 87.6532 11.2508 87.6532 11.2008C87.6532 11.1505 87.7056 11.0468 87.7698 10.9701C87.8338 10.8934 87.9019 10.7806 87.9209 10.7198C88.0097 10.4367 88.4033 10.36 88.5236 10.6029ZM105.867 10.9014C105.536 10.9224 105.358 10.9577 105.265 11.0204C105.192 11.0693 104.97 11.1312 104.771 11.1582C104.542 11.1895 104.348 11.2491 104.238 11.3219C104.143 11.385 103.985 11.4505 103.889 11.4673C103.792 11.4842 103.637 11.5532 103.546 11.6207C103.454 11.6883 103.356 11.7436 103.327 11.7439C103.222 11.7445 102.313 12.6872 102.313 12.7956C102.313 12.8308 102.259 12.9318 102.195 13.0198C102.129 13.108 102.062 13.2774 102.044 13.3962C102.026 13.5149 101.966 13.6698 101.911 13.7403C101.789 13.8955 101.768 14.2799 101.875 14.3874C101.964 14.476 102.045 14.4807 103.308 14.4683L104.328 14.4585L104.454 14.3226C104.664 14.0957 104.83 13.8922 104.83 13.8614C104.83 13.8342 105.225 13.4267 105.447 13.2259C105.501 13.1767 105.69 13.0618 105.867 12.9706L106.187 12.8048H106.952H107.718L108.109 13.0023C108.722 13.3121 108.927 13.6331 108.927 14.2855C108.927 14.7659 108.885 14.9033 108.682 15.0884C108.334 15.4053 108.273 15.4399 107.997 15.4728C107.843 15.4912 107.641 15.5528 107.547 15.6096C107.399 15.6994 107.24 15.7207 106.338 15.7725C105.615 15.814 105.243 15.856 105.116 15.9102C105.007 15.9561 104.662 16.0077 104.271 16.0355C103.761 16.0719 103.571 16.1054 103.442 16.1809C103.35 16.2348 103.159 16.2941 103.017 16.3127C102.866 16.3326 102.693 16.3956 102.599 16.4646C102.511 16.5298 102.355 16.6056 102.252 16.6332C102.15 16.6607 102.066 16.7042 102.066 16.7297C102.066 16.7555 101.977 16.8215 101.869 16.8769C101.76 16.9323 101.671 16.9989 101.671 17.0247C101.671 17.0504 101.583 17.1221 101.476 17.1837C101.369 17.2453 101.258 17.346 101.23 17.4073C101.203 17.4686 101.158 17.5187 101.133 17.5187C101.107 17.5187 101.014 17.6297 100.926 17.7653C100.838 17.9013 100.748 18.0123 100.727 18.0123C100.705 18.0123 100.663 18.1065 100.632 18.222C100.602 18.3375 100.519 18.5519 100.448 18.6991C100.326 18.9506 100.319 19.0086 100.32 19.6889L100.322 20.4112L100.503 20.7873C100.602 20.9943 100.684 21.185 100.684 21.2114C100.684 21.2378 100.717 21.2721 100.758 21.2878C100.799 21.3035 100.869 21.3947 100.915 21.4907C100.961 21.5863 101.026 21.6648 101.06 21.6648C101.094 21.6648 101.152 21.706 101.187 21.7563C101.222 21.8067 101.343 21.8946 101.455 21.9518C101.567 22.0089 101.671 22.0877 101.686 22.1271C101.701 22.1662 101.786 22.2142 101.873 22.2334C101.961 22.2527 102.125 22.3178 102.238 22.3779C102.501 22.5177 103.6 22.6332 104.2 22.5838C105.164 22.5047 105.401 22.4671 105.57 22.3667C105.666 22.3104 105.826 22.2494 105.926 22.2308C106.027 22.2124 106.137 22.1647 106.17 22.125C106.203 22.0851 106.318 22.0075 106.426 21.9527C106.533 21.8979 106.678 21.8002 106.748 21.7356C107.081 21.4267 107.435 21.5363 107.488 21.9642C107.531 22.3131 107.577 22.3232 108.976 22.2938C110.397 22.2639 110.248 22.3697 110.268 21.3772C110.283 20.6454 110.297 20.5332 110.392 20.3656C110.469 20.2282 110.507 20.0475 110.533 19.6992C110.559 19.3492 110.599 19.1623 110.682 18.9994C110.762 18.8442 110.81 18.6313 110.842 18.2934C110.878 17.9146 110.91 17.7896 110.986 17.7186C111.064 17.6454 111.089 17.5361 111.114 17.1491C111.138 16.7848 111.171 16.6287 111.251 16.499C111.333 16.3672 111.366 16.2034 111.398 15.7761C111.425 15.4216 111.479 15.1174 111.548 14.9273C111.637 14.6833 111.661 14.4931 111.679 13.8481L111.701 13.0651L111.498 12.6597C111.222 12.1109 110.64 11.5298 110.302 11.4647C110.211 11.4472 110.081 11.3954 110.013 11.3495C109.84 11.2328 109.734 11.1978 109.403 11.1499C109.244 11.1268 109.07 11.0684 109.017 11.0201C108.863 10.8812 107.178 10.8176 105.867 10.9014ZM61.6408 10.9757C61.4213 11.1048 61.2919 11.1513 61.1515 11.1513C60.9679 11.1513 60.7014 11.2437 60.5796 11.3495C60.5254 11.3969 60.3993 11.4614 60.2998 11.4934C60.2003 11.5251 60.0928 11.5822 60.0614 11.6202C60.03 11.6581 59.9281 11.7143 59.8354 11.7448C59.7424 11.7756 59.6666 11.8209 59.6666 11.8458C59.6666 11.8704 59.5467 11.9705 59.3998 12.0676C58.9387 12.3739 58.6923 12.2302 58.9224 11.7893C59.0361 11.5707 59.0562 11.3012 58.9656 11.2106C58.8928 11.1377 56.5801 11.1262 56.3914 11.1978C56.3242 11.2236 56.2531 11.2956 56.2336 11.3584C56.2137 11.4208 56.159 11.5221 56.1113 11.5831C56.0488 11.6631 56.0144 11.8343 55.9887 12.1944C55.9635 12.5498 55.9203 12.768 55.8397 12.9472C55.7636 13.1172 55.7106 13.3695 55.6777 13.7193C55.646 14.0575 55.5948 14.3072 55.5305 14.4348C55.466 14.5639 55.4215 14.7816 55.4014 15.0701C55.3818 15.3493 55.3336 15.5919 55.2687 15.7364C55.211 15.8658 55.1479 16.1555 55.123 16.4081C55.0771 16.8698 55.0291 17.083 54.9296 17.269C54.8973 17.3294 54.8485 17.6045 54.8209 17.8806C54.7934 18.1566 54.7303 18.4717 54.6806 18.5807C54.6311 18.6896 54.5683 18.9796 54.5408 19.2248C54.5135 19.4697 54.4567 19.7582 54.4146 19.8654C54.3728 19.9729 54.3044 20.2924 54.263 20.5756C54.2215 20.8587 54.1418 21.2259 54.0859 21.3915C54.0189 21.5896 53.9896 21.7845 53.9997 21.9624L54.0148 22.2325L55.354 22.2456L56.6932 22.2586L56.838 22.0939C56.9701 21.9432 56.9876 21.8798 57.0388 21.3574C57.0776 20.96 57.1256 20.7278 57.1961 20.5966C57.2571 20.4826 57.2974 20.3152 57.2974 20.1749C57.2974 19.8624 57.3791 19.4623 57.4919 19.2215C57.5453 19.1087 57.606 18.8128 57.6341 18.5306C57.6619 18.2546 57.7212 17.9635 57.7688 17.8699C57.8156 17.7781 57.871 17.5338 57.892 17.327C57.9131 17.1203 57.9673 16.8511 58.0123 16.7288C58.0573 16.6068 58.1275 16.3403 58.1687 16.1365C58.2095 15.933 58.2836 15.6997 58.3336 15.6182C58.3834 15.5368 58.4393 15.3881 58.458 15.288C58.4767 15.1879 58.5451 15.0336 58.6102 14.9454C58.6754 14.8571 58.7287 14.7597 58.7287 14.7292C58.7287 14.6987 58.7932 14.5974 58.8723 14.5044C58.9514 14.4111 59.0681 14.271 59.1315 14.1931C59.3257 13.9541 59.5849 13.722 59.7406 13.647C59.8221 13.6076 59.9251 13.5324 59.9702 13.4791C60.0149 13.4261 60.1476 13.3666 60.2651 13.3467C60.3827 13.3269 60.5334 13.2748 60.6004 13.2309C61.0689 12.9241 62.2073 13.1779 62.624 13.6826C62.9456 14.0714 62.9909 15.575 62.6992 16.1563C62.6569 16.2405 62.6 16.4981 62.5725 16.7288C62.5452 16.9595 62.4792 17.2672 62.4262 17.4126C62.3729 17.558 62.3068 17.8468 62.279 18.0544C62.2511 18.262 62.1839 18.5688 62.1294 18.7358C62.0752 18.9032 62.011 19.2289 61.9873 19.4596C61.9636 19.6906 61.912 19.9424 61.8727 20.0194C61.7927 20.1766 61.6902 20.7183 61.6902 20.9842C61.6902 21.0805 61.6532 21.2452 61.6082 21.3503C61.4829 21.6414 61.3964 22.141 61.4598 22.2044C61.5407 22.2853 64.3281 22.2767 64.3923 22.1955C64.4193 22.1615 64.4569 21.9337 64.4756 21.6894C64.4989 21.3864 64.5407 21.1927 64.6068 21.0796C64.6734 20.9662 64.7199 20.7485 64.7548 20.3887C64.7916 20.0093 64.8321 19.8263 64.9011 19.73C64.9719 19.6311 65.0089 19.4549 65.0448 19.0444C65.0797 18.647 65.1167 18.466 65.1768 18.3997C65.2349 18.3354 65.2799 18.1314 65.3252 17.728C65.3658 17.3688 65.4274 17.0732 65.4872 16.9509C65.5497 16.8236 65.5965 16.5902 65.619 16.2929C65.6421 15.9881 65.6862 15.771 65.7496 15.6514C65.8142 15.5291 65.8687 15.254 65.9175 14.8038C65.9572 14.4375 66.0025 14.0193 66.0182 13.8751C66.0555 13.5298 65.8743 12.336 65.7846 12.336C65.76 12.336 65.6969 12.2527 65.6445 12.1509C65.5918 12.049 65.4804 11.8897 65.3966 11.7964C65.3128 11.7034 65.2441 11.613 65.2441 11.5959C65.2441 11.5787 65.1718 11.5266 65.0836 11.4801C64.9953 11.4339 64.8478 11.3409 64.7554 11.2737C64.6633 11.2064 64.5274 11.1513 64.4536 11.1513C64.3799 11.1513 64.2561 11.1013 64.1785 11.0403C63.9958 10.8964 61.8679 10.8422 61.6408 10.9757ZM97.1064 11.1946C96.9453 11.2289 96.9281 11.2665 96.8333 11.7931C96.8017 11.9693 96.7575 12.1361 96.7353 12.1633C96.6835 12.2264 96.5869 12.7476 96.5869 12.9635C96.5869 13.0544 96.5404 13.2671 96.4833 13.4359C96.4264 13.6047 96.35 13.9675 96.3139 14.2423C96.2778 14.5171 96.212 14.8281 96.1679 14.9335C96.1238 15.0387 96.0755 15.2691 96.0607 15.4456C96.0459 15.6221 95.9781 15.944 95.9102 16.1614C95.8421 16.3785 95.7684 16.727 95.7462 16.9358C95.7239 17.1449 95.6703 17.3904 95.6271 17.4813C95.5418 17.6611 95.4527 18.132 95.4521 18.4039C95.4518 18.4971 95.4094 18.6636 95.3576 18.774C95.2605 18.9817 95.1556 19.5053 95.1556 19.7839C95.1556 19.8719 95.1035 20.0588 95.0395 20.1994C94.9545 20.3872 94.9151 20.5871 94.892 20.9487C94.8666 21.3464 94.8396 21.4699 94.7526 21.5878C94.6723 21.6962 94.6359 21.8366 94.6113 22.1312C94.587 22.4218 94.5429 22.5935 94.4472 22.7704C94.3753 22.9033 94.3166 23.0615 94.3166 23.1216C94.3166 23.3259 93.9393 23.7216 93.6829 23.7862C93.557 23.8178 93.4279 23.8658 93.3956 23.8925C93.3633 23.9191 93.1208 23.9683 92.8563 24.0015L92.3753 24.0619L92.2314 24.6032C92.0454 25.3028 91.9883 26.1732 92.1248 26.2256C92.5299 26.3811 94.7555 26.2813 95.161 26.0894C95.3126 26.0177 95.4716 25.959 95.5146 25.959C95.5572 25.959 95.655 25.9066 95.732 25.8427C95.8087 25.7787 95.9428 25.6895 96.0302 25.6445C96.1178 25.5998 96.212 25.5204 96.2401 25.4683C96.268 25.4162 96.3352 25.3593 96.3894 25.3422C96.4439 25.325 96.4883 25.282 96.4883 25.2468C96.4883 25.2115 96.5541 25.1002 96.6343 24.9989C96.7149 24.8979 96.7948 24.7703 96.812 24.7158C96.8295 24.661 96.8943 24.5416 96.9562 24.4501C97.0181 24.3589 97.0845 24.178 97.1037 24.0483C97.123 23.9182 97.1801 23.7444 97.2305 23.6621C97.2829 23.5765 97.3368 23.3641 97.3555 23.1684C97.3735 22.9794 97.4322 22.7247 97.4861 22.6027C97.5397 22.4804 97.614 22.1532 97.6516 21.8754C97.6889 21.5976 97.7624 21.286 97.8151 21.183C97.8773 21.061 97.9232 20.8326 97.9466 20.5282C97.9721 20.1965 98.015 19.996 98.0941 19.8384C98.1737 19.6797 98.2134 19.4925 98.2333 19.1816C98.2537 18.8602 98.2937 18.6775 98.3864 18.4812C98.4666 18.312 98.5122 18.1299 98.5122 17.9783C98.5128 17.6226 98.5981 17.1704 98.6822 17.0771C98.732 17.0223 98.7734 16.804 98.8072 16.4205C98.8413 16.0308 98.8869 15.7939 98.9488 15.6831C99.0033 15.5854 99.0643 15.3126 99.1004 15.0046C99.1339 14.7212 99.2011 14.4105 99.2503 14.3137C99.303 14.2091 99.3607 13.9263 99.3912 13.6192C99.4259 13.2748 99.4774 13.0355 99.5452 12.9055C99.6015 12.798 99.6474 12.6167 99.6474 12.5027C99.6474 12.3887 99.6829 12.1212 99.7265 11.9083C99.8695 11.2106 99.8722 11.2692 99.6939 11.207C99.523 11.1475 97.3747 11.1371 97.1064 11.1946ZM50.5933 11.2642C50.5637 11.2997 50.5243 11.4279 50.506 11.5488C50.4876 11.6696 50.4337 11.8571 50.3863 11.9658C50.3386 12.0745 50.2747 12.3819 50.2439 12.6487C50.2128 12.9158 50.1541 13.1989 50.1133 13.278C50.0724 13.3571 50.0182 13.5863 49.9927 13.788C49.9382 14.2162 49.8541 14.5808 49.7694 14.7546C49.7366 14.8225 49.6942 15.052 49.6755 15.2649C49.6569 15.4776 49.598 15.7628 49.5446 15.8981C49.4913 16.0334 49.4277 16.3376 49.4031 16.5742C49.3788 16.8105 49.3136 17.1378 49.2583 17.3016C49.2032 17.4653 49.1336 17.7953 49.104 18.0346C49.0741 18.2741 49.0163 18.5351 48.9751 18.6144C48.9343 18.6938 48.8706 18.9879 48.8336 19.268C48.7969 19.5482 48.7299 19.8485 48.6849 19.9359C48.6396 20.0232 48.5813 20.3064 48.5546 20.5652C48.5211 20.8936 48.4699 21.1083 48.3855 21.2748C48.2217 21.5982 48.2093 22.1748 48.3645 22.2577C48.4308 22.2932 48.8786 22.3063 49.6966 22.2965L50.9286 22.2817L51.1003 22.109C51.2615 21.947 51.2742 21.91 51.3053 21.5167C51.3242 21.2763 51.3761 21.0224 51.4264 20.9221C51.5283 20.7189 51.5585 20.5667 51.6162 19.9723C51.6447 19.6815 51.6858 19.5082 51.7421 19.4463C51.8013 19.3809 51.8398 19.1996 51.8745 18.8259C51.9225 18.3094 51.9465 18.214 52.0913 17.9629C52.1366 17.8841 52.1626 17.6981 52.1632 17.4494C52.1638 17.1301 52.1878 17.009 52.2953 16.783C52.3934 16.5766 52.4372 16.3829 52.4683 16.0163C52.4952 15.7044 52.5402 15.4802 52.5921 15.4009C52.6409 15.3262 52.6981 15.0644 52.7342 14.7508C52.7674 14.4618 52.8284 14.1502 52.8702 14.0581C52.9789 13.8182 52.9945 13.7459 53.052 13.233C53.0822 12.9647 53.1444 12.6928 53.2013 12.5812C53.2794 12.4278 53.3017 12.2732 53.3114 11.8073L53.3239 11.2254L51.9856 11.2123C50.9271 11.202 50.636 11.2126 50.5933 11.2642ZM14.4042 12.3599C14.4042 12.4002 14.4821 12.466 14.5774 12.5057C14.6725 12.5453 14.7699 12.6291 14.7939 12.6913C14.8176 12.7538 14.8843 12.8471 14.9417 12.8989C15.0978 13.0396 15.0877 13.4448 14.9225 13.6686C14.8546 13.7608 14.7993 13.8558 14.7993 13.8804C14.7993 13.9956 14.5638 14.234 14.3613 14.3234L14.1365 14.423L14.2887 14.5518C14.5751 14.7943 14.6225 14.9578 14.5606 15.493C14.5307 15.7518 14.4874 16.3083 14.4643 16.7291C14.4317 17.3285 14.4036 17.5234 14.3349 17.6282C14.2671 17.7316 14.2416 17.9004 14.2227 18.3683C14.1969 19.0154 14.1483 19.25 14.0023 19.438C13.9372 19.5215 13.9108 19.6382 13.9108 19.8414C13.9108 20.0691 13.8871 20.1553 13.7944 20.2667C13.7304 20.3434 13.6629 20.4891 13.6443 20.5907C13.6244 20.6976 13.5699 20.7968 13.5143 20.8267C13.4612 20.8548 13.3848 20.9425 13.3443 21.021C13.3034 21.0997 13.2267 21.1779 13.1734 21.1948C13.1201 21.2117 13.0638 21.2632 13.0481 21.3094C13.0135 21.4116 12.6181 21.6687 12.3779 21.7451C12.2814 21.7759 12.1054 21.8505 11.987 21.9109C11.5028 22.1579 11.0277 22.038 10.9661 21.6533C10.9493 21.5472 10.9087 21.4341 10.8761 21.4012C10.5607 21.0858 10.7443 20.2335 11.1278 20.2335C11.1607 20.2335 11.2395 20.1903 11.3029 20.1375C11.7095 19.7987 11.7883 19.7241 11.7883 19.677C11.7883 19.648 11.8549 19.4875 11.936 19.3207C12.0581 19.0705 12.0924 18.9177 12.1324 18.453C12.159 18.1426 12.2135 17.7665 12.2535 17.6173C12.2932 17.468 12.351 16.9805 12.3812 16.5342C12.4117 16.0876 12.4665 15.6511 12.5029 15.564C12.5393 15.477 12.5938 15.2865 12.624 15.1408C12.6832 14.8559 12.8618 14.6643 13.2157 14.5056L13.3857 14.4295L13.206 14.3232C12.6071 13.9701 12.8692 12.715 13.5898 12.484C13.6985 12.4491 13.8051 12.3904 13.8267 12.3537C13.8847 12.2551 14.4042 12.2607 14.4042 12.3599ZM10.11 12.9407C10.338 13.0441 10.5018 13.1992 10.5038 13.3139C10.5044 13.3494 10.5583 13.4939 10.6232 13.6346C10.7123 13.8268 10.7502 14.019 10.776 14.404C10.7976 14.7304 10.8533 15.0502 10.9288 15.2818C10.9943 15.482 11.0482 15.7397 11.0488 15.8543C11.05 16.127 11.1702 16.7954 11.2673 17.0682C11.3094 17.187 11.3449 17.4091 11.3458 17.5619C11.3473 17.8195 11.4083 18.1349 11.5374 18.554C11.6766 19.0059 11.6618 19.7398 11.5134 19.7398C11.472 19.7398 11.384 19.7979 11.3183 19.8692C11.1942 20.0028 10.3241 20.1023 10.0045 20.0191C9.77234 19.9587 9.53661 19.6806 9.50166 19.4259C9.48389 19.2968 9.43591 19.1573 9.39504 19.1164C9.35388 19.0755 9.30798 18.9822 9.29287 18.9097C9.23483 18.6331 9.22772 18.6301 8.59928 18.6162C7.93234 18.6011 7.8124 18.6562 7.60331 19.0735C7.4499 19.3794 7.12325 19.7226 6.95355 19.7567C6.87181 19.773 6.75602 19.8426 6.69619 19.9113C6.5958 20.0268 6.55611 20.036 6.15749 20.036H5.72747L5.48877 19.8106C5.22253 19.5592 5.18995 19.3696 5.37801 19.1667C5.43102 19.1096 5.49766 18.9763 5.52638 18.8706C5.55482 18.7652 5.62885 18.623 5.69075 18.5552C5.75709 18.4826 5.81484 18.3414 5.83113 18.2114C5.84623 18.0902 5.88947 17.9679 5.92678 17.9401C5.9644 17.9119 6.03458 17.7665 6.08256 17.6173C6.13083 17.468 6.19925 17.3125 6.23478 17.272C6.27003 17.2311 6.33548 17.0892 6.3799 16.9566C6.42462 16.8242 6.50192 16.6631 6.55226 16.5991C6.60261 16.5354 6.65917 16.3995 6.67813 16.2973C6.69678 16.1954 6.75187 16.0675 6.80044 16.0133C6.84871 15.9588 6.92453 15.8054 6.96895 15.6718C7.01308 15.5383 7.07912 15.394 7.11525 15.3508C7.15138 15.3079 7.20943 15.1734 7.24408 15.0517C7.27902 14.93 7.34773 14.7789 7.39719 14.7161C7.44665 14.6534 7.50232 14.5331 7.52069 14.4493C7.53905 14.3652 7.61842 14.1955 7.6969 14.0717C7.77538 13.9479 7.83964 13.8096 7.83964 13.764C7.83964 13.6112 8.22524 13.1856 8.42099 13.1222C8.52198 13.0897 8.69138 13.0195 8.79711 12.9662C9.17767 12.7749 9.72052 12.7642 10.11 12.9407ZM22.5315 13.6986C22.7397 13.7545 22.9589 14.0957 22.8985 14.2695C22.8692 14.3534 22.8206 14.68 22.7904 14.9954C22.7483 15.4358 22.714 15.5925 22.6423 15.6707C22.5689 15.7506 22.5387 15.8993 22.4999 16.3755C22.4625 16.8313 22.4276 17.0116 22.3562 17.1129C22.294 17.2018 22.252 17.3726 22.2318 17.6173C22.1794 18.257 22.0284 18.3689 21.2477 18.3464C20.4256 18.323 20.4078 18.2892 20.5695 17.0498C20.5977 16.8325 20.643 16.2538 20.6702 15.7633C20.7173 14.9158 20.7807 14.5595 20.9735 14.0611C21.0988 13.7377 21.944 13.541 22.5315 13.6986ZM18.8838 14.539C19.095 14.561 19.222 14.6042 19.3183 14.6871C19.4015 14.7585 19.517 14.8038 19.6159 14.8038C19.9319 14.8038 20.104 15.1376 20.0314 15.6093C20.0057 15.7773 19.9606 16.1922 19.9313 16.5316C19.902 16.871 19.8552 17.2261 19.8268 17.3211C19.7761 17.492 19.7285 17.877 19.642 18.8161C19.6041 19.2254 19.5795 19.3166 19.4812 19.4117C19.4172 19.4736 19.334 19.5701 19.2961 19.6267C19.2537 19.6898 19.1489 19.7419 19.0251 19.7617C18.914 19.7795 18.771 19.8429 18.7076 19.9027C18.5957 20.0078 18.5524 20.0117 17.3074 20.0268L16.0227 20.0422L15.8402 19.9157C15.7398 19.8461 15.6193 19.7893 15.5722 19.7893C15.5254 19.7893 15.409 19.7114 15.3143 19.6163C15.2192 19.5212 15.1191 19.4437 15.0919 19.4437C15.0643 19.4437 14.9651 19.2831 14.8712 19.0871L14.7003 18.7308L14.7006 17.7422C14.7009 16.8514 14.7104 16.738 14.7963 16.5967C14.849 16.5105 14.9074 16.3551 14.9263 16.2511C14.9799 15.9558 15.3551 15.3973 15.68 15.1299C15.7165 15.1 15.8009 15.0253 15.8678 14.964C15.9344 14.9027 16.0816 14.8319 16.1947 14.8065C16.3079 14.781 16.4284 14.7221 16.4622 14.6759C16.5712 14.5269 17.9968 14.4464 18.8838 14.539ZM9.12791 15.5777C9.12495 15.6093 9.04766 15.734 8.95555 15.8546C8.85989 15.9798 8.77312 16.1635 8.75298 16.2831C8.73344 16.3983 8.67539 16.5345 8.62416 16.5861C8.44558 16.7646 8.67658 16.9589 8.99642 16.8991C9.20166 16.8606 9.2215 16.7978 9.21587 16.2105C9.21261 15.8469 9.14568 15.3671 9.12791 15.5777ZM17.4966 16.2914C17.1644 16.3411 17.1365 16.3568 17.0968 16.5147C17.0776 16.5911 17.0462 16.6651 17.0269 16.6791C16.6893 16.9234 16.6511 18.0197 16.9748 18.1871C17.3761 18.3944 17.7339 18.2043 17.7789 17.7594C17.9101 16.4679 17.8653 16.2363 17.4966 16.2914ZM108.223 17.1837C108.319 17.2631 108.298 17.6036 108.188 17.755C108.13 17.8335 108.077 18.0117 108.058 18.185C108.038 18.3671 107.99 18.52 107.934 18.5821C107.884 18.6378 107.828 18.7601 107.811 18.8537C107.773 19.0658 107.415 19.677 107.291 19.7434C107.24 19.7706 107.199 19.8168 107.199 19.8464C107.199 19.9213 106.767 20.2948 106.596 20.3677C106.518 20.4005 106.423 20.4601 106.383 20.4997C106.343 20.5394 106.183 20.596 106.027 20.6253C105.871 20.6549 105.628 20.7038 105.488 20.7346C105.228 20.7915 105.156 20.7858 104.46 20.6564C104.184 20.6052 104.04 20.5528 103.983 20.4823C103.938 20.4269 103.876 20.3816 103.845 20.3816C103.583 20.3816 103.154 19.42 103.297 19.1528C103.326 19.0992 103.349 18.9888 103.349 18.907C103.349 18.607 103.75 18.0126 104.005 17.9353C104.065 17.9173 104.164 17.8563 104.226 17.8003C104.287 17.7443 104.442 17.6827 104.571 17.6635C104.7 17.6442 105.005 17.5797 105.249 17.5201C105.52 17.4541 105.973 17.396 106.409 17.3715C106.985 17.3389 107.193 17.306 107.471 17.2047C107.819 17.0777 108.086 17.0703 108.223 17.1837ZM21.981 18.769L22.2277 19.0062V19.4656V19.9249L22.0302 20.1284C21.9218 20.2403 21.8063 20.3321 21.774 20.3321C21.7414 20.3321 21.6845 20.3754 21.6475 20.4284C21.4316 20.7367 20.6489 20.6999 20.3151 20.3659C19.9251 19.9758 20.0773 18.9417 20.5494 18.7738C20.6039 18.7542 20.6761 18.6988 20.7105 18.65C20.89 18.3953 21.6677 18.4678 21.981 18.769ZM25.4025 22.3069C25.9166 22.3785 26.3037 22.6184 26.1511 22.7709C26.0875 22.8346 24.9745 22.8888 23.6098 22.8947C22.714 22.8986 21.9144 22.9753 21.7565 23.073C21.7296 23.0896 21.0683 23.132 20.287 23.1675C19.1317 23.2196 18.8358 23.2475 18.7029 23.3162C18.519 23.4112 18.3564 23.4302 17.2656 23.4853C16.6526 23.5164 16.4713 23.5421 16.3618 23.6141C16.2522 23.6858 16.0484 23.7148 15.3513 23.7586C14.6423 23.8027 14.4525 23.8306 14.3414 23.9052C14.2348 23.9772 14.0384 24.0101 13.4529 24.0539C12.8734 24.0974 12.6705 24.1312 12.566 24.2011C12.4585 24.273 12.29 24.2988 11.7515 24.3249C11.1666 24.353 11.052 24.3725 10.9244 24.4641C10.8068 24.5488 10.6578 24.5807 10.197 24.6213C9.74717 24.6607 9.58725 24.6945 9.48122 24.7724C9.37994 24.847 9.2061 24.8873 8.80362 24.9293C8.48467 24.9628 8.23501 25.0137 8.19562 25.0531C8.1589 25.0898 8.08042 25.1289 8.02119 25.1399C7.558 25.2269 7.3421 25.2853 7.15967 25.3735C6.88247 25.5074 5.74139 25.497 5.5865 25.3593C5.53616 25.3143 5.39904 25.2495 5.28176 25.2148C5.16448 25.1802 5.04217 25.1135 5.0096 25.0673C4.97702 25.0208 4.87129 24.9497 4.77445 24.9092C4.1928 24.6663 4.27276 24.2316 4.89913 24.2316C5.07741 24.2316 5.19825 24.2026 5.2785 24.141C5.42451 24.0284 5.88118 23.9354 6.28632 23.9354C6.52324 23.9354 6.62215 23.9117 6.72522 23.8309C6.8345 23.7447 6.97695 23.7157 7.52513 23.6677C7.93649 23.6316 8.20628 23.5863 8.22909 23.5492C8.2892 23.4518 8.5359 23.4035 9.16997 23.3659C9.65596 23.3369 9.791 23.3117 9.89229 23.2321C9.99831 23.1488 10.1402 23.1266 10.8409 23.0849C11.485 23.0467 11.6973 23.0165 11.8128 22.9469C11.9286 22.877 12.1552 22.8447 12.8494 22.7994C13.4337 22.7609 13.8495 22.7079 14.0633 22.6448C14.31 22.5716 14.6926 22.5325 15.643 22.4831C16.424 22.4422 16.9529 22.3933 17.045 22.3534C17.3234 22.2325 24.5783 22.1923 25.4025 22.3069Z" fill="#F40D0D"/>
</svg>
