<svg width="76" height="21" viewBox="0 0 76 21" fill="none" xmlns="http://www.w3.org/2000/svg">
<path d="M0.0893239 14.4308C0.0893239 13.3877 0.070115 12.5145 0.0107422 11.7332H2.08966L2.18833 13.0737H2.24595C2.71657 12.3662 3.57922 11.5277 5.18752 11.5277C6.44308 11.5277 7.42274 12.1988 7.83485 13.203H7.87502C8.20855 12.7009 8.59971 12.3281 9.05025 12.0687C9.58024 11.7141 10.1897 11.5277 10.9729 11.5277C12.562 11.5277 14.1685 12.5509 14.1685 15.4557V20.7945H11.8154V15.7887C11.8154 14.2825 11.2662 13.3877 10.1094 13.3877C9.28599 13.3877 8.67742 13.9478 8.42334 14.599C8.35264 14.8475 8.31307 15.1031 8.30547 15.3604V20.7953H5.95239V15.546C5.95239 14.2833 5.42327 13.3885 4.30479 13.3885C3.4046 13.3885 2.7969 14.0596 2.57861 14.691C2.4817 14.9146 2.44153 15.1765 2.44153 15.4349V20.7953H0.0893239V14.4308ZM23.3373 18.6189C23.3373 19.4366 23.3766 20.2361 23.4735 20.7953H21.2968L21.1405 19.7912H21.0811C20.4926 20.4987 19.492 20.9992 18.2591 20.9992C16.3365 20.9992 15.2582 19.6794 15.2582 18.3016C15.2582 16.0108 17.3939 14.8591 20.9257 14.8774V14.7291C20.9257 14.1325 20.6699 13.1466 18.983 13.1466C18.0409 13.1466 17.0612 13.4267 16.4142 13.8161L15.9436 12.3272C16.65 11.9171 17.8854 11.5269 19.3942 11.5269C22.4545 11.5269 23.3381 13.3712 23.3381 15.3413L23.3373 18.6189ZM20.9833 16.3678C19.2763 16.3297 17.6497 16.6835 17.6497 18.0605C17.6497 18.9536 18.2591 19.3637 19.0231 19.3637C19.9827 19.3637 20.6899 18.7663 20.9056 18.116C20.9584 17.9534 20.9849 17.7841 20.9842 17.6139V16.3678H20.9833ZM25.0032 14.4308C25.0032 13.3877 24.9831 12.5145 24.9264 11.7332H27.0419L27.1589 13.0936H27.2183C27.6296 12.3852 28.6695 11.5277 30.2577 11.5277C31.9254 11.5277 33.6498 12.5509 33.6498 15.4184V20.7945H31.2382V15.6785C31.2382 14.3761 30.7274 13.3869 29.4142 13.3869C28.4547 13.3869 27.7859 14.0389 27.5318 14.7282C27.4532 14.932 27.434 15.2121 27.434 15.4706V20.7937H25.0023L25.0032 14.4308ZM44.1081 8.09277V18.246C44.1081 19.1765 44.1483 20.1831 44.1867 20.7953H42.031L41.9323 19.3637H41.8921C41.3246 20.3678 40.166 21 38.7751 21C36.4997 21 34.6967 19.1582 34.6967 16.3687C34.6757 13.3347 36.6752 11.5286 38.9715 11.5286C40.2847 11.5286 41.2259 12.0497 41.6573 12.7224H41.6983V8.0936H44.109V8.09277H44.1081ZM41.6974 15.5103C41.6974 15.3256 41.6782 15.1019 41.6381 14.9146C41.4224 14.0232 40.6593 13.2966 39.56 13.2966C38.0111 13.2966 37.1467 14.5998 37.1467 16.2924C37.1467 17.947 38.0102 19.1574 39.5408 19.1574C40.5196 19.1574 41.3831 18.5236 41.618 17.5377C41.6773 17.3339 41.6983 17.1093 41.6983 16.8683V15.5103H41.6974ZM45.8142 20.7953V11.7332H48.2476V20.7953H45.8142ZM49.952 14.6553C49.952 13.4275 49.9336 12.5518 49.8751 11.734H51.9733L52.0501 13.4631H52.1296C52.6002 12.1798 53.7169 11.734 54.7393 11.734C54.9742 11.734 55.1104 11.6959 55.306 11.734V13.7448C55.0746 13.6962 54.8384 13.6712 54.6014 13.6702C53.4419 13.6702 52.6578 14.3778 52.443 15.3993C52.3955 15.6331 52.3695 15.8704 52.3653 16.1085V20.7962H49.952V14.6553ZM56.4254 20.7953V11.7332H58.8553V20.7953H56.4254Z" fill="#0D2B5B"/>
<path d="M73.9921 2.14911C72.788 0.845876 71.508 1.43577 70.4908 1.91547C70.063 2.11597 66.9747 3.77711 66.9747 3.77711C65.2826 4.43908 63.965 3.71663 63.4481 3.10851C63.3987 3.05084 63.354 2.98963 63.3146 2.92541L63.1941 2.7274C62.9904 2.39318 62.7641 2.07188 62.5165 1.76551C62.3663 1.57981 62.2035 1.40353 62.0293 1.23776C60.8715 0.128394 59.0214 -0.647911 55.9288 0.762197C54.4645 1.5675 49.6946 4.15325 49.6946 4.15325C47.9021 4.85333 46.5313 4.00081 46.086 3.37529C46.0659 3.35187 46.0484 3.32661 46.0336 3.29989L45.9751 3.20545L45.673 2.73651C45.5366 2.5311 45.3904 2.33177 45.2347 2.13917C45.0829 1.95465 44.92 1.77871 44.7466 1.61224C43.5967 0.509504 41.7561 -0.265143 38.6906 1.11845C36.8369 2.1226 32.5254 4.46145 32.5254 4.46145L32.5237 4.46311L29.3682 6.17396L31.0009 8.0762C31.6881 8.69758 32.9794 9.71663 34.9771 8.85748C34.9771 8.85748 40.491 5.82765 40.5128 5.81854C45.2268 3.36369 47.5528 5.70917 48.5814 7.27256C48.6172 7.32144 48.646 7.37446 48.6783 7.42169L48.68 7.42417C48.6931 7.44323 48.701 7.46063 48.7123 7.47885L48.8285 7.65947C49.3296 8.38026 50.1198 8.84588 51.0619 8.82434C51.5814 8.8144 51.9342 8.65367 52.4476 8.38275L57.7824 5.44654L57.7938 5.44157C62.5672 2.9569 64.9325 5.45565 65.9427 7.01903C66.0213 7.15408 66.1103 7.28333 66.202 7.40346C66.7023 8.0472 67.3921 8.46891 68.2687 8.4482C68.8476 8.43743 69.4963 8.10769 69.5932 8.0472L75.9889 4.5443C75.9906 4.54596 75.3375 3.60893 73.9921 2.14911Z" fill="#FDD213"/>
</svg>
