<svg width="98" height="23" viewBox="0 0 98 23" fill="none" xmlns="http://www.w3.org/2000/svg">
<path d="M44.2716 14.0365V10.8936C44.2716 9.70986 43.5337 8.9137 42.345 8.9032C42.0064 8.88066 41.668 8.95139 41.3652 9.10801C41.0624 9.26463 40.8063 9.50142 40.6234 9.79369C40.4568 9.51013 40.2185 9.27775 39.9335 9.12104C39.6486 8.96432 39.3276 8.88907 39.0043 8.9032C38.7225 8.88873 38.4419 8.94974 38.1903 9.08021C37.9387 9.21067 37.7248 9.40606 37.5697 9.64703V9.02893H36.5039V14.0365H37.5799V11.2603C37.5799 10.3908 38.0513 9.92993 38.7789 9.92993C39.4859 9.92993 39.8446 10.4013 39.8446 11.2499V14.0365H40.9206V11.2603C40.9206 10.3908 41.4125 9.92993 42.1196 9.92993C42.8471 9.92993 43.1956 10.4013 43.1956 11.2499V14.0365H44.2716ZM60.1963 9.02893H58.4542V7.50995H57.3782V9.02893H56.3842V10.0242H57.3782V12.3079C57.3782 13.4708 57.8188 14.1622 59.0793 14.1622C59.5501 14.1636 60.0119 14.0293 60.4114 13.7746L60.1041 12.8422C59.8183 13.0165 59.4939 13.1138 59.1612 13.1251C58.6284 13.1251 58.4542 12.7898 58.4542 12.287V10.0242H60.1963V9.02893ZM69.2858 8.9032C69.026 8.89538 68.7689 8.95937 68.5417 9.08843C68.3144 9.2175 68.1255 9.40685 67.9947 9.63653V9.02893H66.9392V14.0365H68.0049V11.2289C68.0049 10.4013 68.3533 9.94033 69.0502 9.94033C69.2782 9.93713 69.5045 9.97985 69.7163 10.0661L70.0442 9.03943C69.8008 8.95034 69.5444 8.90428 69.2858 8.9032ZM55.5439 9.42706C54.9406 9.06033 54.247 8.8785 53.5456 8.9032C52.3056 8.9032 51.5063 9.5108 51.5063 10.506C51.5063 11.3232 52.1007 11.826 53.1971 11.9832L53.6993 12.0565C54.2834 12.1403 54.5601 12.2974 54.5601 12.5803C54.5601 12.9679 54.1706 13.1879 53.4431 13.1879C52.8579 13.2051 52.284 13.0206 51.8137 12.6641L51.3116 13.5126C51.9324 13.9559 52.676 14.1836 53.4329 14.1622C54.847 14.1622 55.6668 13.4812 55.6668 12.5279C55.6668 11.6479 55.0212 11.1869 53.9555 11.0298L53.4534 10.9565C52.9922 10.8936 52.6233 10.7994 52.6233 10.4642C52.6233 10.0975 52.9717 9.87751 53.5558 9.87751C54.0922 9.88576 54.6177 10.0336 55.0827 10.307L55.5439 9.42706ZM84.0936 8.9032C83.8338 8.89537 83.5767 8.95936 83.3494 9.08842C83.1222 9.21749 82.9332 9.40684 82.8024 9.63653V9.02893H81.7469V14.0365H82.8126V11.2289C82.8126 10.4013 83.1611 9.94033 83.8579 9.94033C84.0858 9.93712 84.3122 9.97984 84.524 10.0661L84.8519 9.03943C84.6086 8.95034 84.3521 8.90428 84.0936 8.9032ZM70.3618 11.5327C70.3618 13.0517 71.3969 14.1622 72.9751 14.1622C73.6149 14.1951 74.2436 13.982 74.7375 13.565L74.2252 12.685C73.8567 12.9722 73.4075 13.1301 72.9442 13.1355C72.0937 13.1251 71.4686 12.4965 71.4686 11.5327C71.4686 10.5689 72.0937 9.94033 72.9442 9.92993C73.4075 9.93527 73.8567 10.0932 74.2252 10.3804L74.7375 9.50038C74.2436 9.08338 73.6149 8.87036 72.9751 8.9032C71.3969 8.9032 70.3618 10.0137 70.3618 11.5327ZM80.3429 11.5327V9.02893H79.2773V9.63653C79.0953 9.39688 78.8599 9.20525 78.5907 9.07767C78.3215 8.95009 78.0263 8.89026 77.7298 8.9032C76.3567 8.9032 75.2807 10.0033 75.2807 11.5327C75.2807 13.0622 76.3567 14.1622 77.7298 14.1622C78.0263 14.1751 78.3215 14.1153 78.5907 13.9877C78.8599 13.8601 79.0953 13.6685 79.2773 13.4289V14.0365H80.3429V11.5327ZM76.3771 11.5327C76.3771 10.6527 76.9408 9.92993 77.8631 9.92993C78.7443 9.92993 79.3387 10.6213 79.3387 11.5327C79.3387 12.4441 78.7443 13.1355 77.8631 13.1355C76.9408 13.1355 76.3771 12.4126 76.3771 11.5327ZM63.5165 8.9032C62.0818 8.9032 61.0776 9.97174 61.0776 11.5327C61.0776 13.1251 62.1228 14.1622 63.5883 14.1622C64.3194 14.1884 65.0343 13.9386 65.5968 13.4603L65.0741 12.6536C64.6694 12.9852 64.1682 13.1695 63.6497 13.1774C62.9631 13.1774 62.338 12.8527 62.1843 11.9517H65.8222C65.8325 11.8155 65.8427 11.6794 65.8427 11.5327C65.8325 9.97174 64.8897 8.9032 63.5165 8.9032ZM63.496 9.87751C64.1826 9.87751 64.6232 10.3175 64.736 11.0927H62.1945C62.3073 10.3699 62.7376 9.87751 63.496 9.87751ZM90.2319 11.5327V7.01758H89.1661V9.63653C88.9842 9.39689 88.7488 9.20526 88.4796 9.07768C88.2104 8.9501 87.9152 8.89027 87.6188 8.9032C86.2455 8.9032 85.1696 10.0033 85.1696 11.5327C85.1696 13.0622 86.2455 14.1622 87.6188 14.1622C87.9152 14.1751 88.2104 14.1153 88.4796 13.9877C88.7488 13.8601 88.9842 13.6685 89.1661 13.4289V14.0365H90.2319V11.5327ZM91.4774 13.5744C91.5197 13.5741 91.5615 13.5826 91.6005 13.5993C91.6379 13.6153 91.6721 13.6384 91.7011 13.6674C91.7298 13.6964 91.7529 13.7308 91.7688 13.7687C91.7852 13.8077 91.7936 13.8496 91.7936 13.892C91.7936 13.9344 91.7852 13.9763 91.7688 14.0152C91.7528 14.053 91.7298 14.0872 91.7011 14.1161C91.672 14.1451 91.6379 14.1684 91.6005 14.1846C91.5616 14.2016 91.5197 14.2103 91.4774 14.21C91.4151 14.2106 91.3541 14.1925 91.3018 14.1579C91.2496 14.1232 91.2085 14.0736 91.1837 14.0152C91.1674 13.9763 91.159 13.9343 91.159 13.892C91.159 13.8496 91.1674 13.8077 91.1837 13.7687C91.2158 13.6918 91.2764 13.6309 91.3521 13.5993C91.3918 13.5825 91.4344 13.574 91.4774 13.5744ZM91.4774 14.1399C91.5096 14.1401 91.5416 14.1335 91.5712 14.1204C91.5996 14.1078 91.6254 14.0898 91.6473 14.0674C91.6925 14.0207 91.7178 13.9578 91.7178 13.8921C91.7178 13.8265 91.6925 13.7635 91.6473 13.7169C91.6255 13.6945 91.5996 13.6767 91.5712 13.6643C91.5415 13.6515 91.5096 13.6449 91.4774 13.6452C91.4446 13.645 91.4121 13.6515 91.3818 13.6643C91.3453 13.6802 91.3132 13.705 91.2883 13.7364C91.2633 13.7679 91.2463 13.8052 91.2386 13.8449C91.231 13.8847 91.233 13.9257 91.2445 13.9645C91.256 14.0033 91.2766 14.0386 91.3045 14.0674C91.3267 14.09 91.3529 14.108 91.3818 14.1204C91.412 14.1335 91.4446 14.1401 91.4774 14.1399ZM91.4957 13.7434C91.5263 13.7413 91.5566 13.7503 91.5815 13.7687C91.5914 13.777 91.5992 13.7876 91.6045 13.7995C91.6097 13.8115 91.6121 13.8245 91.6115 13.8376C91.6119 13.8488 91.6099 13.86 91.6058 13.8704C91.6017 13.8808 91.5955 13.8902 91.5875 13.898C91.5686 13.9151 91.5446 13.9254 91.5193 13.9272L91.6138 14.0386H91.5399L91.4523 13.9279H91.4241V14.0386H91.3624V13.7434H91.4957ZM91.4241 13.7987V13.8774H91.495C91.5086 13.8781 91.5221 13.8747 91.5338 13.8676C91.5386 13.8643 91.5425 13.8598 91.545 13.8546C91.5475 13.8493 91.5487 13.8435 91.5483 13.8376C91.5486 13.8319 91.5474 13.8262 91.5449 13.821C91.5424 13.8159 91.5385 13.8115 91.5338 13.8084C91.5221 13.8014 91.5086 13.798 91.495 13.7987H91.4241ZM86.2661 11.5327C86.2661 10.6527 86.8297 9.92993 87.7519 9.92993C88.6332 9.92993 89.2276 10.6213 89.2276 11.5327C89.2276 12.4441 88.6332 13.1355 87.7519 13.1355C86.8297 13.1355 86.2661 12.4126 86.2661 11.5327ZM50.2766 11.5327V9.02893H49.2109V9.63653C49.0289 9.39688 48.7935 9.20524 48.5243 9.07766C48.2551 8.95008 47.9599 8.89026 47.6635 8.9032C46.2903 8.9032 45.2143 10.0033 45.2143 11.5327C45.2143 13.0622 46.2903 14.1622 47.6635 14.1622C47.9599 14.1752 48.2551 14.1153 48.5243 13.9877C48.7935 13.8602 49.0289 13.6685 49.2109 13.4289V14.0365H50.2766V11.5327ZM46.3109 11.5327C46.3109 10.6527 46.8745 9.92993 47.7967 9.92993C48.678 9.92993 49.2723 10.6213 49.2723 11.5327C49.2723 12.4441 48.678 13.1355 47.7967 13.1355C46.8745 13.1355 46.3109 12.4126 46.3109 11.5327Z" fill="#231F20"/>
<path d="M22.9067 5.58032H16.4619V17.4199H22.9067V5.58032Z" fill="#FF5F00"/>
<path d="M16.8715 11.5001C16.8705 10.3599 17.1232 9.23432 17.6106 8.2087C18.098 7.18309 18.8073 6.28427 19.6847 5.5803C18.5981 4.7072 17.2932 4.16424 15.9191 4.01346C14.5449 3.86269 13.157 4.11018 11.914 4.72766C10.6709 5.34515 9.62287 6.3077 8.88964 7.50531C8.15641 8.70292 7.76758 10.0872 7.76758 11.5001C7.76758 12.9129 8.15641 14.2973 8.88964 15.4949C9.62287 16.6925 10.6709 17.655 11.914 18.2725C13.157 18.89 14.5449 19.1375 15.9191 18.9867C17.2932 18.8359 18.5981 18.293 19.6847 17.4199C18.8073 16.7159 18.098 15.8171 17.6106 14.7915C17.1232 13.7659 16.8705 12.6403 16.8715 11.5001Z" fill="#EB001B"/>
<path d="M31.6013 11.5001C31.6013 12.9129 31.2126 14.2972 30.4794 15.4948C29.7462 16.6925 28.6982 17.655 27.4552 18.2725C26.2121 18.89 24.8242 19.1375 23.4501 18.9867C22.076 18.8359 20.7711 18.293 19.6846 17.4199C20.5612 16.7152 21.2699 15.8162 21.7572 14.7908C22.2445 13.7653 22.4977 12.6401 22.4977 11.5001C22.4977 10.36 22.2445 9.23486 21.7572 8.2094C21.2699 7.18395 20.5612 6.28499 19.6846 5.5803C20.7711 4.7072 22.076 4.16423 23.4501 4.01346C24.8242 3.86269 26.2121 4.11019 27.4552 4.72768C28.6982 5.34517 29.7462 6.30773 30.4794 7.50534C31.2126 8.70295 31.6013 10.0873 31.6013 11.5001Z" fill="#F79E1B"/>
<path d="M30.8989 16.1658V15.9234H30.9945V15.874H30.751V15.9234H30.8466V16.1658H30.8989ZM31.3716 16.1658V15.8735H31.2969L31.2111 16.0746L31.1252 15.8735H31.0505V16.1658H31.1032V15.9453L31.1838 16.1354H31.2384L31.3189 15.9449V16.1658H31.3716Z" fill="#F79E1B"/>
</svg>
