<svg width="129" height="26" viewBox="0 0 129 26" fill="none" xmlns="http://www.w3.org/2000/svg">
<circle cx="12.7852" cy="12.8333" r="12" fill="#FFCF01"/>
<path d="M81.7826 11.3284C81.3086 11.3284 80.8057 11.4358 80.481 11.5603V17.5678C80.7315 17.6478 81.2072 17.7083 81.6836 17.7083C83.3851 17.7083 84.3865 16.5244 84.3865 14.4379C84.3865 12.457 83.4335 11.3284 81.7826 11.3284ZM81.4092 20.3813C79.4061 20.3813 77.479 20.0071 76.3505 19.5749V3.76294H80.481V9.07835C81.0077 8.88918 81.9095 8.7452 82.6093 8.7452C86.1151 8.7452 88.5179 10.7004 88.5179 14.1423C88.5179 18.3649 85.9906 20.3813 81.4092 20.3813ZM96.7771 14.9585C94.5532 15.0497 92.8741 15.2542 92.8741 16.5916C92.8741 17.5053 93.8006 18.0074 95.2753 18.0074C95.853 18.0074 96.5043 17.9246 96.7771 17.8353V14.9585ZM95.3995 20.381C91.1472 20.381 89.0426 19.0743 89.0426 16.6707C89.0426 13.6883 92.7001 12.9961 96.777 12.8155V12.3766C96.777 11.4807 96.0295 11.0588 94.6247 11.0588C93.3223 11.0588 91.771 11.4193 90.7986 11.7483L89.7934 9.45381C90.9945 9.06004 92.6652 8.56219 95.1319 8.56219C98.8099 8.56219 100.663 9.80411 100.663 12.7882V19.5755C99.6357 20.0068 97.5559 20.381 95.3995 20.381ZM109.822 20.1305V12.8326C109.822 11.8916 109.293 11.2737 107.817 11.2737C107.047 11.2737 106.366 11.5609 106.366 11.5609V20.1305H102.236V9.45381C103.742 8.97054 105.519 8.56233 107.869 8.56233C112.101 8.56233 113.953 9.99084 113.953 12.4405V20.1305H109.822ZM123.818 20.1305L119.686 14.5194H119.635V20.1305H115.557V3.76265H119.635V13.7123H119.686L123.416 8.88961H128.073L123.868 14.1248L128.425 20.1305H123.818ZM68.5794 24.6241H64.2485L66.2745 20.1305L61.1928 8.88961H65.6863L68.4284 16.8745L71.1423 8.88961H75.6393L68.5794 24.6241ZM47.0895 5.03445H42.2805L39.1055 14.361L35.9262 5.03445H31.1173L28.9411 20.1308H32.8706L34.1217 9.75578L37.804 20.1308H40.4054L44.0877 9.75578L45.3406 20.1308H49.27L47.0895 5.03445ZM57.5278 14.9585C55.2987 15.0497 53.6213 15.2542 53.6213 16.5916C53.6213 17.5053 54.5486 18.0074 56.0259 18.0074C56.5995 18.0074 57.2489 17.9246 57.5278 17.8353V14.9585ZM56.1511 20.3812C51.8928 20.3812 49.7926 19.0745 49.7926 16.6708C49.7926 13.6884 53.4474 12.9963 57.5278 12.8157V12.3767C57.5278 11.4808 56.7768 11.0589 55.3746 11.0589C54.0714 11.0589 52.5193 11.4195 51.5442 11.7485L50.5409 9.45395C51.7435 9.06019 53.7714 8.56233 55.8758 8.56233C59.5572 8.56233 61.4077 9.80425 61.4077 12.7884V19.5756C60.3839 20.007 58.3024 20.3812 56.1511 20.3812ZM12.5765 24.1397C6.18974 24.1397 1.01172 18.9608 1.01172 12.5732C1.01172 6.1873 6.18974 0.997282 12.5765 0.997282C18.9675 0.997282 24.1431 6.1873 24.1431 12.5732C24.1431 18.9608 18.9675 24.1397 12.5765 24.1397ZM12.5765 0C5.63054 0 0 5.62639 0 12.5732C0 19.5207 5.63054 25.1497 12.5765 25.1497C19.5233 25.1497 25.1523 19.5207 25.1523 12.5732C25.1523 5.62639 19.5232 0 12.5765 0Z" fill="#231F20"/>
<path d="M7.55956 11.9977C6.65936 11.7668 5.86754 12.8203 5.42773 13.6156C5.58115 12.527 6.91844 10.7448 7.55956 11.9977ZM5.58087 12.0102C5.88255 10.9771 6.59774 10.5978 6.98049 10.9029C6.46048 11.0641 6.08373 11.3719 5.58087 12.0102ZM7.87826 13.6696C8.34195 13.2793 8.29419 12.7013 7.57572 12.5112C7.04469 12.3765 5.89814 13.3372 5.77374 14.3949C6.23414 13.8069 7.55956 12.7235 7.87826 13.6696V13.6696ZM15.0975 16.424C15.1801 15.0628 13.8572 14.427 13.6033 13.0325C13.3552 11.6363 15.6677 9.40566 14.2075 7.12127C16.9659 9.34604 14.8052 10.6655 16.1978 12.5142C15.6574 12.3506 15.1239 11.8723 14.9619 11.621C14.1871 12.6411 16.8627 14.0442 15.0975 16.424ZM10.6575 5.44727C10.9831 5.44984 11.5457 5.68004 11.3164 5.94169C10.5518 6.65344 9.51795 6.36019 8.69797 7.08381C9.03468 6.18804 10.5323 6.06008 10.6575 5.44727" fill="#231F20"/>
<path d="M9.71564 8.4537C9.61598 8.4537 9.52476 8.31472 9.49831 8.13228C9.62957 8.46471 9.95942 8.30614 9.77197 7.82545C9.88965 7.82802 10.0762 7.84418 10.4231 7.82373C10.0599 8.01218 9.8998 8.45713 9.71564 8.4537V8.4537ZM13.1387 6.4557C13.4584 6.09425 13.1652 5.60168 11.8509 5.44055C13.2206 6.10454 11.018 6.25196 10.9423 7.40366C10.2236 7.68389 9.6483 7.21692 9.29042 7.53906C8.94598 7.85104 8.54793 7.63542 8.66388 7.27655C8.24882 7.48873 8.33232 8.05393 8.73637 8.2295C8.81559 8.26439 8.88636 8.3386 8.82588 8.3965C8.3835 8.81501 8.17547 9.18146 8.63829 9.59239C8.89237 9.12784 9.02005 8.95999 9.30229 8.73308C9.56565 8.90709 10.0311 8.78355 10.6576 8.10411C10.6873 8.06494 10.7299 8.07938 10.7138 8.12213C10.2169 9.83445 8.94598 10.1105 8.53949 10.0296C8.78241 10.4004 10.4001 10.6254 10.6047 9.90437C11.0641 8.27469 12.6316 7.56551 11.2764 7.59696C11.6439 7.1666 12.8745 6.76511 13.1387 6.4557ZM13.8226 5.57895C14.4781 6.00431 14.7875 6.28298 15.2153 6.79285C15.2964 6.09725 14.9025 4.7215 14.317 4.40523C14.0655 4.26883 13.7025 5.23122 13.8226 5.57909" fill="#231F20"/>
<path d="M3.35156 11.1639C3.7745 10.0472 4.80409 8.71851 6.47467 7.73138C6.86 6.73424 6.73303 6.0608 10.7791 4.49003C10.8814 3.89494 10.8634 3.17461 11.0323 3.17461C11.2062 3.17461 11.803 3.4457 12.2299 4.05608C12.4072 4.04236 12.563 4.02463 12.6714 4.00232C12.7446 3.65545 12.9867 2.69992 13.3038 2.20564C13.5936 1.75125 14.1563 1.70264 14.8833 2.30358C15.636 2.91639 16.1668 3.17047 17.1991 4.48988C18.0719 4.88122 19.4365 5.38322 20.6178 6.83389C20.1039 6.49046 19.5234 6.3642 19.0453 6.31316C20.0093 7.15603 20.6444 8.55137 20.1628 10.5894C19.9718 8.68434 18.5715 7.88408 17.7156 7.28228C18.1793 8.88722 16.1668 8.32975 15.5523 7.122C15.7553 7.18677 15.9658 7.17819 16.0928 7.09912C16.0229 4.64158 14.8704 3.22923 14.3564 2.8083C13.6941 2.2584 13.3421 3.5771 13.1181 4.56237C13.048 4.89223 12.7652 5.12829 12.4072 5.11814C12.4872 4.99875 12.5759 4.68005 12.5895 4.57596C11.5735 4.66203 10.4262 5.26126 9.72217 5.57824C7.93306 6.38722 7.48482 6.79128 7.08934 8.14745C5.67184 8.74996 4.03615 10.3822 3.35171 11.1639" fill="#231F20"/>
<path d="M12.2767 10.8192C12.4762 11.0476 13.6551 12.8291 12.2887 15.0946C12.6619 13.4283 11.623 10.2353 10.4766 11.8701C11.2547 12.2051 11.5088 12.8401 11.2999 13.4589C10.982 12.8614 10.1732 12.2179 9.37108 12.4829C8.97131 12.6262 8.44028 12.6296 8.04394 12.0354C7.52735 11.2862 8.39424 10.347 6.91797 10.422C8.70365 9.51768 8.1862 11.2743 9.04709 11.4901C10.0487 11.7236 10.1663 11.1108 10.5115 10.7136C10.7886 10.3751 11.2999 10.1219 11.8378 10.4816C12.0943 9.70169 11.7201 8.46249 12.4514 7.81036C12.7217 7.56829 13.581 7.60232 14.0258 7.95105C13.3934 7.94333 12.6492 8.69855 12.2767 10.8192" fill="#231F20"/>
<path d="M8.19996 18.0159C8.11389 17.9459 7.87769 17.6383 7.89985 17.3085C8.19996 17.5019 8.60731 17.5992 8.60731 17.5992C8.60731 17.5992 8.41472 17.9264 8.19982 18.0159H8.19996ZM9.99493 16.0528C10.1731 16.0793 10.3256 16.2225 10.4868 16.104C10.6445 15.9865 10.4799 15.5117 10.3555 15.3522C10.5115 15.3259 11.1329 15.388 11.1013 15.6096C11.0281 16.2021 10.6598 16.3878 9.77159 16.8141C9.92344 16.6742 9.8987 16.3622 9.99493 16.053V16.0528ZM6.43974 15.5747C6.51552 15.3915 6.85653 15.1562 7.00837 15.1409C6.94775 15.6532 7.13534 16.3521 7.13534 16.3521C7.13534 16.3521 6.44575 15.9157 6.43974 15.5747V15.5747ZM4.17252 13.3032C3.84781 13.0764 3.33809 12.5454 3.28433 12.3528C3.34824 12.2803 3.62019 11.9889 3.96706 11.8891C4.2177 11.8235 4.38227 11.9625 4.34552 12.0382C4.30978 12.1295 4.08644 12.1295 4.02082 12.3205C3.9193 12.611 4.24243 12.7031 4.30963 12.8344C4.3481 12.9187 4.43674 13.1353 4.17252 13.3033V13.3032ZM21.4106 7.7041C22.3209 10.8765 22.0661 13.9314 21.1276 15.7596C21.2453 14.6157 20.2403 12.9426 20.6443 10.9882C18.7418 12.8344 21.715 17.3655 17.4011 20.3411C18.0445 19.3013 18.3379 16.7237 18.1077 15.7836C18.3379 15.8783 18.5714 16.1586 18.7188 16.4024C19.0751 15.2151 19.1212 13.5392 18.4419 11.8379C18.6788 11.8721 19.1621 12.0843 19.3845 12.2906C19.4919 9.6705 17.5733 9.47433 17.2127 8.76272C17.2127 9.52895 18.1077 10.1725 18.2722 11.1748C17.6432 10.8765 17.1864 10.8467 16.8624 10.8765C17.3482 11.2328 18.4266 13.3245 18.1077 14.9968C17.6432 14.6064 17.2127 14.4266 16.7474 14.3848C17.3185 15.256 17.5511 17.5215 16.8385 18.5648C16.8189 18.3279 16.7337 17.6476 16.4653 17.3655C16.1277 18.6373 15.1365 19.1699 14.4545 19.3329C15.3009 18.4489 15.1365 16.8788 13.898 16.462C12.7856 16.0819 11.3681 16.8381 10.7928 19.4879C9.98992 19.7257 7.57514 19.211 9.01909 17.6493C9.8987 17.9477 12.136 16.4535 11.9861 15.4008C11.7687 13.939 10.439 13.426 9.38126 13.4344C8.07543 13.4583 7.19325 14.6764 6.12619 15.2022C5.23543 15.0684 4.93117 14.9423 4.47849 13.7507C4.41973 13.028 5.19282 12.5174 5.18081 11.7664C4.5467 11.8977 4.38985 10.9447 3.15479 11.936C3.05842 11.7553 3.22127 11.3284 3.22127 11.3284C2.76446 11.7434 2.67838 12.231 2.66895 12.3332C2.89314 12.7756 3.20512 13.1728 3.81278 13.5674C4.54155 15.5168 5.28904 15.7333 6.06128 15.8058C6.19267 15.9906 6.76373 16.6751 7.49079 16.7852C7.36639 16.4177 7.34838 15.3881 7.42173 15.1306C9.00194 13.5461 10.1765 14.5094 10.3291 14.932C8.92444 15.2151 9.91729 18.218 7.58873 16.8823C7.49508 17.1899 7.62376 17.9562 7.91944 18.4046C8.15736 20.4553 10.7433 19.9593 11.5454 20.3148C11.4559 18.3193 12.5623 16.8618 13.5128 16.9819C14.4665 17.1013 14.712 18.6543 13.0881 20.1237C13.4862 20.3411 15.2285 20.0454 16.1166 19.4018C16.1975 19.9123 15.5421 21.405 14.7264 22.4688C21.559 20.8977 24.6104 13.4916 21.4107 7.7041" fill="#231F20"/>
</svg>
