<svg width="75" height="25" viewBox="0 0 75 25" fill="none" xmlns="http://www.w3.org/2000/svg">
<path fill-rule="evenodd" clip-rule="evenodd" d="M25.4213 0.689891H35.071L35.0766 4.62228L32.7013 4.61796L38.3328 18.1916L43.8709 4.6309H41.4277V0.701383L49.1489 0.697075L49.1375 2.93778L39.8456 25C37.6032 25.0057 36.1441 24.1793 35.3622 22.4502L27.709 4.6309L25.4199 4.62658L25.4213 0.689891ZM12.1494 0C18.8596 0 24.2987 5.568 24.2987 12.4353C24.2987 19.3026 18.8596 24.8692 12.1494 24.8692C5.43915 24.8692 0 19.3026 0 12.4353C0 5.568 5.43915 0 12.1494 0ZM12.1126 4.06893C16.3443 4.06893 19.7744 7.85615 19.7744 12.5273C19.7744 17.1999 16.3443 20.9857 12.1126 20.9857C7.87948 20.9857 4.44944 17.1999 4.44944 12.5273C4.44944 7.85615 7.87948 4.06893 12.1126 4.06893ZM62.8506 0C69.5609 0 75 5.568 75 12.4353C75 19.3026 69.5609 24.8692 62.8506 24.8692C56.1404 24.8692 50.7013 19.3026 50.7013 12.4353C50.7013 5.568 56.1404 0 62.8506 0ZM62.8139 4.06893C67.0456 4.06893 70.4756 7.85615 70.4756 12.5273C70.4756 17.1999 67.0456 20.9857 62.8139 20.9857C58.5808 20.9857 55.1507 17.1999 55.1507 12.5273C55.1507 7.85615 58.5808 4.06893 62.8139 4.06893Z" fill="#4C3494"/>
</svg>
