<svg width="101" height="25" viewBox="0 0 101 25" fill="none" xmlns="http://www.w3.org/2000/svg">
<path fill-rule="evenodd" clip-rule="evenodd" d="M84.834 0.0833977L88.1671 1.41638L92.5004 0L84.834 0.0833977Z" fill="#D7042F"/>
<path fill-rule="evenodd" clip-rule="evenodd" d="M84.417 0.583134C85.1414 0.96635 87.1478 1.79068 87.584 2.24971L88.1671 1.49982V1.41642L84.834 0.083438L84.5707 0.0786133L84.417 0.583134Z" fill="#AD222D"/>
<path fill-rule="evenodd" clip-rule="evenodd" d="M88.167 1.41638V1.49978L89.0837 2.16627L93.2501 0.666492L92.7504 0H92.5002L88.167 1.41638Z" fill="#DC4958"/>
<path fill-rule="evenodd" clip-rule="evenodd" d="M96 7.99996L100.333 7.91656L94.25 5.1665L96 7.99996Z" fill="#7EB033"/>
<path fill-rule="evenodd" clip-rule="evenodd" d="M78.417 8.08326L81.2504 8.25006L83.5001 5.5L78.417 8.08326Z" fill="#0096B7"/>
<path fill-rule="evenodd" clip-rule="evenodd" d="M93.584 5.4167L95.0004 8.66645L96.0005 8.08335V7.99996L94.2505 5.1665L93.584 5.4167Z" fill="#5A891D"/>
<path fill-rule="evenodd" clip-rule="evenodd" d="M83.5006 5.50015L81.251 8.2502V8.33291L82.3338 8.74989L84.5007 5.83305L83.7474 5.32715L83.5006 5.50015Z" fill="#29B5E4"/>
<path fill-rule="evenodd" clip-rule="evenodd" d="M96 7.9999V8.0833L96.2502 9.16678L100.5 8.83319L100.496 8.00679L100.333 7.9165L96 7.9999Z" fill="#A1C24A"/>
<path fill-rule="evenodd" clip-rule="evenodd" d="M78.334 8.66634L81.2508 9.16673V8.25005L78.4174 8.08325L78.2402 8.16734L78.334 8.66634Z" fill="#00738F"/>
<path fill-rule="evenodd" clip-rule="evenodd" d="M89.4999 24.7498L89.6667 24.3335L95 8.6665L93.5836 5.41675C93.4299 5.65867 91.5614 14.1253 91.4097 15.0757C91.1651 16.6031 90.6364 18.3296 90.327 19.91C90.1595 20.764 89.1532 24.2508 89.4999 24.7498Z" fill="#39772F"/>
<path fill-rule="evenodd" clip-rule="evenodd" d="M87.584 2.24965L89.0838 13.2499V2.16625L88.1671 1.49976L87.584 2.24965Z" fill="#D2072E"/>
<path fill-rule="evenodd" clip-rule="evenodd" d="M89.0838 13.6668V13.2498L87.584 2.24958C87.1477 1.79055 85.1414 0.966224 84.417 0.583008L88.8398 13.5675L89.0838 13.6668Z" fill="#731C18"/>
<path fill-rule="evenodd" clip-rule="evenodd" d="M89.084 2.16628V13.6669C89.4982 13.9081 89.6623 12.8026 89.7836 12.3663C89.949 11.7763 90.1144 11.3076 90.2839 10.6997C90.6044 9.55284 90.9587 8.53001 91.284 7.36658C91.6038 6.21969 91.9567 5.19548 92.2841 4.03343C92.5205 3.19325 93.1891 1.40468 93.2504 0.666504L89.084 2.16628Z" fill="#B12130"/>
<path fill-rule="evenodd" clip-rule="evenodd" d="M81.251 9.16674L88.1675 19.6666L82.3338 8.74975L81.251 8.33276V9.16674Z" fill="#0094B5"/>
<path fill-rule="evenodd" clip-rule="evenodd" d="M14.9171 23.0832L14.8206 24.1653L13.9404 24.5616L13.917 24.8332H17.5837V24.4996C16.8421 24.4996 16.5003 24.2377 16.5003 23.5002V20.5833C16.5003 19.8073 16.9221 18.5832 17.6671 18.5832C18.1324 18.5832 17.8884 19.4165 18.417 19.4165H18.8333C19.2455 19.4165 19.5839 19.0787 19.5839 18.6666V18.5832C19.5839 18.0966 19.1538 17.6665 18.6672 17.6665H18.3336C17.2867 17.6665 16.9538 18.5618 16.5003 19.0829V17.6665L13.917 17.8333V18.1669H14.2499C14.68 18.1669 14.9171 18.5136 14.9171 18.9168V23.0832Z" fill="#343434"/>
<path fill-rule="evenodd" clip-rule="evenodd" d="M88.4175 20.2498L88.1673 19.6667L81.2508 9.16689L78.334 8.6665C79.6366 10.6115 81.8594 12.589 83.3006 14.5333C83.8637 15.2928 87.8951 20.1285 88.4175 20.2498Z" fill="#005471"/>
<path fill-rule="evenodd" clip-rule="evenodd" d="M82.334 8.74986L88.1677 19.6667L88.4179 20.2498C88.5668 20.196 88.6674 20.1891 88.6674 19.9169C88.6674 19.6515 84.7691 6.39198 84.5009 5.83301L82.334 8.74986Z" fill="#00738F"/>
<path fill-rule="evenodd" clip-rule="evenodd" d="M39.333 18.2495H40.0836V23.1665C40.0836 24.3472 40.5757 24.9999 41.7502 24.9999C42.2802 24.9999 43.5835 24.6815 43.5835 24.3334C43.5835 24.157 43.5532 24.2231 43.5001 23.9998C43.2431 24.1356 42.9184 24.4168 42.5835 24.4168C42.0424 24.4168 41.7502 23.8813 41.7502 23.3333V18.2495H43.3333V17.8332H41.7502V15.6663H41.3332C40.93 15.6663 40.9217 17.8332 39.5832 17.8332H39.333V18.2495Z" fill="#343434"/>
<path fill-rule="evenodd" clip-rule="evenodd" d="M95.0003 8.66635L89.667 24.3334L96.2506 9.16673L96.0004 8.08325L95.0003 8.66635Z" fill="#7CAD31"/>
<path fill-rule="evenodd" clip-rule="evenodd" d="M2.75006 15.25H4.00033C4.92322 15.25 5.66691 16.3197 5.66691 17.3329V18.2496C5.66691 19.4275 4.713 20.2497 3.49995 20.2497H2.75006V15.25ZM7.41688 17.5831C7.41688 15.7607 6.11215 14.833 4.33392 14.833H0.0833977V15.1666C0.710603 15.1666 1.16688 15.3865 1.16688 15.9999V23.6663C1.16688 24.2059 0.792623 24.4168 0.250193 24.4168H0V24.8331H3.91693V24.4168H3.66674C3.00714 24.4168 2.75006 24.1598 2.75006 23.5002V20.5833H4.08373C6.11146 20.5833 7.41688 19.6453 7.41688 17.5831Z" fill="#343434"/>
<path fill-rule="evenodd" clip-rule="evenodd" d="M28.5008 18.2496H28.5835C29.4305 18.2496 29.5836 19.1373 29.5836 19.9996V23.8331C29.5836 24.3707 29.2093 24.4996 28.6669 24.4996V24.8332H32.2502V24.4996H32.0007C30.0378 24.4996 32.6906 17.6665 29.5836 17.6665H28.9171C28.0838 17.6665 27.0692 18.3468 26.9169 18.9168H26.7501C26.6143 18.3337 26.0767 17.6665 25.4171 17.6665H24.417C23.5107 17.6665 23.0186 18.5977 22.5837 18.9168V17.6665L20.0004 17.8333V18.1669H20.2506C20.7903 18.1669 21.0005 18.5411 21.0005 19.0829V23.4168C21.0005 23.8455 20.906 24.4169 20.5001 24.4169H19.917V24.8332H23.5837V24.4996H23.3335C22.594 24.4996 22.5837 23.82 22.5837 23.0832V20.6667C22.5837 19.464 23.0916 18.2496 24.2502 18.2496C24.8499 18.2496 25.2503 18.894 25.2503 19.4999V23.8331C25.2503 24.3707 24.8761 24.4996 24.3336 24.4996V24.8332H27.917V24.4169H27.5007C27.1016 24.4169 26.9169 24.1343 26.9169 23.7497V20.083C26.9169 19.2772 27.6358 18.2496 28.5008 18.2496Z" fill="#343434"/>
<path fill-rule="evenodd" clip-rule="evenodd" d="M53.7502 19.6666H55.7504C57.0255 19.6666 58.0835 20.5888 58.0835 21.8329V22.1665C58.0835 23.6056 57.0062 24.4996 55.5836 24.4996H53.7502V19.6666ZM53.7502 15.1666H55.4168C56.7222 15.1666 57.7506 15.7731 57.7506 17.0834V17.3329C57.7506 18.7617 56.5265 19.333 55.0839 19.333H53.7502V15.1666ZM55.7504 14.833H51.584V15.0832H51.9169C52.3201 15.0832 52.5841 15.3465 52.5841 15.7497V23.9999C52.5841 24.421 52.0506 24.583 51.584 24.583V24.7498H56.2508C57.896 24.7498 59.3337 23.9668 59.3337 22.3333V21.9163C59.3337 20.4082 57.8346 19.4998 56.3335 19.4998C56.9545 18.9602 59.0001 19.3992 59.0001 17.0834V16.8332C59.0001 15.454 57.2074 14.833 55.7504 14.833Z" fill="#343434"/>
<path fill-rule="evenodd" clip-rule="evenodd" d="M96.2504 9.16684L89.6668 24.3335L89.5 24.7498C90.0328 25.06 90.8392 23.4913 91.1004 23.0998C91.5698 22.3954 91.9716 21.7461 92.4499 21.0335C93.3783 19.6508 94.2068 18.3571 95.1331 16.9663C96.9493 14.2389 98.6903 11.5364 100.5 8.83325L96.2504 9.16684Z" fill="#6B8F16"/>
<path fill-rule="evenodd" clip-rule="evenodd" d="M34.25 22.5835C34.25 21.5827 35.3293 20.9997 36.3335 20.9997H36.8332V22.6662C36.8332 23.5553 36.1578 24.4169 35.2501 24.4169C34.7049 24.4169 34.25 23.6849 34.25 23.0832V22.5835ZM34.0832 19.9996C35.219 19.9996 34.1411 17.9167 35.8331 17.9167H35.9165C36.5162 17.9167 36.8332 18.4819 36.8332 19.0829V20.6667C34.9323 20.6667 32.5 21.0789 32.5 22.9164V23.0832C32.5 24.259 33.2327 24.7643 34.3141 24.9366C35.8979 25.1881 36.235 24.1819 36.9166 23.9999C36.9311 24.6512 37.5101 24.8332 38.1669 24.8332H39.3331V24.4996C38.3633 24.4996 38.415 23.951 38.4164 22.9998C38.4185 22.1941 38.4164 21.3891 38.4164 20.5834C38.4164 18.7479 38.3385 17.6665 36.5003 17.6665H35.5836C34.4485 17.6665 33.0004 18.2441 33.0004 19.3331V19.4999C33.0004 19.8424 33.458 19.9996 33.8337 19.9996H34.0832Z" fill="#343434"/>
<path fill-rule="evenodd" clip-rule="evenodd" d="M45.75 22.5835C45.75 21.5028 46.8996 20.9996 48.0003 20.9996H48.3332V22.3333C48.3332 23.4251 47.8156 24.4169 46.7501 24.4169C46.2834 24.4169 45.75 23.7276 45.75 23.25V22.5835ZM45.6666 19.9996C46.597 19.9996 45.6935 17.9167 47.3332 17.9167H47.4165C48.1306 17.9167 48.3332 18.6776 48.3332 19.4165V20.6667H47.8335C45.7644 20.6667 44 21.2154 44 23.3334C44 24.0757 44.9877 25 45.75 25H46.0002C47.238 25 47.6137 24.4817 48.3332 23.9999C48.3842 24.6133 49.0025 24.8332 49.6669 24.8332H50.8338V24.4996C49.8096 24.4996 49.9157 23.9771 49.9171 22.9998C49.9178 22.2224 49.9171 21.4442 49.9171 20.6667C49.9171 19.6956 50.0391 19.1484 49.6662 18.5005C49.416 18.0649 48.8336 17.6665 48.1671 17.6665H47.0836C45.9512 17.6665 44.417 18.3096 44.417 19.3331C44.417 19.9045 44.9339 19.9996 45.5005 19.9996H45.6666Z" fill="#343434"/>
<path fill-rule="evenodd" clip-rule="evenodd" d="M61.1675 23.0832C61.1675 21.338 62.854 20.8335 64.584 20.8335V21.9163C64.584 23.2886 63.8086 24.4995 62.5011 24.4995H62.3343C61.692 24.4995 61.1675 23.7538 61.1675 23.0832ZM80.382 18.3812C80.8369 18.1138 81.1505 18.2923 81.2512 17.9166H78.2509V18.0834C78.6465 18.0834 79.1676 18.2371 79.1676 18.5831C79.1676 19.0435 76.6064 21.8439 76.3342 21.9163V17.3329L76.4348 14.751L74.4174 14.833V15.0832H74.9178C75.1873 15.0832 75.3341 15.3858 75.3341 15.6663V23.9164C75.3341 24.3197 75.0708 24.5829 74.6676 24.5829H74.0011C72.1071 24.5829 75.0777 17.6664 71.3344 17.6664C69.2619 17.6664 69.4838 18.6514 68.6678 19.2496V17.7498L66.7524 17.856L66.751 18.0834C67.3809 18.0972 67.6677 18.3591 67.6677 19.0001V23.833C67.6677 24.2866 67.3713 24.5829 66.9178 24.5829H66.2506C65.8805 24.5829 65.7316 24.3872 65.5841 24.1666C65.5841 22.7503 65.5772 21.3325 65.5848 19.9161C65.5924 18.4053 65.1795 17.6664 63.6673 17.6664H63.0842C61.9939 17.6664 60.501 18.2109 60.501 19.1662V19.4164C60.501 19.6087 60.5589 19.6666 60.7505 19.6666H61.3343C61.521 19.6666 61.5169 19.6004 61.6672 19.4998C61.6672 18.4977 62.0325 17.8332 63.0008 17.8332C64.1043 17.8332 64.584 18.3171 64.584 19.4164V19.9168L64.491 20.6653L64.0843 20.6667C62.5425 20.6667 60.084 21.2477 60.084 22.6662V23.4168C60.084 24.0274 60.8897 24.8331 61.5011 24.8331H62.5839C63.3868 24.8331 64.1167 23.8965 64.584 23.5829C64.584 24.4065 64.6791 24.8331 65.5007 24.8331H69.7506V24.5829H69.4176C68.889 24.5829 68.6678 24.1067 68.6678 23.5829V20.7501C68.6678 19.5846 69.4487 18.0834 70.5845 18.0834H71.0842C71.9802 18.0834 72.3345 19.2276 72.3345 20.1663V22.9164C72.3345 23.6807 72.3393 24.5829 71.5839 24.5829H71.251V24.8331H77.4176V24.5829H77.084C76.5554 24.5829 76.3342 24.1067 76.3342 23.5829V22.5828C76.3342 22.3278 77.3522 21.2284 77.5844 21.1664L79.7245 24.7994L81.5007 24.8331V24.5829C80.5089 24.5002 80.1105 23.4085 79.6342 22.6999C79.4419 22.4132 78.2509 20.5992 78.2509 20.4165C78.2509 20.4158 79.4364 19.1014 79.5619 18.9774C79.8079 18.7355 80.0671 18.5659 80.382 18.3812Z" fill="#343434"/>
<path fill-rule="evenodd" clip-rule="evenodd" d="M9.16655 20.4166C9.16655 19.3979 9.72553 17.9167 10.6663 17.9167C11.6947 17.9167 12 19.544 12 20.6667H9.16655V20.4166ZM10.9165 24.4169C9.66625 24.4169 9.08316 22.3657 9.08316 20.9996H13.6666V20.7501C13.6666 18.943 12.6334 17.6665 10.8331 17.6665H10.5836C6.2559 17.6665 6.20145 24.9166 10.5836 24.9166H11.1667C12.1799 24.9166 13.5832 23.9034 13.5832 23.1666C13.5832 22.9957 13.4116 23.0136 13.2503 22.9998C13.0904 23.5967 12.2033 24.4169 11.4169 24.4169H10.9165Z" fill="#343434"/>
</svg>
