<svg width="82" height="30" viewBox="0 0 82 30" fill="none" xmlns="http://www.w3.org/2000/svg">
<g clip-path="url(#clip0_835_629)">
<path d="M77.9613 18.3871V15.8052V10.6452H70.2194H65.0594V8.06323H77.9613V2.90323H65.0594H57.3174V8.06323V10.6452V15.8052H65.0594H70.2194V18.3871H57.3174V23.5471H70.2194H77.9613V18.3871ZM80.0013 16.7729V25.1613C80.0013 25.3316 79.9316 25.4981 79.8116 25.6181C79.6916 25.7381 79.5252 25.8077 79.3548 25.8077H70.9665V27.0968H80.6439C80.8142 27.0968 80.9806 27.0271 81.1006 26.9071C81.2206 26.7871 81.2903 26.6206 81.2903 26.4503V16.7729H80.0013ZM10.3239 0H0.646452C0.476129 0 0.309677 0.0696774 0.189677 0.189677C0.0696774 0.309677 0 0.476129 0 0.646452V10.3239H1.28903V1.93548C1.28903 1.76516 1.35871 1.59871 1.47871 1.47871C1.59871 1.35871 1.76516 1.28903 1.93548 1.28903H10.3239V0ZM18.6077 30H23.7677V18.3871H18.6077V30ZM23.1252 2.90323H10.8658V8.06323H18.6077V15.8052H23.7677V3.54581C23.7677 3.37548 23.6981 3.20903 23.5781 3.08903C23.4581 2.96903 23.2916 2.89935 23.1213 2.89935L23.1252 2.90323ZM8.28774 2.90323H3.77032C3.6 2.90323 3.43355 2.9729 3.31355 3.0929C3.19355 3.2129 3.12387 3.37935 3.12387 3.54968V22.9045C3.12387 23.0748 3.19355 23.2413 3.31355 23.3613C3.43355 23.4813 3.6 23.551 3.77032 23.551H16.0297V18.391H8.28774V2.9071V2.90323ZM10.8697 15.8052H16.0297V10.6452H10.8697V15.8052ZM12.1587 11.9342H14.7406V14.5161H12.1587V11.9342ZM26.3535 2.90323V8.06323H41.8374V10.6452H31.5135H26.3535V15.8052V23.5471H31.5135V15.8826L39.2555 23.5471H46.9974L38.9187 15.8052H41.8335H46.9935V10.6452V8.06323V2.90323H41.8335H26.3497H26.3535ZM49.5794 23.5471H54.7394V2.90323H49.5794V23.5471Z" fill="black"/>
</g>
<defs>
<clipPath id="clip0_835_629">
<rect width="81.2903" height="30" fill="white"/>
</clipPath>
</defs>
</svg>
