<svg width="69" height="30" viewBox="0 0 69 30" fill="none" xmlns="http://www.w3.org/2000/svg">
<path fill-rule="evenodd" clip-rule="evenodd" d="M3.59781 4.90634H25.3838C26.8329 4.90634 28.0189 6.0923 28.0189 7.54145V22.7868C28.0189 24.2359 26.8329 25.4219 25.3838 25.4219H2.96421C1.51507 25.4219 0.329102 24.2359 0.329102 22.7868V3.95432C0.329102 3.26874 0.894465 2.79435 1.57355 2.70987L21.6634 0.14624C22.349 0.14624 22.9079 0.705105 22.9079 1.39069V3.52217H2.34037C2.34037 4.41571 2.6068 4.90634 3.59456 4.90634H3.59781ZM15.8149 21.6106C13.9823 21.9615 11.6266 21.3506 10.3464 19.9729C9.76807 19.3523 10.7006 18.4133 11.2822 19.0404C12.1432 19.9697 13.6801 20.4018 14.9343 20.3726C16.5329 20.3369 17.9528 18.8845 17.0463 17.2599C15.7889 15.0114 12.6956 15.6417 11.1035 13.8742C9.81681 12.4478 10.4277 10.2058 11.9385 9.2148C13.5144 8.1783 16.234 8.21729 17.5304 9.70543C18.0893 10.3423 17.1535 11.2813 16.5947 10.638C15.5484 9.439 13.0758 9.60146 12.1303 10.8362C10.7883 12.6005 12.7963 13.5493 14.2 13.9749C16.13 14.5598 18.2713 15.6287 18.6222 17.8415C18.9016 19.622 17.5239 21.2824 15.8149 21.6106Z" fill="#EE4E2C"/>
<path fill-rule="evenodd" clip-rule="evenodd" d="M15.8147 21.6106C13.9821 21.9615 11.6264 21.3506 10.3462 19.973C9.76787 19.3524 10.7004 18.4134 11.282 19.0405C12.143 19.9697 13.6799 20.4019 14.9341 20.3726C16.5327 20.3369 17.9526 18.8845 17.0461 17.2599C15.7919 15.0114 12.6954 15.6418 11.1033 13.8774C9.81661 12.451 10.4275 10.2091 11.9383 9.21482C13.5142 8.17832 16.2338 8.21732 17.5302 9.70546C18.0891 10.3423 17.1533 11.2813 16.5945 10.638C15.5482 9.43902 13.0756 9.60148 12.1333 10.8362C10.7914 12.6005 12.7994 13.5493 14.2031 13.9749C16.1331 14.5598 18.2743 15.6288 18.6252 17.8415C18.9047 19.6221 17.527 21.2824 15.8179 21.6106H15.8147Z" fill="#FEFEFE"/>
<path d="M53.3373 3.97054C52.5575 3.97054 51.8589 4.30196 51.378 4.82508V4.21748C51.378 3.66836 50.4942 3.66511 50.4942 4.21748V11.4112C50.4942 11.9636 51.378 11.9636 51.378 11.4112V8.20751C51.8589 8.73064 52.5575 9.05881 53.3373 9.05881C54.7832 9.05881 55.9594 7.91833 55.9594 6.51467C55.9594 5.11101 54.7832 3.97054 53.3373 3.97054ZM53.3373 8.13928C52.4112 8.13928 51.6607 7.40821 51.6607 6.51467C51.6607 5.70887 52.2683 5.03628 53.0676 4.90956C53.0708 4.90956 53.0773 4.90631 53.0806 4.90631C53.1651 4.89331 53.2495 4.88682 53.334 4.88682C54.0164 4.88682 54.6077 5.28647 54.8677 5.85833C54.8677 5.86158 54.8709 5.86483 54.8709 5.86483C54.9619 6.06303 55.0106 6.28398 55.0106 6.51142C55.0106 7.40821 54.26 8.13603 53.3373 8.13603V8.13928ZM46.8258 9.05881C45.3799 9.05881 44.2037 7.91833 44.2037 6.51467C44.2037 5.11101 45.3799 3.97054 46.8258 3.97054C48.2717 3.97054 49.448 5.11101 49.448 6.51467C49.448 7.91833 48.2717 9.05881 46.8258 9.05881ZM46.8258 4.89006C45.9031 4.89006 45.1492 5.61789 45.1492 6.51467C45.1492 7.41146 45.8998 8.13928 46.8258 8.13928C47.7486 8.13928 48.5024 7.41146 48.5024 6.51467C48.5024 5.61789 47.7519 4.89006 46.8258 4.89006ZM67.9068 6.46593C67.884 5.29622 67.2667 4.24022 65.9897 4.00628C64.8882 3.80483 63.6015 4.36694 63.1304 5.3677C62.643 6.40745 62.8477 7.83385 63.8095 8.55843C64.8492 9.34149 66.4706 9.10105 67.5396 8.51944C68.0367 8.24975 67.5916 7.51218 67.0944 7.77862C66.4186 8.14578 65.5348 8.32773 64.7778 8.08079C64.2124 7.89884 63.894 7.42445 63.7965 6.89158H67.4681C67.702 6.89158 67.9132 6.69338 67.91 6.46268L67.9068 6.46593ZM63.8257 6.03704C63.8322 6.00455 63.842 5.97205 63.8517 5.94281C64.0629 5.24423 64.7843 4.84133 65.5153 4.82183C66.3569 4.79909 66.828 5.3612 66.9742 6.03704H63.8257ZM62.0289 6.47243C62.0062 5.30271 61.3888 4.24672 60.1119 4.01278C59.0104 3.81133 57.7237 4.37344 57.2526 5.3742C56.7652 6.41395 56.9699 7.84035 57.9317 8.56493C58.9714 9.34799 60.5928 9.10755 61.6618 8.52594C62.1589 8.25625 61.7137 7.51868 61.2166 7.78512C60.5408 8.15228 59.657 8.33423 58.8999 8.08729C58.3346 7.90534 58.0161 7.43095 57.9187 6.89808H61.5903C61.8242 6.89808 62.0354 6.69988 62.0322 6.46918L62.0289 6.47243ZM57.9479 6.04354C57.9544 6.01104 57.9642 5.97855 57.9739 5.94931C58.1851 5.25073 58.9064 4.84782 59.6375 4.82833C60.479 4.80558 60.9502 5.3677 61.0964 6.04354H57.9479ZM43.164 5.64713V8.62016C43.164 9.18228 42.2802 9.18228 42.2802 8.62016V5.70562C42.2509 5.13051 41.7571 4.86407 41.7408 4.85757C41.1137 4.58464 39.97 4.71136 39.2909 5.5724V8.62016C39.2909 9.18228 38.4071 9.18228 38.4071 8.62016V0.984508C38.4071 0.425643 39.2909 0.425643 39.2909 0.984508V4.41568C40.3729 3.69435 41.7506 3.77558 42.3972 4.21748C42.3972 4.21748 43.1737 4.64312 43.1607 5.65038L43.164 5.64713ZM36.9645 1.33542C36.1002 0.380154 34.2839 0.35741 33.2311 1.0235C32.2239 1.66034 31.8145 3.103 32.6723 4.01603C33.7348 5.15 35.8013 4.7471 36.6428 6.1865C37.2504 7.2295 36.2984 8.16202 35.2326 8.18477C34.3976 8.20101 33.3708 7.92483 32.7925 7.32698C32.4058 6.92732 31.782 7.52843 32.1686 7.92808C33.0232 8.81187 34.599 9.20502 35.8208 8.97758C36.9612 8.76638 37.884 7.70064 37.6955 6.55691C37.4616 5.137 36.032 4.45142 34.742 4.07451C33.803 3.80158 32.4611 3.19072 33.3611 2.06C33.9914 1.26719 35.642 1.15997 36.3406 1.93328C36.7143 2.34593 37.3381 1.74482 36.9645 1.33217V1.33542Z" fill="#EE4E2C"/>
<path fill-rule="evenodd" clip-rule="evenodd" d="M59.9814 29.8537H57.1773L60.1763 24.1839L55.2505 14.8781H58.2918L61.6969 21.3083L65.1021 14.8781H67.9062L59.9814 29.8537ZM32.0479 25.4186H34.397V21.1231H37.565C40.85 21.1231 43.5143 18.8194 43.5143 15.9763C43.5143 13.1333 40.85 10.8296 37.565 10.8296H32.0479C32.0479 15.6937 32.0479 20.5545 32.0479 25.4186ZM34.397 18.7739V13.1788H37.565C39.3488 13.1788 40.798 14.4297 40.798 15.9763C40.798 17.5197 39.3521 18.7739 37.565 18.7739H34.397ZM52.3132 14.9723H54.3765V25.3276H52.3132V24.1644C51.3937 24.9474 50.2012 25.4186 48.9015 25.4186C45.9902 25.4186 43.6313 23.0596 43.6313 20.1483C43.6313 17.237 45.9902 14.8781 48.9015 14.8781C50.2045 14.8781 51.3937 15.3492 52.3132 16.1323V14.9691V14.9723ZM48.9015 17.1006C50.5846 17.1006 51.9493 18.4652 51.9493 20.1483C51.9493 21.8314 50.5846 23.1961 48.9015 23.1961C47.2184 23.1961 45.8538 21.8314 45.8538 20.1483C45.8538 18.4652 47.2184 17.1006 48.9015 17.1006Z" fill="#EE4E2C"/>
</svg>
