<svg width="118" height="28" viewBox="0 0 118 28" fill="none" xmlns="http://www.w3.org/2000/svg">
<path fill-rule="evenodd" clip-rule="evenodd" d="M0 2.54978C0 1.14176 1.14115 0 2.54979 0H25.4503C26.8583 0 28 1.14176 28 2.54978V25.4503C28 26.8589 26.8583 28 25.4503 28H2.54979C1.1412 28 0 26.8589 0 25.4503V2.54978Z" fill="#ED1D24"/>
<path fill-rule="evenodd" clip-rule="evenodd" d="M22.1364 14.258C21.9815 19.6112 17.5935 23.9033 12.2031 23.9033C6.81209 23.9033 2.42458 19.6112 2.26972 14.258H2.7617C2.80341 18.4517 6.21605 21.8375 10.4196 21.8375C14.6231 21.8375 18.0352 18.4517 18.0774 14.258H22.1364ZM26.7496 14.258C26.6125 21.1815 20.9569 26.7513 14.0008 26.7513C7.04466 26.7513 1.38969 21.1815 1.25195 14.258H1.7731C1.93881 19.8838 6.55148 24.3936 12.2174 24.3936C17.8832 24.3936 22.4964 19.8838 22.6616 14.258H26.7496ZM17.5609 14.258C17.53 18.1791 14.3414 21.3478 10.4139 21.3478C6.48519 21.3478 3.29771 18.1791 3.26686 14.258H3.79428C3.79258 14.3168 3.79145 14.3756 3.79145 14.4351C3.79145 17.2563 6.07775 19.5432 8.89899 19.5432C11.7202 19.5432 14.0077 17.2563 14.0077 14.4351C14.0077 14.3756 14.0065 14.3168 14.0042 14.258H17.5609ZM10.4413 13.7419C10.4722 9.82071 13.6596 6.65206 17.5883 6.65206C21.5164 6.65206 24.7044 9.82071 24.7353 13.7419H24.2073C24.2096 13.6831 24.2101 13.6242 24.2101 13.5648C24.2101 10.7436 21.9233 8.45666 19.1027 8.45666C16.2809 8.45666 13.9945 10.7436 13.9945 13.5648C13.9945 13.6242 13.9951 13.6831 13.9974 13.7419H10.4413ZM1.25195 13.7419C1.38969 6.8189 7.04466 1.24854 14.0008 1.24854C20.9569 1.24854 26.6125 6.8189 26.7496 13.7419H26.2285C26.0622 8.11609 21.4501 3.60627 15.7843 3.60627C10.1179 3.60627 5.50574 8.11609 5.34003 13.7419H1.25195ZM5.86519 13.7419C6.02005 8.38867 10.4082 4.09713 15.7985 4.09713C21.1889 4.09713 25.5771 8.38867 25.7319 13.7419H25.2399C25.1976 9.54813 21.785 6.16233 17.582 6.16233C13.3785 6.16233 9.96587 9.54812 9.92416 13.7419L5.86519 13.7419Z" fill="white"/>
<path fill-rule="evenodd" clip-rule="evenodd" d="M33.6813 4.79438C33.6813 5.37267 33.7734 5.80011 33.9579 6.0767C34.2162 6.46927 34.5591 6.66584 34.9876 6.66584C35.3168 6.66584 35.5968 6.52754 35.8265 6.25044C36.0603 5.97039 36.1768 5.53041 36.1768 4.93098C36.1768 4.29324 36.0603 3.83381 35.8265 3.55382C35.5934 3.26976 35.294 3.12807 34.9294 3.12807C34.5717 3.12807 34.2745 3.26637 34.0373 3.54353C33.8002 3.81668 33.6813 4.23322 33.6813 4.79438V4.79438ZM39.4774 3.82691L38.1237 3.58524C38.2757 3.04522 38.5374 2.64638 38.9094 2.38691C39.2809 2.12749 39.8334 1.99778 40.5661 1.99778C41.2318 1.99778 41.7267 2.07662 42.0524 2.23436C42.3781 2.38865 42.6066 2.58635 42.7375 2.82808C42.8718 3.06692 42.9387 3.50634 42.9392 4.14754L42.9238 5.87211C42.9238 6.3624 42.9461 6.7253 42.9924 6.96013C43.0415 7.191 43.1318 7.44019 43.2633 7.70644H41.7873C41.7484 7.60816 41.7004 7.46302 41.6438 7.2699C41.6187 7.18247 41.6015 7.12471 41.5906 7.09673C41.3358 7.3419 41.0632 7.52643 40.7729 7.64874C40.4826 7.77104 40.1729 7.83276 39.8437 7.83276C39.2632 7.83276 38.8049 7.67671 38.4689 7.36474C38.1363 7.05332 37.9694 6.659 37.9694 6.18183C37.9694 5.8664 38.0455 5.58641 38.198 5.34068C38.35 5.09211 38.5626 4.90295 38.8352 4.77324C39.1112 4.64009 39.5077 4.52468 40.0244 4.42639C40.7221 4.29669 41.2044 4.17551 41.4735 4.0635V3.9161C41.4735 3.63266 41.4032 3.43095 41.2615 3.31153C41.1198 3.18922 40.8523 3.12807 40.4598 3.12807C40.194 3.12807 39.9872 3.18064 39.8386 3.28582C39.6901 3.38693 39.5695 3.56812 39.4775 3.82697L39.4774 3.82691ZM41.4735 5.02525C41.2827 5.08867 40.9804 5.16412 40.5661 5.25155C40.1518 5.33955 39.8809 5.42528 39.7535 5.50927C39.5592 5.64587 39.4615 5.81955 39.4615 6.02928C39.4615 6.2367 39.5398 6.41502 39.6952 6.56586C39.8506 6.71671 40.0489 6.79159 40.29 6.79159C40.5586 6.79159 40.8152 6.70416 41.0598 6.52873C41.2404 6.39614 41.3587 6.23269 41.4153 6.04014C41.4546 5.91382 41.4735 5.67385 41.4735 5.3201V5.02525ZM48.9954 7.70644H47.5034V4.85722C47.5034 4.25435 47.4713 3.86523 47.4079 3.69037C47.3439 3.51149 47.2393 3.37325 47.0948 3.27491C46.9531 3.17662 46.781 3.12807 46.5793 3.12807C46.321 3.12807 46.089 3.19781 45.8839 3.33837C45.6788 3.47837 45.537 3.66409 45.4593 3.89552C45.385 4.1264 45.3479 4.5544 45.3479 5.17785V7.70644H43.8559V2.12404H45.2416V2.94349C45.7336 2.3132 46.353 1.99778 47.0999 1.99778C47.4291 1.99778 47.7296 2.05718 48.0022 2.1766C48.2748 2.29207 48.4805 2.44122 48.6182 2.62348C48.7599 2.80581 48.8571 3.0121 48.9108 3.24354C48.9668 3.47492 48.9948 3.8064 48.9954 4.23723V7.70644ZM49.912 7.70644V0H51.4034V4.08983L53.1509 2.12404H54.9875L53.0606 4.16353L55.1258 7.70644H53.5172L52.0994 5.19899L51.4034 5.91902V7.70644H49.912ZM32.2002 7.70644V0H33.6922V2.77546C34.1522 2.2572 34.6974 1.99778 35.3276 1.99778C36.0146 1.99778 36.582 2.24459 37.0323 2.73889C37.4814 3.22918 37.706 3.9361 37.7066 4.85722C37.7066 5.81039 37.4763 6.54473 37.0163 7.0596C36.5591 7.57504 36.0037 7.83276 35.3488 7.83276C35.0265 7.83276 34.7082 7.75386 34.3934 7.59617C34.0819 7.43499 33.8128 7.19841 33.5859 6.88643V7.70644H32.2002Z" fill="#414042"/>
<path fill-rule="evenodd" clip-rule="evenodd" d="M106.774 22.016L109.736 21.5645C109.862 22.1388 110.117 22.576 110.503 22.8771C110.888 23.1714 111.427 23.3183 112.12 23.3183C112.884 23.3183 113.458 23.1788 113.843 22.8983C114.102 22.7023 114.232 22.4394 114.232 22.1102C114.232 21.8868 114.161 21.7011 114.022 21.5537C113.875 21.4142 113.546 21.2845 113.035 21.1651C110.653 20.6399 109.144 20.1605 108.507 19.7262C107.625 19.1245 107.184 18.2873 107.184 17.2158C107.184 16.2496 107.565 15.4375 108.328 14.7793C109.092 14.1209 110.275 13.7918 111.879 13.7918C113.406 13.7918 114.54 14.0403 115.283 14.5375C116.025 15.0347 116.535 15.7701 116.816 16.7427L114.032 17.2576C113.913 16.8238 113.685 16.4913 113.349 16.2598C113.02 16.029 112.548 15.9136 111.931 15.9136C111.154 15.9136 110.597 16.0221 110.261 16.2393C110.037 16.3936 109.925 16.593 109.925 16.8376C109.925 17.0479 110.023 17.2261 110.219 17.3736C110.485 17.5696 111.403 17.8462 112.971 18.2033C114.547 18.5604 115.647 18.9982 116.27 19.5159C116.886 20.0416 117.194 20.7731 117.194 21.7114C117.194 22.7337 116.767 23.6125 115.913 24.348C115.058 25.0829 113.794 25.4509 112.12 25.4509C110.601 25.4509 109.396 25.1429 108.507 24.5263C107.625 23.9103 107.047 23.0737 106.774 22.016V22.016ZM103.08 19.8422C102.702 19.9679 102.104 20.1188 101.284 20.293C100.465 20.4685 99.9286 20.64 99.6772 20.8079C99.2915 21.0811 99.0995 21.428 99.0995 21.848C99.0995 22.2611 99.2532 22.6183 99.5612 22.9188C99.8692 23.2205 100.262 23.3709 100.738 23.3709C101.27 23.3709 101.778 23.196 102.261 22.8457C102.618 22.58 102.853 22.2543 102.965 21.8691C103.042 21.6171 103.08 21.1376 103.08 20.4296V19.8422ZM99.1303 17.4467L96.452 16.9638C96.7526 15.8855 97.2709 15.0872 98.0069 14.569C98.7418 14.0512 99.8344 13.7918 101.284 13.7918C102.6 13.7918 103.581 13.949 104.225 14.2644C104.869 14.5724 105.321 14.9678 105.581 15.4512C105.846 15.9272 105.98 16.8061 105.98 18.0879L105.948 21.5331C105.948 22.5131 105.993 23.2377 106.085 23.7069C106.182 24.1691 106.361 24.6663 106.62 25.1983H103.7C103.623 25.0029 103.528 24.712 103.417 24.3269C103.367 24.152 103.333 24.036 103.312 23.98C102.807 24.4703 102.268 24.8383 101.694 25.0829C101.119 25.328 100.506 25.4503 99.8555 25.4509C98.7069 25.4509 97.8 25.1395 97.1349 24.5155C96.4765 23.8932 96.1474 23.1046 96.1474 22.1525C96.1474 21.5222 96.2977 20.9622 96.5994 20.4719C96.9006 19.9748 97.3206 19.597 97.8594 19.3376C98.4063 19.0719 99.1897 18.8405 100.213 18.6445C101.592 18.385 102.548 18.1439 103.08 17.9199V17.6256C103.08 17.0582 102.941 16.6559 102.66 16.4175C102.38 16.1724 101.852 16.0501 101.074 16.0501C100.549 16.0501 100.139 16.1553 99.8452 16.365C99.5509 16.5679 99.3126 16.929 99.1303 17.4467V17.4467ZM78.6511 14.0438H81.3716V15.5667C82.3448 14.3832 83.5037 13.7918 84.8489 13.7918C85.5632 13.7918 86.1826 13.9387 86.7078 14.233C87.2329 14.5272 87.6638 14.9718 87.9998 15.5667C88.4901 14.9718 89.0187 14.5272 89.5867 14.233C90.1535 13.9387 90.7593 13.7918 91.4039 13.7918C92.2228 13.7918 92.9165 13.9598 93.4833 14.2958C94.0508 14.625 94.4742 15.1118 94.7542 15.7558C94.9576 16.2318 95.0588 17.0027 95.0588 18.0668V25.1983H92.1067V18.8227C92.1067 17.717 92.0056 17.0027 91.8027 16.6798C91.5296 16.2598 91.1096 16.0501 90.5422 16.0501C90.1284 16.0501 89.7404 16.1758 89.3764 16.4279C89.0118 16.6798 88.749 17.0513 88.5878 17.541C88.4267 18.0244 88.3467 18.7913 88.3467 19.8422V25.1983H85.3952V19.0856C85.3952 18.0005 85.3426 17.2999 85.2374 16.9845C85.1323 16.6696 84.9677 16.4353 84.7438 16.281C84.5266 16.1273 84.2289 16.0501 83.8506 16.0501C83.3951 16.0501 82.986 16.1724 82.622 16.4176C82.2568 16.6627 81.9945 17.0164 81.8334 17.4788C81.6791 17.9404 81.6025 18.7073 81.6025 19.7788V25.1983H78.6511V14.0438ZM74.0778 25.1983H71.1263V14.0438H73.8675V15.6296C74.3372 14.8809 74.7572 14.3873 75.1287 14.1484C75.5064 13.9106 75.9332 13.7918 76.4099 13.7918C77.0818 13.7918 77.7293 13.9775 78.3533 14.3484L77.4396 16.9216C76.9418 16.5999 76.4802 16.4387 76.0527 16.4387C75.639 16.4387 75.2893 16.5541 75.0024 16.785C74.7149 17.009 74.4875 17.4187 74.3195 18.0141C74.1578 18.6096 74.0778 19.8559 74.0778 21.7531V25.1983ZM66.8416 19.8422C66.4639 19.9679 65.8651 20.1188 65.0456 20.293C64.2262 20.4685 63.6907 20.64 63.4387 20.8079C63.053 21.0811 62.8604 21.428 62.8604 21.848C62.8604 22.2611 63.0147 22.6183 63.3227 22.9188C63.6307 23.2205 64.0233 23.3709 64.4993 23.3709C65.0319 23.3709 65.5388 23.196 66.0222 22.8457C66.3799 22.58 66.6142 22.2543 66.7262 21.8691C66.8033 21.6171 66.841 21.1376 66.8416 20.4296V19.8422ZM62.8918 17.4467L60.2135 16.9638C60.5146 15.8855 61.0329 15.0872 61.7684 14.569C62.5033 14.0512 63.5964 13.7918 65.0456 13.7918C66.3616 13.7918 67.3422 13.949 67.9868 14.2644C68.6314 14.5724 69.0828 14.9678 69.3423 15.4512C69.608 15.9272 69.7411 16.8061 69.7411 18.0879L69.7097 21.5331C69.7097 22.5131 69.7549 23.2377 69.8463 23.7069C69.944 24.1692 70.1223 24.6663 70.3817 25.1983H67.4617C67.3845 25.0029 67.2896 24.712 67.1777 24.3269C67.1285 24.152 67.0942 24.036 67.0725 23.98C66.5685 24.4703 66.0296 24.8383 65.4553 25.0829C64.8805 25.328 64.2684 25.4503 63.617 25.4509C62.4684 25.4509 61.5615 25.1395 60.8964 24.5155C60.2375 23.8932 59.9089 23.1046 59.9089 22.1525C59.9089 21.5222 60.0592 20.9622 60.3609 20.4719C60.6615 19.9748 61.0821 19.597 61.6209 19.3376C62.1678 19.0719 62.9518 18.8405 63.9741 18.6445C65.3536 18.385 66.3096 18.1439 66.8416 17.9199V17.6256C66.8416 17.0582 66.7016 16.6559 66.4216 16.4175C66.1416 16.1724 65.6124 16.0501 64.8359 16.0501C64.3107 16.0501 63.9004 16.1553 63.6061 16.365C63.3118 16.5679 63.0735 16.929 62.8918 17.4467V17.4467ZM58.7683 25.1983H55.8162V19.5056C55.8162 18.3016 55.7534 17.5239 55.6271 17.1736C55.5008 16.817 55.2945 16.5404 55.0077 16.3444C54.7271 16.1478 54.3876 16.0501 53.9882 16.0501C53.4774 16.0501 53.0185 16.1901 52.6122 16.4701C52.2065 16.7501 51.9259 17.121 51.7722 17.5833C51.6253 18.0456 51.5516 18.8999 51.5516 20.1462V25.1983H48.6001V14.0438H51.3413V15.6827C52.3145 14.4221 53.5402 13.7918 55.018 13.7918C55.6694 13.7918 56.2643 13.9106 56.8037 14.1484C57.3432 14.3798 57.7489 14.6775 58.0226 15.0415C58.3026 15.4061 58.4946 15.8187 58.6003 16.281C58.7117 16.7427 58.7678 17.405 58.7684 18.2662L58.7683 25.1983ZM43.7194 14.0438H46.6715V25.1989H43.7194V14.0438ZM43.7194 9.80029H46.6715V12.5312L43.7194 12.5312V9.80029ZM31.79 22.016L34.7524 21.5645C34.8792 22.1388 35.1341 22.576 35.5192 22.8771C35.905 23.1714 36.4439 23.3183 37.137 23.3183C37.9004 23.3183 38.4748 23.1788 38.8599 22.8983C39.1187 22.7023 39.2485 22.4394 39.2485 22.1102C39.2485 21.8868 39.1782 21.7011 39.0382 21.5537C38.8919 21.4142 38.5622 21.2845 38.0513 21.1651C35.6701 20.6399 34.1609 20.1605 33.5238 19.7262C32.6415 19.1245 32.2003 18.2873 32.2003 17.2158C32.2003 16.2496 32.5815 15.4375 33.3449 14.7793C34.1083 14.1209 35.2918 13.7918 36.8953 13.7918C38.4221 13.7918 39.5565 14.0403 40.2994 14.5375C41.0417 15.0347 41.5525 15.7701 41.8331 16.7427L39.049 17.2575C38.9302 16.8238 38.7022 16.4913 38.3662 16.2598C38.037 16.029 37.5644 15.9136 36.9478 15.9136C36.1713 15.9136 35.6141 16.0221 35.2781 16.2393C35.0535 16.3936 34.9415 16.593 34.9415 16.8376C34.9415 17.0479 35.0398 17.2261 35.2358 17.3736C35.5015 17.5696 36.4193 17.8462 37.9879 18.2033C39.5639 18.5604 40.6633 18.9982 41.2868 19.5159C41.9028 20.0416 42.2108 20.773 42.2114 21.7114C42.2114 22.7337 41.784 23.6125 40.9291 24.348C40.0748 25.0829 38.8108 25.4509 37.137 25.4509C35.6175 25.4509 34.413 25.1429 33.5238 24.5263C32.6415 23.9103 32.0638 23.0737 31.79 22.0159V22.016Z" fill="#414042"/>
</svg>
