<svg width="59" height="20" viewBox="0 0 59 20" fill="none" xmlns="http://www.w3.org/2000/svg">
<path d="M30.5134 6.09099C30.4797 8.74494 32.8786 10.2261 34.6857 11.1066C36.5424 12.0101 37.166 12.5895 37.1589 13.3973C37.1447 14.634 35.6778 15.1796 34.3048 15.2009C31.9095 15.2381 30.5169 14.5542 29.4096 14.0369L28.5468 18.0745C29.6577 18.5865 31.7146 19.033 33.8477 19.0525C38.8544 19.0525 42.1302 16.581 42.1479 12.7489C42.1674 7.88568 35.4209 7.61639 35.467 5.44256C35.4829 4.7835 36.1119 4.08015 37.4902 3.90121C38.1723 3.81085 40.0556 3.74176 42.1904 4.72503L43.0284 0.81851C41.8804 0.400398 40.4046 1.90735e-06 38.5674 1.90735e-06C33.8548 1.90735e-06 30.54 2.50513 30.5134 6.09099ZM51.0807 0.336617C50.1665 0.336617 49.3958 0.86989 49.0521 1.6884L41.8999 18.7655H46.9031L47.8987 16.0141H54.0128L54.5903 18.7655H59L55.1519 0.336617H51.0807ZM51.7805 5.315L53.2244 12.2351H49.27L51.7805 5.315ZM24.4472 0.336617L20.5035 18.7655H25.271L29.213 0.336617H24.4472ZM17.3942 0.336617L12.4318 12.88L10.4245 2.21458C10.1888 1.02402 9.25872 0.336617 8.22584 0.336617H0.113387L0 0.87166C1.66537 1.23308 3.5575 1.81596 4.70377 2.43958C5.40535 2.82049 5.60555 3.15357 5.83587 4.05889L9.63786 18.7655H14.6765L22.4009 0.336617H17.3942Z" fill="url(#paint0_linear_293_276)"/>
<defs>
<linearGradient id="paint0_linear_293_276" x1="27.1248" y1="19.4347" x2="27.6762" y2="-0.132492" gradientUnits="userSpaceOnUse">
<stop stop-color="#222357"/>
<stop offset="1" stop-color="#254AA5"/>
</linearGradient>
</defs>
</svg>
